G04 #@! TF.GenerationSoftware,KiCad,Pcbnew,5.0.2+dfsg1-1*
G04 #@! TF.CreationDate,2020-05-10T22:28:15+00:00*
G04 #@! TF.ProjectId,lcd_breakout,6c63645f-6272-4656-916b-6f75742e6b69,v1.0*
G04 #@! TF.SameCoordinates,Original*
G04 #@! TF.FileFunction,Legend,Top*
G04 #@! TF.FilePolarity,Positive*
%FSLAX46Y46*%
G04 Gerber Fmt 4.6, Leading zero omitted, Abs format (unit mm)*
G04 Created by KiCad (PCBNEW 5.0.2+dfsg1-1) date Sun May 10 22:28:15 2020*
%MOMM*%
%LPD*%
G01*
G04 APERTURE LIST*
%ADD10C,0.300000*%
%ADD11C,0.150000*%
%ADD12C,0.120000*%
G04 APERTURE END LIST*
D10*
X152289142Y-129678571D02*
X152646285Y-130678571D01*
X153003428Y-129678571D01*
X154360571Y-130678571D02*
X153503428Y-130678571D01*
X153932000Y-130678571D02*
X153932000Y-129178571D01*
X153789142Y-129392857D01*
X153646285Y-129535714D01*
X153503428Y-129607142D01*
X155003428Y-130535714D02*
X155074857Y-130607142D01*
X155003428Y-130678571D01*
X154932000Y-130607142D01*
X155003428Y-130535714D01*
X155003428Y-130678571D01*
X156003428Y-129178571D02*
X156146285Y-129178571D01*
X156289142Y-129250000D01*
X156360571Y-129321428D01*
X156432000Y-129464285D01*
X156503428Y-129750000D01*
X156503428Y-130107142D01*
X156432000Y-130392857D01*
X156360571Y-130535714D01*
X156289142Y-130607142D01*
X156146285Y-130678571D01*
X156003428Y-130678571D01*
X155860571Y-130607142D01*
X155789142Y-130535714D01*
X155717714Y-130392857D01*
X155646285Y-130107142D01*
X155646285Y-129750000D01*
X155717714Y-129464285D01*
X155789142Y-129321428D01*
X155860571Y-129250000D01*
X156003428Y-129178571D01*
X130449714Y-129178571D02*
X131306857Y-129178571D01*
X130878285Y-130678571D02*
X130878285Y-129178571D01*
X132449714Y-130678571D02*
X132449714Y-129892857D01*
X132378285Y-129750000D01*
X132235428Y-129678571D01*
X131949714Y-129678571D01*
X131806857Y-129750000D01*
X132449714Y-130607142D02*
X132306857Y-130678571D01*
X131949714Y-130678571D01*
X131806857Y-130607142D01*
X131735428Y-130464285D01*
X131735428Y-130321428D01*
X131806857Y-130178571D01*
X131949714Y-130107142D01*
X132306857Y-130107142D01*
X132449714Y-130035714D01*
X133164000Y-130678571D02*
X133164000Y-129678571D01*
X133164000Y-129964285D02*
X133235428Y-129821428D01*
X133306857Y-129750000D01*
X133449714Y-129678571D01*
X133592571Y-129678571D01*
X134092571Y-129678571D02*
X134092571Y-130678571D01*
X134092571Y-129821428D02*
X134164000Y-129750000D01*
X134306857Y-129678571D01*
X134521142Y-129678571D01*
X134664000Y-129750000D01*
X134735428Y-129892857D01*
X134735428Y-130678571D01*
X137092571Y-129892857D02*
X137306857Y-129964285D01*
X137378285Y-130035714D01*
X137449714Y-130178571D01*
X137449714Y-130392857D01*
X137378285Y-130535714D01*
X137306857Y-130607142D01*
X137164000Y-130678571D01*
X136592571Y-130678571D01*
X136592571Y-129178571D01*
X137092571Y-129178571D01*
X137235428Y-129250000D01*
X137306857Y-129321428D01*
X137378285Y-129464285D01*
X137378285Y-129607142D01*
X137306857Y-129750000D01*
X137235428Y-129821428D01*
X137092571Y-129892857D01*
X136592571Y-129892857D01*
X138735428Y-130678571D02*
X138735428Y-129892857D01*
X138664000Y-129750000D01*
X138521142Y-129678571D01*
X138235428Y-129678571D01*
X138092571Y-129750000D01*
X138735428Y-130607142D02*
X138592571Y-130678571D01*
X138235428Y-130678571D01*
X138092571Y-130607142D01*
X138021142Y-130464285D01*
X138021142Y-130321428D01*
X138092571Y-130178571D01*
X138235428Y-130107142D01*
X138592571Y-130107142D01*
X138735428Y-130035714D01*
X139449714Y-130678571D02*
X139449714Y-129678571D01*
X139449714Y-129964285D02*
X139521142Y-129821428D01*
X139592571Y-129750000D01*
X139735428Y-129678571D01*
X139878285Y-129678571D01*
X140164000Y-129678571D02*
X140735428Y-129678571D01*
X140378285Y-130678571D02*
X140378285Y-129392857D01*
X140449714Y-129250000D01*
X140592571Y-129178571D01*
X140735428Y-129178571D01*
X141449714Y-130678571D02*
X141306857Y-130607142D01*
X141235428Y-130535714D01*
X141164000Y-130392857D01*
X141164000Y-129964285D01*
X141235428Y-129821428D01*
X141306857Y-129750000D01*
X141449714Y-129678571D01*
X141664000Y-129678571D01*
X141806857Y-129750000D01*
X141878285Y-129821428D01*
X141949714Y-129964285D01*
X141949714Y-130392857D01*
X141878285Y-130535714D01*
X141806857Y-130607142D01*
X141664000Y-130678571D01*
X141449714Y-130678571D01*
X142592571Y-130678571D02*
X142592571Y-129678571D01*
X142592571Y-129964285D02*
X142664000Y-129821428D01*
X142735428Y-129750000D01*
X142878285Y-129678571D01*
X143021142Y-129678571D01*
X144164000Y-130678571D02*
X144164000Y-129178571D01*
X144164000Y-130607142D02*
X144021142Y-130678571D01*
X143735428Y-130678571D01*
X143592571Y-130607142D01*
X143521142Y-130535714D01*
X143449714Y-130392857D01*
X143449714Y-129964285D01*
X143521142Y-129821428D01*
X143592571Y-129750000D01*
X143735428Y-129678571D01*
X144021142Y-129678571D01*
X144164000Y-129750000D01*
X121468857Y-55288571D02*
X120754571Y-55288571D01*
X120754571Y-53788571D01*
X122826000Y-55145714D02*
X122754571Y-55217142D01*
X122540285Y-55288571D01*
X122397428Y-55288571D01*
X122183142Y-55217142D01*
X122040285Y-55074285D01*
X121968857Y-54931428D01*
X121897428Y-54645714D01*
X121897428Y-54431428D01*
X121968857Y-54145714D01*
X122040285Y-54002857D01*
X122183142Y-53860000D01*
X122397428Y-53788571D01*
X122540285Y-53788571D01*
X122754571Y-53860000D01*
X122826000Y-53931428D01*
X123468857Y-55288571D02*
X123468857Y-53788571D01*
X123826000Y-53788571D01*
X124040285Y-53860000D01*
X124183142Y-54002857D01*
X124254571Y-54145714D01*
X124326000Y-54431428D01*
X124326000Y-54645714D01*
X124254571Y-54931428D01*
X124183142Y-55074285D01*
X124040285Y-55217142D01*
X123826000Y-55288571D01*
X123468857Y-55288571D01*
X126611714Y-54502857D02*
X126826000Y-54574285D01*
X126897428Y-54645714D01*
X126968857Y-54788571D01*
X126968857Y-55002857D01*
X126897428Y-55145714D01*
X126826000Y-55217142D01*
X126683142Y-55288571D01*
X126111714Y-55288571D01*
X126111714Y-53788571D01*
X126611714Y-53788571D01*
X126754571Y-53860000D01*
X126826000Y-53931428D01*
X126897428Y-54074285D01*
X126897428Y-54217142D01*
X126826000Y-54360000D01*
X126754571Y-54431428D01*
X126611714Y-54502857D01*
X126111714Y-54502857D01*
X127611714Y-55288571D02*
X127611714Y-54288571D01*
X127611714Y-54574285D02*
X127683142Y-54431428D01*
X127754571Y-54360000D01*
X127897428Y-54288571D01*
X128040285Y-54288571D01*
X129111714Y-55217142D02*
X128968857Y-55288571D01*
X128683142Y-55288571D01*
X128540285Y-55217142D01*
X128468857Y-55074285D01*
X128468857Y-54502857D01*
X128540285Y-54360000D01*
X128683142Y-54288571D01*
X128968857Y-54288571D01*
X129111714Y-54360000D01*
X129183142Y-54502857D01*
X129183142Y-54645714D01*
X128468857Y-54788571D01*
X130468857Y-55288571D02*
X130468857Y-54502857D01*
X130397428Y-54360000D01*
X130254571Y-54288571D01*
X129968857Y-54288571D01*
X129826000Y-54360000D01*
X130468857Y-55217142D02*
X130326000Y-55288571D01*
X129968857Y-55288571D01*
X129826000Y-55217142D01*
X129754571Y-55074285D01*
X129754571Y-54931428D01*
X129826000Y-54788571D01*
X129968857Y-54717142D01*
X130326000Y-54717142D01*
X130468857Y-54645714D01*
X131183142Y-55288571D02*
X131183142Y-53788571D01*
X131326000Y-54717142D02*
X131754571Y-55288571D01*
X131754571Y-54288571D02*
X131183142Y-54860000D01*
X132611714Y-55288571D02*
X132468857Y-55217142D01*
X132397428Y-55145714D01*
X132326000Y-55002857D01*
X132326000Y-54574285D01*
X132397428Y-54431428D01*
X132468857Y-54360000D01*
X132611714Y-54288571D01*
X132826000Y-54288571D01*
X132968857Y-54360000D01*
X133040285Y-54431428D01*
X133111714Y-54574285D01*
X133111714Y-55002857D01*
X133040285Y-55145714D01*
X132968857Y-55217142D01*
X132826000Y-55288571D01*
X132611714Y-55288571D01*
X134397428Y-54288571D02*
X134397428Y-55288571D01*
X133754571Y-54288571D02*
X133754571Y-55074285D01*
X133826000Y-55217142D01*
X133968857Y-55288571D01*
X134183142Y-55288571D01*
X134326000Y-55217142D01*
X134397428Y-55145714D01*
X134897428Y-54288571D02*
X135468857Y-54288571D01*
X135111714Y-53788571D02*
X135111714Y-55074285D01*
X135183142Y-55217142D01*
X135326000Y-55288571D01*
X135468857Y-55288571D01*
X137611714Y-54502857D02*
X137826000Y-54574285D01*
X137897428Y-54645714D01*
X137968857Y-54788571D01*
X137968857Y-55002857D01*
X137897428Y-55145714D01*
X137826000Y-55217142D01*
X137683142Y-55288571D01*
X137111714Y-55288571D01*
X137111714Y-53788571D01*
X137611714Y-53788571D01*
X137754571Y-53860000D01*
X137826000Y-53931428D01*
X137897428Y-54074285D01*
X137897428Y-54217142D01*
X137826000Y-54360000D01*
X137754571Y-54431428D01*
X137611714Y-54502857D01*
X137111714Y-54502857D01*
X138826000Y-55288571D02*
X138683142Y-55217142D01*
X138611714Y-55145714D01*
X138540285Y-55002857D01*
X138540285Y-54574285D01*
X138611714Y-54431428D01*
X138683142Y-54360000D01*
X138826000Y-54288571D01*
X139040285Y-54288571D01*
X139183142Y-54360000D01*
X139254571Y-54431428D01*
X139326000Y-54574285D01*
X139326000Y-55002857D01*
X139254571Y-55145714D01*
X139183142Y-55217142D01*
X139040285Y-55288571D01*
X138826000Y-55288571D01*
X140611714Y-55288571D02*
X140611714Y-54502857D01*
X140540285Y-54360000D01*
X140397428Y-54288571D01*
X140111714Y-54288571D01*
X139968857Y-54360000D01*
X140611714Y-55217142D02*
X140468857Y-55288571D01*
X140111714Y-55288571D01*
X139968857Y-55217142D01*
X139897428Y-55074285D01*
X139897428Y-54931428D01*
X139968857Y-54788571D01*
X140111714Y-54717142D01*
X140468857Y-54717142D01*
X140611714Y-54645714D01*
X141326000Y-55288571D02*
X141326000Y-54288571D01*
X141326000Y-54574285D02*
X141397428Y-54431428D01*
X141468857Y-54360000D01*
X141611714Y-54288571D01*
X141754571Y-54288571D01*
X142897428Y-55288571D02*
X142897428Y-53788571D01*
X142897428Y-55217142D02*
X142754571Y-55288571D01*
X142468857Y-55288571D01*
X142326000Y-55217142D01*
X142254571Y-55145714D01*
X142183142Y-55002857D01*
X142183142Y-54574285D01*
X142254571Y-54431428D01*
X142326000Y-54360000D01*
X142468857Y-54288571D01*
X142754571Y-54288571D01*
X142897428Y-54360000D01*
D11*
G04 #@! TO.C,U2*
X109601000Y-89281000D02*
X154051000Y-89281000D01*
X154051000Y-72771000D02*
X154051000Y-89281000D01*
X109601000Y-72771000D02*
X154051000Y-72771000D01*
X109601000Y-72771000D02*
X109601000Y-89281000D01*
X106426000Y-92456000D02*
X157226000Y-92456000D01*
X157226000Y-69596000D02*
X157226000Y-92456000D01*
X106426000Y-69596000D02*
X157226000Y-69596000D01*
X106426000Y-69596000D02*
X106426000Y-92456000D01*
D12*
G04 #@! TO.C,U1*
X106366000Y-113046000D02*
G75*
G02X106366000Y-115046000I0J-1000000D01*
G01*
X106366000Y-115046000D02*
X106366000Y-120506000D01*
X106366000Y-120506000D02*
X157286000Y-120506000D01*
X157286000Y-120506000D02*
X157286000Y-107586000D01*
X157286000Y-107586000D02*
X106366000Y-107586000D01*
X106366000Y-107586000D02*
X106366000Y-113046000D01*
G04 #@! TO.C,J1*
X119186000Y-128584000D02*
X119186000Y-125924000D01*
X108966000Y-128584000D02*
X119186000Y-128584000D01*
X108966000Y-125924000D02*
X119186000Y-125924000D01*
X108966000Y-128584000D02*
X108966000Y-125924000D01*
X107696000Y-128584000D02*
X106366000Y-128584000D01*
X106366000Y-128584000D02*
X106366000Y-127254000D01*
G04 #@! TO.C,C1*
X122316000Y-124425000D02*
X128556000Y-124425000D01*
X122316000Y-129067000D02*
X128556000Y-129067000D01*
X122316000Y-124425000D02*
X122316000Y-125821000D01*
X122316000Y-127671000D02*
X122316000Y-129067000D01*
X128556000Y-124425000D02*
X128556000Y-125821000D01*
X128556000Y-127671000D02*
X128556000Y-129067000D01*
G04 #@! TO.C,U2*
D11*
X131064095Y-90130380D02*
X131064095Y-90939904D01*
X131111714Y-91035142D01*
X131159333Y-91082761D01*
X131254571Y-91130380D01*
X131445047Y-91130380D01*
X131540285Y-91082761D01*
X131587904Y-91035142D01*
X131635523Y-90939904D01*
X131635523Y-90130380D01*
X132064095Y-90225619D02*
X132111714Y-90178000D01*
X132206952Y-90130380D01*
X132445047Y-90130380D01*
X132540285Y-90178000D01*
X132587904Y-90225619D01*
X132635523Y-90320857D01*
X132635523Y-90416095D01*
X132587904Y-90558952D01*
X132016476Y-91130380D01*
X132635523Y-91130380D01*
X129683142Y-71318380D02*
X129683142Y-70318380D01*
X129921238Y-70318380D01*
X130064095Y-70366000D01*
X130159333Y-70461238D01*
X130206952Y-70556476D01*
X130254571Y-70746952D01*
X130254571Y-70889809D01*
X130206952Y-71080285D01*
X130159333Y-71175523D01*
X130064095Y-71270761D01*
X129921238Y-71318380D01*
X129683142Y-71318380D01*
X130683142Y-70794571D02*
X131016476Y-70794571D01*
X131159333Y-71318380D02*
X130683142Y-71318380D01*
X130683142Y-70318380D01*
X131159333Y-70318380D01*
X132111714Y-71318380D02*
X131540285Y-71318380D01*
X131826000Y-71318380D02*
X131826000Y-70318380D01*
X131730761Y-70461238D01*
X131635523Y-70556476D01*
X131540285Y-70604095D01*
X133064095Y-71318380D02*
X132492666Y-71318380D01*
X132778380Y-71318380D02*
X132778380Y-70318380D01*
X132683142Y-70461238D01*
X132587904Y-70556476D01*
X132492666Y-70604095D01*
X133540285Y-71318380D02*
X133730761Y-71318380D01*
X133826000Y-71270761D01*
X133873619Y-71223142D01*
X133968857Y-71080285D01*
X134016476Y-70889809D01*
X134016476Y-70508857D01*
X133968857Y-70413619D01*
X133921238Y-70366000D01*
X133826000Y-70318380D01*
X133635523Y-70318380D01*
X133540285Y-70366000D01*
X133492666Y-70413619D01*
X133445047Y-70508857D01*
X133445047Y-70746952D01*
X133492666Y-70842190D01*
X133540285Y-70889809D01*
X133635523Y-70937428D01*
X133826000Y-70937428D01*
X133921238Y-70889809D01*
X133968857Y-70842190D01*
X134016476Y-70746952D01*
X113921238Y-79514095D02*
X113159333Y-78909333D01*
X112778380Y-78304571D01*
X112397428Y-77095047D01*
X112397428Y-76490285D01*
X112778380Y-75280761D01*
X113159333Y-74676000D01*
X113921238Y-74071238D01*
X115445047Y-74071238D01*
X116206952Y-74676000D01*
X116587904Y-75280761D01*
X116968857Y-76490285D01*
X116968857Y-77095047D01*
X116587904Y-78304571D01*
X116206952Y-78909333D01*
X115445047Y-79514095D01*
X113921238Y-79514095D01*
X113159333Y-80118857D01*
X112778380Y-80723619D01*
X112397428Y-81933142D01*
X112397428Y-84352190D01*
X112778380Y-85561714D01*
X113159333Y-86166476D01*
X113921238Y-86771238D01*
X115445047Y-86771238D01*
X116206952Y-86166476D01*
X116587904Y-85561714D01*
X116968857Y-84352190D01*
X116968857Y-81933142D01*
X116587904Y-80723619D01*
X116206952Y-80118857D01*
X115445047Y-79514095D01*
X120397428Y-85561714D02*
X120778380Y-86166476D01*
X120397428Y-86771238D01*
X120016476Y-86166476D01*
X120397428Y-85561714D01*
X120397428Y-86771238D01*
X125349809Y-79514095D02*
X124587904Y-78909333D01*
X124206952Y-78304571D01*
X123826000Y-77095047D01*
X123826000Y-76490285D01*
X124206952Y-75280761D01*
X124587904Y-74676000D01*
X125349809Y-74071238D01*
X126873619Y-74071238D01*
X127635523Y-74676000D01*
X128016476Y-75280761D01*
X128397428Y-76490285D01*
X128397428Y-77095047D01*
X128016476Y-78304571D01*
X127635523Y-78909333D01*
X126873619Y-79514095D01*
X125349809Y-79514095D01*
X124587904Y-80118857D01*
X124206952Y-80723619D01*
X123826000Y-81933142D01*
X123826000Y-84352190D01*
X124206952Y-85561714D01*
X124587904Y-86166476D01*
X125349809Y-86771238D01*
X126873619Y-86771238D01*
X127635523Y-86166476D01*
X128016476Y-85561714D01*
X128397428Y-84352190D01*
X128397428Y-81933142D01*
X128016476Y-80723619D01*
X127635523Y-80118857D01*
X126873619Y-79514095D01*
X131826000Y-85561714D02*
X132206952Y-86166476D01*
X131826000Y-86771238D01*
X131445047Y-86166476D01*
X131826000Y-85561714D01*
X131826000Y-86771238D01*
X131826000Y-78909333D02*
X132206952Y-79514095D01*
X131826000Y-80118857D01*
X131445047Y-79514095D01*
X131826000Y-78909333D01*
X131826000Y-80118857D01*
X136778380Y-79514095D02*
X136016476Y-78909333D01*
X135635523Y-78304571D01*
X135254571Y-77095047D01*
X135254571Y-76490285D01*
X135635523Y-75280761D01*
X136016476Y-74676000D01*
X136778380Y-74071238D01*
X138302190Y-74071238D01*
X139064095Y-74676000D01*
X139445047Y-75280761D01*
X139826000Y-76490285D01*
X139826000Y-77095047D01*
X139445047Y-78304571D01*
X139064095Y-78909333D01*
X138302190Y-79514095D01*
X136778380Y-79514095D01*
X136016476Y-80118857D01*
X135635523Y-80723619D01*
X135254571Y-81933142D01*
X135254571Y-84352190D01*
X135635523Y-85561714D01*
X136016476Y-86166476D01*
X136778380Y-86771238D01*
X138302190Y-86771238D01*
X139064095Y-86166476D01*
X139445047Y-85561714D01*
X139826000Y-84352190D01*
X139826000Y-81933142D01*
X139445047Y-80723619D01*
X139064095Y-80118857D01*
X138302190Y-79514095D01*
X143254571Y-85561714D02*
X143635523Y-86166476D01*
X143254571Y-86771238D01*
X142873619Y-86166476D01*
X143254571Y-85561714D01*
X143254571Y-86771238D01*
X148206952Y-79514095D02*
X147445047Y-78909333D01*
X147064095Y-78304571D01*
X146683142Y-77095047D01*
X146683142Y-76490285D01*
X147064095Y-75280761D01*
X147445047Y-74676000D01*
X148206952Y-74071238D01*
X149730761Y-74071238D01*
X150492666Y-74676000D01*
X150873619Y-75280761D01*
X151254571Y-76490285D01*
X151254571Y-77095047D01*
X150873619Y-78304571D01*
X150492666Y-78909333D01*
X149730761Y-79514095D01*
X148206952Y-79514095D01*
X147445047Y-80118857D01*
X147064095Y-80723619D01*
X146683142Y-81933142D01*
X146683142Y-84352190D01*
X147064095Y-85561714D01*
X147445047Y-86166476D01*
X148206952Y-86771238D01*
X149730761Y-86771238D01*
X150492666Y-86166476D01*
X150873619Y-85561714D01*
X151254571Y-84352190D01*
X151254571Y-81933142D01*
X150873619Y-80723619D01*
X150492666Y-80118857D01*
X149730761Y-79514095D01*
G04 #@! TO.C,U1*
X131318095Y-114514380D02*
X131318095Y-115323904D01*
X131365714Y-115419142D01*
X131413333Y-115466761D01*
X131508571Y-115514380D01*
X131699047Y-115514380D01*
X131794285Y-115466761D01*
X131841904Y-115419142D01*
X131889523Y-115323904D01*
X131889523Y-114514380D01*
X132889523Y-115514380D02*
X132318095Y-115514380D01*
X132603809Y-115514380D02*
X132603809Y-114514380D01*
X132508571Y-114657238D01*
X132413333Y-114752476D01*
X132318095Y-114800095D01*
X128421333Y-117006666D02*
X128897523Y-117006666D01*
X128326095Y-117292380D02*
X128659428Y-116292380D01*
X128992761Y-117292380D01*
X129516571Y-116816190D02*
X129516571Y-117292380D01*
X129183238Y-116292380D02*
X129516571Y-116816190D01*
X129849904Y-116292380D01*
X130373714Y-116292380D02*
X130468952Y-116292380D01*
X130564190Y-116340000D01*
X130611809Y-116387619D01*
X130659428Y-116482857D01*
X130707047Y-116673333D01*
X130707047Y-116911428D01*
X130659428Y-117101904D01*
X130611809Y-117197142D01*
X130564190Y-117244761D01*
X130468952Y-117292380D01*
X130373714Y-117292380D01*
X130278476Y-117244761D01*
X130230857Y-117197142D01*
X130183238Y-117101904D01*
X130135619Y-116911428D01*
X130135619Y-116673333D01*
X130183238Y-116482857D01*
X130230857Y-116387619D01*
X130278476Y-116340000D01*
X130373714Y-116292380D01*
X131564190Y-116625714D02*
X131564190Y-117292380D01*
X131326095Y-116244761D02*
X131088000Y-116959047D01*
X131707047Y-116959047D01*
X131992761Y-116292380D02*
X132611809Y-116292380D01*
X132278476Y-116673333D01*
X132421333Y-116673333D01*
X132516571Y-116720952D01*
X132564190Y-116768571D01*
X132611809Y-116863809D01*
X132611809Y-117101904D01*
X132564190Y-117197142D01*
X132516571Y-117244761D01*
X132421333Y-117292380D01*
X132135619Y-117292380D01*
X132040380Y-117244761D01*
X131992761Y-117197142D01*
X133183238Y-116720952D02*
X133088000Y-116673333D01*
X133040380Y-116625714D01*
X132992761Y-116530476D01*
X132992761Y-116482857D01*
X133040380Y-116387619D01*
X133088000Y-116340000D01*
X133183238Y-116292380D01*
X133373714Y-116292380D01*
X133468952Y-116340000D01*
X133516571Y-116387619D01*
X133564190Y-116482857D01*
X133564190Y-116530476D01*
X133516571Y-116625714D01*
X133468952Y-116673333D01*
X133373714Y-116720952D01*
X133183238Y-116720952D01*
X133088000Y-116768571D01*
X133040380Y-116816190D01*
X132992761Y-116911428D01*
X132992761Y-117101904D01*
X133040380Y-117197142D01*
X133088000Y-117244761D01*
X133183238Y-117292380D01*
X133373714Y-117292380D01*
X133468952Y-117244761D01*
X133516571Y-117197142D01*
X133564190Y-117101904D01*
X133564190Y-116911428D01*
X133516571Y-116816190D01*
X133468952Y-116768571D01*
X133373714Y-116720952D01*
X133897523Y-116292380D02*
X134564190Y-117292380D01*
X134564190Y-116292380D02*
X133897523Y-117292380D01*
X134945142Y-116911428D02*
X135707047Y-116911428D01*
X136183238Y-117292380D02*
X136183238Y-116292380D01*
X136564190Y-116292380D01*
X136659428Y-116340000D01*
X136707047Y-116387619D01*
X136754666Y-116482857D01*
X136754666Y-116625714D01*
X136707047Y-116720952D01*
X136659428Y-116768571D01*
X136564190Y-116816190D01*
X136183238Y-116816190D01*
G04 #@! TO.C,J1*
X104818380Y-127587333D02*
X105532666Y-127587333D01*
X105675523Y-127634952D01*
X105770761Y-127730190D01*
X105818380Y-127873047D01*
X105818380Y-127968285D01*
X105818380Y-126587333D02*
X105818380Y-127158761D01*
X105818380Y-126873047D02*
X104818380Y-126873047D01*
X104961238Y-126968285D01*
X105056476Y-127063523D01*
X105104095Y-127158761D01*
G04 #@! TO.C,C1*
X125269333Y-127103142D02*
X125221714Y-127150761D01*
X125078857Y-127198380D01*
X124983619Y-127198380D01*
X124840761Y-127150761D01*
X124745523Y-127055523D01*
X124697904Y-126960285D01*
X124650285Y-126769809D01*
X124650285Y-126626952D01*
X124697904Y-126436476D01*
X124745523Y-126341238D01*
X124840761Y-126246000D01*
X124983619Y-126198380D01*
X125078857Y-126198380D01*
X125221714Y-126246000D01*
X125269333Y-126293619D01*
X126221714Y-127198380D02*
X125650285Y-127198380D01*
X125936000Y-127198380D02*
X125936000Y-126198380D01*
X125840761Y-126341238D01*
X125745523Y-126436476D01*
X125650285Y-126484095D01*
G04 #@! TD*
M02*
