G04 #@! TF.GenerationSoftware,KiCad,Pcbnew,5.0.2+dfsg1-1*
G04 #@! TF.CreationDate,2020-05-10T19:58:41+00:00*
G04 #@! TF.ProjectId,lcd_breakout,6c63645f-6272-4656-916b-6f75742e6b69,v1.0*
G04 #@! TF.SameCoordinates,Original*
G04 #@! TF.FileFunction,Soldermask,Bot*
G04 #@! TF.FilePolarity,Negative*
%FSLAX46Y46*%
G04 Gerber Fmt 4.6, Leading zero omitted, Abs format (unit mm)*
G04 Created by KiCad (PCBNEW 5.0.2+dfsg1-1) date Sun May 10 19:58:41 2020*
%MOMM*%
%LPD*%
G01*
G04 APERTURE LIST*
%ADD10C,0.100000*%
G04 APERTURE END LIST*
D10*
G36*
X162525331Y-131268211D02*
X162853092Y-131403974D01*
X163148073Y-131601074D01*
X163398926Y-131851927D01*
X163596026Y-132146908D01*
X163731789Y-132474669D01*
X163801000Y-132822616D01*
X163801000Y-133177384D01*
X163731789Y-133525331D01*
X163596026Y-133853092D01*
X163398926Y-134148073D01*
X163148073Y-134398926D01*
X162853092Y-134596026D01*
X162525331Y-134731789D01*
X162177384Y-134801000D01*
X161822616Y-134801000D01*
X161474669Y-134731789D01*
X161146908Y-134596026D01*
X160851927Y-134398926D01*
X160601074Y-134148073D01*
X160403974Y-133853092D01*
X160268211Y-133525331D01*
X160199000Y-133177384D01*
X160199000Y-132822616D01*
X160268211Y-132474669D01*
X160403974Y-132146908D01*
X160601074Y-131851927D01*
X160851927Y-131601074D01*
X161146908Y-131403974D01*
X161474669Y-131268211D01*
X161822616Y-131199000D01*
X162177384Y-131199000D01*
X162525331Y-131268211D01*
X162525331Y-131268211D01*
G37*
G36*
X100525331Y-131268211D02*
X100853092Y-131403974D01*
X101148073Y-131601074D01*
X101398926Y-131851927D01*
X101596026Y-132146908D01*
X101731789Y-132474669D01*
X101801000Y-132822616D01*
X101801000Y-133177384D01*
X101731789Y-133525331D01*
X101596026Y-133853092D01*
X101398926Y-134148073D01*
X101148073Y-134398926D01*
X100853092Y-134596026D01*
X100525331Y-134731789D01*
X100177384Y-134801000D01*
X99822616Y-134801000D01*
X99474669Y-134731789D01*
X99146908Y-134596026D01*
X98851927Y-134398926D01*
X98601074Y-134148073D01*
X98403974Y-133853092D01*
X98268211Y-133525331D01*
X98199000Y-133177384D01*
X98199000Y-132822616D01*
X98268211Y-132474669D01*
X98403974Y-132146908D01*
X98601074Y-131851927D01*
X98851927Y-131601074D01*
X99146908Y-131403974D01*
X99474669Y-131268211D01*
X99822616Y-131199000D01*
X100177384Y-131199000D01*
X100525331Y-131268211D01*
X100525331Y-131268211D01*
G37*
G36*
X115426443Y-126359519D02*
X115492627Y-126366037D01*
X115605853Y-126400384D01*
X115662467Y-126417557D01*
X115801087Y-126491652D01*
X115818991Y-126501222D01*
X115854729Y-126530552D01*
X115956186Y-126613814D01*
X116039448Y-126715271D01*
X116068778Y-126751009D01*
X116068779Y-126751011D01*
X116152443Y-126907533D01*
X116152443Y-126907534D01*
X116203963Y-127077373D01*
X116221359Y-127254000D01*
X116203963Y-127430627D01*
X116182874Y-127500147D01*
X116152443Y-127600467D01*
X116078348Y-127739087D01*
X116068778Y-127756991D01*
X116039448Y-127792729D01*
X115956186Y-127894186D01*
X115854729Y-127977448D01*
X115818991Y-128006778D01*
X115818989Y-128006779D01*
X115662467Y-128090443D01*
X115605853Y-128107616D01*
X115492627Y-128141963D01*
X115426443Y-128148481D01*
X115360260Y-128155000D01*
X115271740Y-128155000D01*
X115205557Y-128148481D01*
X115139373Y-128141963D01*
X115026147Y-128107616D01*
X114969533Y-128090443D01*
X114813011Y-128006779D01*
X114813009Y-128006778D01*
X114777271Y-127977448D01*
X114675814Y-127894186D01*
X114592552Y-127792729D01*
X114563222Y-127756991D01*
X114553652Y-127739087D01*
X114479557Y-127600467D01*
X114449126Y-127500147D01*
X114428037Y-127430627D01*
X114410641Y-127254000D01*
X114428037Y-127077373D01*
X114479557Y-126907534D01*
X114479557Y-126907533D01*
X114563221Y-126751011D01*
X114563222Y-126751009D01*
X114592552Y-126715271D01*
X114675814Y-126613814D01*
X114777271Y-126530552D01*
X114813009Y-126501222D01*
X114830913Y-126491652D01*
X114969533Y-126417557D01*
X115026147Y-126400384D01*
X115139373Y-126366037D01*
X115205557Y-126359519D01*
X115271740Y-126353000D01*
X115360260Y-126353000D01*
X115426443Y-126359519D01*
X115426443Y-126359519D01*
G37*
G36*
X112886443Y-126359519D02*
X112952627Y-126366037D01*
X113065853Y-126400384D01*
X113122467Y-126417557D01*
X113261087Y-126491652D01*
X113278991Y-126501222D01*
X113314729Y-126530552D01*
X113416186Y-126613814D01*
X113499448Y-126715271D01*
X113528778Y-126751009D01*
X113528779Y-126751011D01*
X113612443Y-126907533D01*
X113612443Y-126907534D01*
X113663963Y-127077373D01*
X113681359Y-127254000D01*
X113663963Y-127430627D01*
X113642874Y-127500147D01*
X113612443Y-127600467D01*
X113538348Y-127739087D01*
X113528778Y-127756991D01*
X113499448Y-127792729D01*
X113416186Y-127894186D01*
X113314729Y-127977448D01*
X113278991Y-128006778D01*
X113278989Y-128006779D01*
X113122467Y-128090443D01*
X113065853Y-128107616D01*
X112952627Y-128141963D01*
X112886443Y-128148481D01*
X112820260Y-128155000D01*
X112731740Y-128155000D01*
X112665557Y-128148481D01*
X112599373Y-128141963D01*
X112486147Y-128107616D01*
X112429533Y-128090443D01*
X112273011Y-128006779D01*
X112273009Y-128006778D01*
X112237271Y-127977448D01*
X112135814Y-127894186D01*
X112052552Y-127792729D01*
X112023222Y-127756991D01*
X112013652Y-127739087D01*
X111939557Y-127600467D01*
X111909126Y-127500147D01*
X111888037Y-127430627D01*
X111870641Y-127254000D01*
X111888037Y-127077373D01*
X111939557Y-126907534D01*
X111939557Y-126907533D01*
X112023221Y-126751011D01*
X112023222Y-126751009D01*
X112052552Y-126715271D01*
X112135814Y-126613814D01*
X112237271Y-126530552D01*
X112273009Y-126501222D01*
X112290913Y-126491652D01*
X112429533Y-126417557D01*
X112486147Y-126400384D01*
X112599373Y-126366037D01*
X112665557Y-126359519D01*
X112731740Y-126353000D01*
X112820260Y-126353000D01*
X112886443Y-126359519D01*
X112886443Y-126359519D01*
G37*
G36*
X110346443Y-126359519D02*
X110412627Y-126366037D01*
X110525853Y-126400384D01*
X110582467Y-126417557D01*
X110721087Y-126491652D01*
X110738991Y-126501222D01*
X110774729Y-126530552D01*
X110876186Y-126613814D01*
X110959448Y-126715271D01*
X110988778Y-126751009D01*
X110988779Y-126751011D01*
X111072443Y-126907533D01*
X111072443Y-126907534D01*
X111123963Y-127077373D01*
X111141359Y-127254000D01*
X111123963Y-127430627D01*
X111102874Y-127500147D01*
X111072443Y-127600467D01*
X110998348Y-127739087D01*
X110988778Y-127756991D01*
X110959448Y-127792729D01*
X110876186Y-127894186D01*
X110774729Y-127977448D01*
X110738991Y-128006778D01*
X110738989Y-128006779D01*
X110582467Y-128090443D01*
X110525853Y-128107616D01*
X110412627Y-128141963D01*
X110346443Y-128148481D01*
X110280260Y-128155000D01*
X110191740Y-128155000D01*
X110125557Y-128148481D01*
X110059373Y-128141963D01*
X109946147Y-128107616D01*
X109889533Y-128090443D01*
X109733011Y-128006779D01*
X109733009Y-128006778D01*
X109697271Y-127977448D01*
X109595814Y-127894186D01*
X109512552Y-127792729D01*
X109483222Y-127756991D01*
X109473652Y-127739087D01*
X109399557Y-127600467D01*
X109369126Y-127500147D01*
X109348037Y-127430627D01*
X109330641Y-127254000D01*
X109348037Y-127077373D01*
X109399557Y-126907534D01*
X109399557Y-126907533D01*
X109483221Y-126751011D01*
X109483222Y-126751009D01*
X109512552Y-126715271D01*
X109595814Y-126613814D01*
X109697271Y-126530552D01*
X109733009Y-126501222D01*
X109750913Y-126491652D01*
X109889533Y-126417557D01*
X109946147Y-126400384D01*
X110059373Y-126366037D01*
X110125557Y-126359519D01*
X110191740Y-126353000D01*
X110280260Y-126353000D01*
X110346443Y-126359519D01*
X110346443Y-126359519D01*
G37*
G36*
X108597000Y-128155000D02*
X106795000Y-128155000D01*
X106795000Y-126353000D01*
X108597000Y-126353000D01*
X108597000Y-128155000D01*
X108597000Y-128155000D01*
G37*
G36*
X117966443Y-126359519D02*
X118032627Y-126366037D01*
X118145853Y-126400384D01*
X118202467Y-126417557D01*
X118341087Y-126491652D01*
X118358991Y-126501222D01*
X118394729Y-126530552D01*
X118496186Y-126613814D01*
X118579448Y-126715271D01*
X118608778Y-126751009D01*
X118608779Y-126751011D01*
X118692443Y-126907533D01*
X118692443Y-126907534D01*
X118743963Y-127077373D01*
X118761359Y-127254000D01*
X118743963Y-127430627D01*
X118722874Y-127500147D01*
X118692443Y-127600467D01*
X118618348Y-127739087D01*
X118608778Y-127756991D01*
X118579448Y-127792729D01*
X118496186Y-127894186D01*
X118394729Y-127977448D01*
X118358991Y-128006778D01*
X118358989Y-128006779D01*
X118202467Y-128090443D01*
X118145853Y-128107616D01*
X118032627Y-128141963D01*
X117966443Y-128148481D01*
X117900260Y-128155000D01*
X117811740Y-128155000D01*
X117745557Y-128148481D01*
X117679373Y-128141963D01*
X117566147Y-128107616D01*
X117509533Y-128090443D01*
X117353011Y-128006779D01*
X117353009Y-128006778D01*
X117317271Y-127977448D01*
X117215814Y-127894186D01*
X117132552Y-127792729D01*
X117103222Y-127756991D01*
X117093652Y-127739087D01*
X117019557Y-127600467D01*
X116989126Y-127500147D01*
X116968037Y-127430627D01*
X116950641Y-127254000D01*
X116968037Y-127077373D01*
X117019557Y-126907534D01*
X117019557Y-126907533D01*
X117103221Y-126751011D01*
X117103222Y-126751009D01*
X117132552Y-126715271D01*
X117215814Y-126613814D01*
X117317271Y-126530552D01*
X117353009Y-126501222D01*
X117370913Y-126491652D01*
X117509533Y-126417557D01*
X117566147Y-126400384D01*
X117679373Y-126366037D01*
X117745557Y-126359519D01*
X117811740Y-126353000D01*
X117900260Y-126353000D01*
X117966443Y-126359519D01*
X117966443Y-126359519D01*
G37*
G36*
X128184228Y-125927703D02*
X128339100Y-125991853D01*
X128478481Y-126084985D01*
X128597015Y-126203519D01*
X128690147Y-126342900D01*
X128754297Y-126497772D01*
X128787000Y-126662184D01*
X128787000Y-126829816D01*
X128754297Y-126994228D01*
X128690147Y-127149100D01*
X128597015Y-127288481D01*
X128478481Y-127407015D01*
X128339100Y-127500147D01*
X128184228Y-127564297D01*
X128019816Y-127597000D01*
X127852184Y-127597000D01*
X127687772Y-127564297D01*
X127532900Y-127500147D01*
X127393519Y-127407015D01*
X127274985Y-127288481D01*
X127181853Y-127149100D01*
X127117703Y-126994228D01*
X127085000Y-126829816D01*
X127085000Y-126662184D01*
X127117703Y-126497772D01*
X127181853Y-126342900D01*
X127274985Y-126203519D01*
X127393519Y-126084985D01*
X127532900Y-125991853D01*
X127687772Y-125927703D01*
X127852184Y-125895000D01*
X128019816Y-125895000D01*
X128184228Y-125927703D01*
X128184228Y-125927703D01*
G37*
G36*
X123184228Y-125927703D02*
X123339100Y-125991853D01*
X123478481Y-126084985D01*
X123597015Y-126203519D01*
X123690147Y-126342900D01*
X123754297Y-126497772D01*
X123787000Y-126662184D01*
X123787000Y-126829816D01*
X123754297Y-126994228D01*
X123690147Y-127149100D01*
X123597015Y-127288481D01*
X123478481Y-127407015D01*
X123339100Y-127500147D01*
X123184228Y-127564297D01*
X123019816Y-127597000D01*
X122852184Y-127597000D01*
X122687772Y-127564297D01*
X122532900Y-127500147D01*
X122393519Y-127407015D01*
X122274985Y-127288481D01*
X122181853Y-127149100D01*
X122117703Y-126994228D01*
X122085000Y-126829816D01*
X122085000Y-126662184D01*
X122117703Y-126497772D01*
X122181853Y-126342900D01*
X122274985Y-126203519D01*
X122393519Y-126084985D01*
X122532900Y-125991853D01*
X122687772Y-125927703D01*
X122852184Y-125895000D01*
X123019816Y-125895000D01*
X123184228Y-125927703D01*
X123184228Y-125927703D01*
G37*
G36*
X128182821Y-120827313D02*
X128182824Y-120827314D01*
X128182825Y-120827314D01*
X128343239Y-120875975D01*
X128343241Y-120875976D01*
X128343244Y-120875977D01*
X128491078Y-120954995D01*
X128620659Y-121061341D01*
X128727005Y-121190922D01*
X128806023Y-121338756D01*
X128854687Y-121499179D01*
X128871117Y-121666000D01*
X128854687Y-121832821D01*
X128806023Y-121993244D01*
X128727005Y-122141078D01*
X128620659Y-122270659D01*
X128491078Y-122377005D01*
X128343244Y-122456023D01*
X128343241Y-122456024D01*
X128343239Y-122456025D01*
X128182825Y-122504686D01*
X128182824Y-122504686D01*
X128182821Y-122504687D01*
X128057804Y-122517000D01*
X127974196Y-122517000D01*
X127849179Y-122504687D01*
X127849176Y-122504686D01*
X127849175Y-122504686D01*
X127688761Y-122456025D01*
X127688759Y-122456024D01*
X127688756Y-122456023D01*
X127540922Y-122377005D01*
X127411341Y-122270659D01*
X127304995Y-122141078D01*
X127225977Y-121993244D01*
X127177313Y-121832821D01*
X127160883Y-121666000D01*
X127177313Y-121499179D01*
X127225977Y-121338756D01*
X127304995Y-121190922D01*
X127411341Y-121061341D01*
X127540922Y-120954995D01*
X127688756Y-120875977D01*
X127688759Y-120875976D01*
X127688761Y-120875975D01*
X127849175Y-120827314D01*
X127849176Y-120827314D01*
X127849179Y-120827313D01*
X127974196Y-120815000D01*
X128057804Y-120815000D01*
X128182821Y-120827313D01*
X128182821Y-120827313D01*
G37*
G36*
X130722821Y-120827313D02*
X130722824Y-120827314D01*
X130722825Y-120827314D01*
X130883239Y-120875975D01*
X130883241Y-120875976D01*
X130883244Y-120875977D01*
X131031078Y-120954995D01*
X131160659Y-121061341D01*
X131267005Y-121190922D01*
X131346023Y-121338756D01*
X131394687Y-121499179D01*
X131411117Y-121666000D01*
X131394687Y-121832821D01*
X131346023Y-121993244D01*
X131267005Y-122141078D01*
X131160659Y-122270659D01*
X131031078Y-122377005D01*
X130883244Y-122456023D01*
X130883241Y-122456024D01*
X130883239Y-122456025D01*
X130722825Y-122504686D01*
X130722824Y-122504686D01*
X130722821Y-122504687D01*
X130597804Y-122517000D01*
X130514196Y-122517000D01*
X130389179Y-122504687D01*
X130389176Y-122504686D01*
X130389175Y-122504686D01*
X130228761Y-122456025D01*
X130228759Y-122456024D01*
X130228756Y-122456023D01*
X130080922Y-122377005D01*
X129951341Y-122270659D01*
X129844995Y-122141078D01*
X129765977Y-121993244D01*
X129717313Y-121832821D01*
X129700883Y-121666000D01*
X129717313Y-121499179D01*
X129765977Y-121338756D01*
X129844995Y-121190922D01*
X129951341Y-121061341D01*
X130080922Y-120954995D01*
X130228756Y-120875977D01*
X130228759Y-120875976D01*
X130228761Y-120875975D01*
X130389175Y-120827314D01*
X130389176Y-120827314D01*
X130389179Y-120827313D01*
X130514196Y-120815000D01*
X130597804Y-120815000D01*
X130722821Y-120827313D01*
X130722821Y-120827313D01*
G37*
G36*
X133262821Y-120827313D02*
X133262824Y-120827314D01*
X133262825Y-120827314D01*
X133423239Y-120875975D01*
X133423241Y-120875976D01*
X133423244Y-120875977D01*
X133571078Y-120954995D01*
X133700659Y-121061341D01*
X133807005Y-121190922D01*
X133886023Y-121338756D01*
X133934687Y-121499179D01*
X133951117Y-121666000D01*
X133934687Y-121832821D01*
X133886023Y-121993244D01*
X133807005Y-122141078D01*
X133700659Y-122270659D01*
X133571078Y-122377005D01*
X133423244Y-122456023D01*
X133423241Y-122456024D01*
X133423239Y-122456025D01*
X133262825Y-122504686D01*
X133262824Y-122504686D01*
X133262821Y-122504687D01*
X133137804Y-122517000D01*
X133054196Y-122517000D01*
X132929179Y-122504687D01*
X132929176Y-122504686D01*
X132929175Y-122504686D01*
X132768761Y-122456025D01*
X132768759Y-122456024D01*
X132768756Y-122456023D01*
X132620922Y-122377005D01*
X132491341Y-122270659D01*
X132384995Y-122141078D01*
X132305977Y-121993244D01*
X132257313Y-121832821D01*
X132240883Y-121666000D01*
X132257313Y-121499179D01*
X132305977Y-121338756D01*
X132384995Y-121190922D01*
X132491341Y-121061341D01*
X132620922Y-120954995D01*
X132768756Y-120875977D01*
X132768759Y-120875976D01*
X132768761Y-120875975D01*
X132929175Y-120827314D01*
X132929176Y-120827314D01*
X132929179Y-120827313D01*
X133054196Y-120815000D01*
X133137804Y-120815000D01*
X133262821Y-120827313D01*
X133262821Y-120827313D01*
G37*
G36*
X138342821Y-120827313D02*
X138342824Y-120827314D01*
X138342825Y-120827314D01*
X138503239Y-120875975D01*
X138503241Y-120875976D01*
X138503244Y-120875977D01*
X138651078Y-120954995D01*
X138780659Y-121061341D01*
X138887005Y-121190922D01*
X138966023Y-121338756D01*
X139014687Y-121499179D01*
X139031117Y-121666000D01*
X139014687Y-121832821D01*
X138966023Y-121993244D01*
X138887005Y-122141078D01*
X138780659Y-122270659D01*
X138651078Y-122377005D01*
X138503244Y-122456023D01*
X138503241Y-122456024D01*
X138503239Y-122456025D01*
X138342825Y-122504686D01*
X138342824Y-122504686D01*
X138342821Y-122504687D01*
X138217804Y-122517000D01*
X138134196Y-122517000D01*
X138009179Y-122504687D01*
X138009176Y-122504686D01*
X138009175Y-122504686D01*
X137848761Y-122456025D01*
X137848759Y-122456024D01*
X137848756Y-122456023D01*
X137700922Y-122377005D01*
X137571341Y-122270659D01*
X137464995Y-122141078D01*
X137385977Y-121993244D01*
X137337313Y-121832821D01*
X137320883Y-121666000D01*
X137337313Y-121499179D01*
X137385977Y-121338756D01*
X137464995Y-121190922D01*
X137571341Y-121061341D01*
X137700922Y-120954995D01*
X137848756Y-120875977D01*
X137848759Y-120875976D01*
X137848761Y-120875975D01*
X138009175Y-120827314D01*
X138009176Y-120827314D01*
X138009179Y-120827313D01*
X138134196Y-120815000D01*
X138217804Y-120815000D01*
X138342821Y-120827313D01*
X138342821Y-120827313D01*
G37*
G36*
X145962821Y-120827313D02*
X145962824Y-120827314D01*
X145962825Y-120827314D01*
X146123239Y-120875975D01*
X146123241Y-120875976D01*
X146123244Y-120875977D01*
X146271078Y-120954995D01*
X146400659Y-121061341D01*
X146507005Y-121190922D01*
X146586023Y-121338756D01*
X146634687Y-121499179D01*
X146651117Y-121666000D01*
X146634687Y-121832821D01*
X146586023Y-121993244D01*
X146507005Y-122141078D01*
X146400659Y-122270659D01*
X146271078Y-122377005D01*
X146123244Y-122456023D01*
X146123241Y-122456024D01*
X146123239Y-122456025D01*
X145962825Y-122504686D01*
X145962824Y-122504686D01*
X145962821Y-122504687D01*
X145837804Y-122517000D01*
X145754196Y-122517000D01*
X145629179Y-122504687D01*
X145629176Y-122504686D01*
X145629175Y-122504686D01*
X145468761Y-122456025D01*
X145468759Y-122456024D01*
X145468756Y-122456023D01*
X145320922Y-122377005D01*
X145191341Y-122270659D01*
X145084995Y-122141078D01*
X145005977Y-121993244D01*
X144957313Y-121832821D01*
X144940883Y-121666000D01*
X144957313Y-121499179D01*
X145005977Y-121338756D01*
X145084995Y-121190922D01*
X145191341Y-121061341D01*
X145320922Y-120954995D01*
X145468756Y-120875977D01*
X145468759Y-120875976D01*
X145468761Y-120875975D01*
X145629175Y-120827314D01*
X145629176Y-120827314D01*
X145629179Y-120827313D01*
X145754196Y-120815000D01*
X145837804Y-120815000D01*
X145962821Y-120827313D01*
X145962821Y-120827313D01*
G37*
G36*
X148502821Y-120827313D02*
X148502824Y-120827314D01*
X148502825Y-120827314D01*
X148663239Y-120875975D01*
X148663241Y-120875976D01*
X148663244Y-120875977D01*
X148811078Y-120954995D01*
X148940659Y-121061341D01*
X149047005Y-121190922D01*
X149126023Y-121338756D01*
X149174687Y-121499179D01*
X149191117Y-121666000D01*
X149174687Y-121832821D01*
X149126023Y-121993244D01*
X149047005Y-122141078D01*
X148940659Y-122270659D01*
X148811078Y-122377005D01*
X148663244Y-122456023D01*
X148663241Y-122456024D01*
X148663239Y-122456025D01*
X148502825Y-122504686D01*
X148502824Y-122504686D01*
X148502821Y-122504687D01*
X148377804Y-122517000D01*
X148294196Y-122517000D01*
X148169179Y-122504687D01*
X148169176Y-122504686D01*
X148169175Y-122504686D01*
X148008761Y-122456025D01*
X148008759Y-122456024D01*
X148008756Y-122456023D01*
X147860922Y-122377005D01*
X147731341Y-122270659D01*
X147624995Y-122141078D01*
X147545977Y-121993244D01*
X147497313Y-121832821D01*
X147480883Y-121666000D01*
X147497313Y-121499179D01*
X147545977Y-121338756D01*
X147624995Y-121190922D01*
X147731341Y-121061341D01*
X147860922Y-120954995D01*
X148008756Y-120875977D01*
X148008759Y-120875976D01*
X148008761Y-120875975D01*
X148169175Y-120827314D01*
X148169176Y-120827314D01*
X148169179Y-120827313D01*
X148294196Y-120815000D01*
X148377804Y-120815000D01*
X148502821Y-120827313D01*
X148502821Y-120827313D01*
G37*
G36*
X151042821Y-120827313D02*
X151042824Y-120827314D01*
X151042825Y-120827314D01*
X151203239Y-120875975D01*
X151203241Y-120875976D01*
X151203244Y-120875977D01*
X151351078Y-120954995D01*
X151480659Y-121061341D01*
X151587005Y-121190922D01*
X151666023Y-121338756D01*
X151714687Y-121499179D01*
X151731117Y-121666000D01*
X151714687Y-121832821D01*
X151666023Y-121993244D01*
X151587005Y-122141078D01*
X151480659Y-122270659D01*
X151351078Y-122377005D01*
X151203244Y-122456023D01*
X151203241Y-122456024D01*
X151203239Y-122456025D01*
X151042825Y-122504686D01*
X151042824Y-122504686D01*
X151042821Y-122504687D01*
X150917804Y-122517000D01*
X150834196Y-122517000D01*
X150709179Y-122504687D01*
X150709176Y-122504686D01*
X150709175Y-122504686D01*
X150548761Y-122456025D01*
X150548759Y-122456024D01*
X150548756Y-122456023D01*
X150400922Y-122377005D01*
X150271341Y-122270659D01*
X150164995Y-122141078D01*
X150085977Y-121993244D01*
X150037313Y-121832821D01*
X150020883Y-121666000D01*
X150037313Y-121499179D01*
X150085977Y-121338756D01*
X150164995Y-121190922D01*
X150271341Y-121061341D01*
X150400922Y-120954995D01*
X150548756Y-120875977D01*
X150548759Y-120875976D01*
X150548761Y-120875975D01*
X150709175Y-120827314D01*
X150709176Y-120827314D01*
X150709179Y-120827313D01*
X150834196Y-120815000D01*
X150917804Y-120815000D01*
X151042821Y-120827313D01*
X151042821Y-120827313D01*
G37*
G36*
X153582821Y-120827313D02*
X153582824Y-120827314D01*
X153582825Y-120827314D01*
X153743239Y-120875975D01*
X153743241Y-120875976D01*
X153743244Y-120875977D01*
X153891078Y-120954995D01*
X154020659Y-121061341D01*
X154127005Y-121190922D01*
X154206023Y-121338756D01*
X154254687Y-121499179D01*
X154271117Y-121666000D01*
X154254687Y-121832821D01*
X154206023Y-121993244D01*
X154127005Y-122141078D01*
X154020659Y-122270659D01*
X153891078Y-122377005D01*
X153743244Y-122456023D01*
X153743241Y-122456024D01*
X153743239Y-122456025D01*
X153582825Y-122504686D01*
X153582824Y-122504686D01*
X153582821Y-122504687D01*
X153457804Y-122517000D01*
X153374196Y-122517000D01*
X153249179Y-122504687D01*
X153249176Y-122504686D01*
X153249175Y-122504686D01*
X153088761Y-122456025D01*
X153088759Y-122456024D01*
X153088756Y-122456023D01*
X152940922Y-122377005D01*
X152811341Y-122270659D01*
X152704995Y-122141078D01*
X152625977Y-121993244D01*
X152577313Y-121832821D01*
X152560883Y-121666000D01*
X152577313Y-121499179D01*
X152625977Y-121338756D01*
X152704995Y-121190922D01*
X152811341Y-121061341D01*
X152940922Y-120954995D01*
X153088756Y-120875977D01*
X153088759Y-120875976D01*
X153088761Y-120875975D01*
X153249175Y-120827314D01*
X153249176Y-120827314D01*
X153249179Y-120827313D01*
X153374196Y-120815000D01*
X153457804Y-120815000D01*
X153582821Y-120827313D01*
X153582821Y-120827313D01*
G37*
G36*
X156122821Y-120827313D02*
X156122824Y-120827314D01*
X156122825Y-120827314D01*
X156283239Y-120875975D01*
X156283241Y-120875976D01*
X156283244Y-120875977D01*
X156431078Y-120954995D01*
X156560659Y-121061341D01*
X156667005Y-121190922D01*
X156746023Y-121338756D01*
X156794687Y-121499179D01*
X156811117Y-121666000D01*
X156794687Y-121832821D01*
X156746023Y-121993244D01*
X156667005Y-122141078D01*
X156560659Y-122270659D01*
X156431078Y-122377005D01*
X156283244Y-122456023D01*
X156283241Y-122456024D01*
X156283239Y-122456025D01*
X156122825Y-122504686D01*
X156122824Y-122504686D01*
X156122821Y-122504687D01*
X155997804Y-122517000D01*
X155914196Y-122517000D01*
X155789179Y-122504687D01*
X155789176Y-122504686D01*
X155789175Y-122504686D01*
X155628761Y-122456025D01*
X155628759Y-122456024D01*
X155628756Y-122456023D01*
X155480922Y-122377005D01*
X155351341Y-122270659D01*
X155244995Y-122141078D01*
X155165977Y-121993244D01*
X155117313Y-121832821D01*
X155100883Y-121666000D01*
X155117313Y-121499179D01*
X155165977Y-121338756D01*
X155244995Y-121190922D01*
X155351341Y-121061341D01*
X155480922Y-120954995D01*
X155628756Y-120875977D01*
X155628759Y-120875976D01*
X155628761Y-120875975D01*
X155789175Y-120827314D01*
X155789176Y-120827314D01*
X155789179Y-120827313D01*
X155914196Y-120815000D01*
X155997804Y-120815000D01*
X156122821Y-120827313D01*
X156122821Y-120827313D01*
G37*
G36*
X125642821Y-120827313D02*
X125642824Y-120827314D01*
X125642825Y-120827314D01*
X125803239Y-120875975D01*
X125803241Y-120875976D01*
X125803244Y-120875977D01*
X125951078Y-120954995D01*
X126080659Y-121061341D01*
X126187005Y-121190922D01*
X126266023Y-121338756D01*
X126314687Y-121499179D01*
X126331117Y-121666000D01*
X126314687Y-121832821D01*
X126266023Y-121993244D01*
X126187005Y-122141078D01*
X126080659Y-122270659D01*
X125951078Y-122377005D01*
X125803244Y-122456023D01*
X125803241Y-122456024D01*
X125803239Y-122456025D01*
X125642825Y-122504686D01*
X125642824Y-122504686D01*
X125642821Y-122504687D01*
X125517804Y-122517000D01*
X125434196Y-122517000D01*
X125309179Y-122504687D01*
X125309176Y-122504686D01*
X125309175Y-122504686D01*
X125148761Y-122456025D01*
X125148759Y-122456024D01*
X125148756Y-122456023D01*
X125000922Y-122377005D01*
X124871341Y-122270659D01*
X124764995Y-122141078D01*
X124685977Y-121993244D01*
X124637313Y-121832821D01*
X124620883Y-121666000D01*
X124637313Y-121499179D01*
X124685977Y-121338756D01*
X124764995Y-121190922D01*
X124871341Y-121061341D01*
X125000922Y-120954995D01*
X125148756Y-120875977D01*
X125148759Y-120875976D01*
X125148761Y-120875975D01*
X125309175Y-120827314D01*
X125309176Y-120827314D01*
X125309179Y-120827313D01*
X125434196Y-120815000D01*
X125517804Y-120815000D01*
X125642821Y-120827313D01*
X125642821Y-120827313D01*
G37*
G36*
X123102821Y-120827313D02*
X123102824Y-120827314D01*
X123102825Y-120827314D01*
X123263239Y-120875975D01*
X123263241Y-120875976D01*
X123263244Y-120875977D01*
X123411078Y-120954995D01*
X123540659Y-121061341D01*
X123647005Y-121190922D01*
X123726023Y-121338756D01*
X123774687Y-121499179D01*
X123791117Y-121666000D01*
X123774687Y-121832821D01*
X123726023Y-121993244D01*
X123647005Y-122141078D01*
X123540659Y-122270659D01*
X123411078Y-122377005D01*
X123263244Y-122456023D01*
X123263241Y-122456024D01*
X123263239Y-122456025D01*
X123102825Y-122504686D01*
X123102824Y-122504686D01*
X123102821Y-122504687D01*
X122977804Y-122517000D01*
X122894196Y-122517000D01*
X122769179Y-122504687D01*
X122769176Y-122504686D01*
X122769175Y-122504686D01*
X122608761Y-122456025D01*
X122608759Y-122456024D01*
X122608756Y-122456023D01*
X122460922Y-122377005D01*
X122331341Y-122270659D01*
X122224995Y-122141078D01*
X122145977Y-121993244D01*
X122097313Y-121832821D01*
X122080883Y-121666000D01*
X122097313Y-121499179D01*
X122145977Y-121338756D01*
X122224995Y-121190922D01*
X122331341Y-121061341D01*
X122460922Y-120954995D01*
X122608756Y-120875977D01*
X122608759Y-120875976D01*
X122608761Y-120875975D01*
X122769175Y-120827314D01*
X122769176Y-120827314D01*
X122769179Y-120827313D01*
X122894196Y-120815000D01*
X122977804Y-120815000D01*
X123102821Y-120827313D01*
X123102821Y-120827313D01*
G37*
G36*
X120562821Y-120827313D02*
X120562824Y-120827314D01*
X120562825Y-120827314D01*
X120723239Y-120875975D01*
X120723241Y-120875976D01*
X120723244Y-120875977D01*
X120871078Y-120954995D01*
X121000659Y-121061341D01*
X121107005Y-121190922D01*
X121186023Y-121338756D01*
X121234687Y-121499179D01*
X121251117Y-121666000D01*
X121234687Y-121832821D01*
X121186023Y-121993244D01*
X121107005Y-122141078D01*
X121000659Y-122270659D01*
X120871078Y-122377005D01*
X120723244Y-122456023D01*
X120723241Y-122456024D01*
X120723239Y-122456025D01*
X120562825Y-122504686D01*
X120562824Y-122504686D01*
X120562821Y-122504687D01*
X120437804Y-122517000D01*
X120354196Y-122517000D01*
X120229179Y-122504687D01*
X120229176Y-122504686D01*
X120229175Y-122504686D01*
X120068761Y-122456025D01*
X120068759Y-122456024D01*
X120068756Y-122456023D01*
X119920922Y-122377005D01*
X119791341Y-122270659D01*
X119684995Y-122141078D01*
X119605977Y-121993244D01*
X119557313Y-121832821D01*
X119540883Y-121666000D01*
X119557313Y-121499179D01*
X119605977Y-121338756D01*
X119684995Y-121190922D01*
X119791341Y-121061341D01*
X119920922Y-120954995D01*
X120068756Y-120875977D01*
X120068759Y-120875976D01*
X120068761Y-120875975D01*
X120229175Y-120827314D01*
X120229176Y-120827314D01*
X120229179Y-120827313D01*
X120354196Y-120815000D01*
X120437804Y-120815000D01*
X120562821Y-120827313D01*
X120562821Y-120827313D01*
G37*
G36*
X118022821Y-120827313D02*
X118022824Y-120827314D01*
X118022825Y-120827314D01*
X118183239Y-120875975D01*
X118183241Y-120875976D01*
X118183244Y-120875977D01*
X118331078Y-120954995D01*
X118460659Y-121061341D01*
X118567005Y-121190922D01*
X118646023Y-121338756D01*
X118694687Y-121499179D01*
X118711117Y-121666000D01*
X118694687Y-121832821D01*
X118646023Y-121993244D01*
X118567005Y-122141078D01*
X118460659Y-122270659D01*
X118331078Y-122377005D01*
X118183244Y-122456023D01*
X118183241Y-122456024D01*
X118183239Y-122456025D01*
X118022825Y-122504686D01*
X118022824Y-122504686D01*
X118022821Y-122504687D01*
X117897804Y-122517000D01*
X117814196Y-122517000D01*
X117689179Y-122504687D01*
X117689176Y-122504686D01*
X117689175Y-122504686D01*
X117528761Y-122456025D01*
X117528759Y-122456024D01*
X117528756Y-122456023D01*
X117380922Y-122377005D01*
X117251341Y-122270659D01*
X117144995Y-122141078D01*
X117065977Y-121993244D01*
X117017313Y-121832821D01*
X117000883Y-121666000D01*
X117017313Y-121499179D01*
X117065977Y-121338756D01*
X117144995Y-121190922D01*
X117251341Y-121061341D01*
X117380922Y-120954995D01*
X117528756Y-120875977D01*
X117528759Y-120875976D01*
X117528761Y-120875975D01*
X117689175Y-120827314D01*
X117689176Y-120827314D01*
X117689179Y-120827313D01*
X117814196Y-120815000D01*
X117897804Y-120815000D01*
X118022821Y-120827313D01*
X118022821Y-120827313D01*
G37*
G36*
X115482821Y-120827313D02*
X115482824Y-120827314D01*
X115482825Y-120827314D01*
X115643239Y-120875975D01*
X115643241Y-120875976D01*
X115643244Y-120875977D01*
X115791078Y-120954995D01*
X115920659Y-121061341D01*
X116027005Y-121190922D01*
X116106023Y-121338756D01*
X116154687Y-121499179D01*
X116171117Y-121666000D01*
X116154687Y-121832821D01*
X116106023Y-121993244D01*
X116027005Y-122141078D01*
X115920659Y-122270659D01*
X115791078Y-122377005D01*
X115643244Y-122456023D01*
X115643241Y-122456024D01*
X115643239Y-122456025D01*
X115482825Y-122504686D01*
X115482824Y-122504686D01*
X115482821Y-122504687D01*
X115357804Y-122517000D01*
X115274196Y-122517000D01*
X115149179Y-122504687D01*
X115149176Y-122504686D01*
X115149175Y-122504686D01*
X114988761Y-122456025D01*
X114988759Y-122456024D01*
X114988756Y-122456023D01*
X114840922Y-122377005D01*
X114711341Y-122270659D01*
X114604995Y-122141078D01*
X114525977Y-121993244D01*
X114477313Y-121832821D01*
X114460883Y-121666000D01*
X114477313Y-121499179D01*
X114525977Y-121338756D01*
X114604995Y-121190922D01*
X114711341Y-121061341D01*
X114840922Y-120954995D01*
X114988756Y-120875977D01*
X114988759Y-120875976D01*
X114988761Y-120875975D01*
X115149175Y-120827314D01*
X115149176Y-120827314D01*
X115149179Y-120827313D01*
X115274196Y-120815000D01*
X115357804Y-120815000D01*
X115482821Y-120827313D01*
X115482821Y-120827313D01*
G37*
G36*
X112942821Y-120827313D02*
X112942824Y-120827314D01*
X112942825Y-120827314D01*
X113103239Y-120875975D01*
X113103241Y-120875976D01*
X113103244Y-120875977D01*
X113251078Y-120954995D01*
X113380659Y-121061341D01*
X113487005Y-121190922D01*
X113566023Y-121338756D01*
X113614687Y-121499179D01*
X113631117Y-121666000D01*
X113614687Y-121832821D01*
X113566023Y-121993244D01*
X113487005Y-122141078D01*
X113380659Y-122270659D01*
X113251078Y-122377005D01*
X113103244Y-122456023D01*
X113103241Y-122456024D01*
X113103239Y-122456025D01*
X112942825Y-122504686D01*
X112942824Y-122504686D01*
X112942821Y-122504687D01*
X112817804Y-122517000D01*
X112734196Y-122517000D01*
X112609179Y-122504687D01*
X112609176Y-122504686D01*
X112609175Y-122504686D01*
X112448761Y-122456025D01*
X112448759Y-122456024D01*
X112448756Y-122456023D01*
X112300922Y-122377005D01*
X112171341Y-122270659D01*
X112064995Y-122141078D01*
X111985977Y-121993244D01*
X111937313Y-121832821D01*
X111920883Y-121666000D01*
X111937313Y-121499179D01*
X111985977Y-121338756D01*
X112064995Y-121190922D01*
X112171341Y-121061341D01*
X112300922Y-120954995D01*
X112448756Y-120875977D01*
X112448759Y-120875976D01*
X112448761Y-120875975D01*
X112609175Y-120827314D01*
X112609176Y-120827314D01*
X112609179Y-120827313D01*
X112734196Y-120815000D01*
X112817804Y-120815000D01*
X112942821Y-120827313D01*
X112942821Y-120827313D01*
G37*
G36*
X110402821Y-120827313D02*
X110402824Y-120827314D01*
X110402825Y-120827314D01*
X110563239Y-120875975D01*
X110563241Y-120875976D01*
X110563244Y-120875977D01*
X110711078Y-120954995D01*
X110840659Y-121061341D01*
X110947005Y-121190922D01*
X111026023Y-121338756D01*
X111074687Y-121499179D01*
X111091117Y-121666000D01*
X111074687Y-121832821D01*
X111026023Y-121993244D01*
X110947005Y-122141078D01*
X110840659Y-122270659D01*
X110711078Y-122377005D01*
X110563244Y-122456023D01*
X110563241Y-122456024D01*
X110563239Y-122456025D01*
X110402825Y-122504686D01*
X110402824Y-122504686D01*
X110402821Y-122504687D01*
X110277804Y-122517000D01*
X110194196Y-122517000D01*
X110069179Y-122504687D01*
X110069176Y-122504686D01*
X110069175Y-122504686D01*
X109908761Y-122456025D01*
X109908759Y-122456024D01*
X109908756Y-122456023D01*
X109760922Y-122377005D01*
X109631341Y-122270659D01*
X109524995Y-122141078D01*
X109445977Y-121993244D01*
X109397313Y-121832821D01*
X109380883Y-121666000D01*
X109397313Y-121499179D01*
X109445977Y-121338756D01*
X109524995Y-121190922D01*
X109631341Y-121061341D01*
X109760922Y-120954995D01*
X109908756Y-120875977D01*
X109908759Y-120875976D01*
X109908761Y-120875975D01*
X110069175Y-120827314D01*
X110069176Y-120827314D01*
X110069179Y-120827313D01*
X110194196Y-120815000D01*
X110277804Y-120815000D01*
X110402821Y-120827313D01*
X110402821Y-120827313D01*
G37*
G36*
X108547000Y-122517000D02*
X106845000Y-122517000D01*
X106845000Y-120815000D01*
X108547000Y-120815000D01*
X108547000Y-122517000D01*
X108547000Y-122517000D01*
G37*
G36*
X143422821Y-120827313D02*
X143422824Y-120827314D01*
X143422825Y-120827314D01*
X143583239Y-120875975D01*
X143583241Y-120875976D01*
X143583244Y-120875977D01*
X143731078Y-120954995D01*
X143860659Y-121061341D01*
X143967005Y-121190922D01*
X144046023Y-121338756D01*
X144094687Y-121499179D01*
X144111117Y-121666000D01*
X144094687Y-121832821D01*
X144046023Y-121993244D01*
X143967005Y-122141078D01*
X143860659Y-122270659D01*
X143731078Y-122377005D01*
X143583244Y-122456023D01*
X143583241Y-122456024D01*
X143583239Y-122456025D01*
X143422825Y-122504686D01*
X143422824Y-122504686D01*
X143422821Y-122504687D01*
X143297804Y-122517000D01*
X143214196Y-122517000D01*
X143089179Y-122504687D01*
X143089176Y-122504686D01*
X143089175Y-122504686D01*
X142928761Y-122456025D01*
X142928759Y-122456024D01*
X142928756Y-122456023D01*
X142780922Y-122377005D01*
X142651341Y-122270659D01*
X142544995Y-122141078D01*
X142465977Y-121993244D01*
X142417313Y-121832821D01*
X142400883Y-121666000D01*
X142417313Y-121499179D01*
X142465977Y-121338756D01*
X142544995Y-121190922D01*
X142651341Y-121061341D01*
X142780922Y-120954995D01*
X142928756Y-120875977D01*
X142928759Y-120875976D01*
X142928761Y-120875975D01*
X143089175Y-120827314D01*
X143089176Y-120827314D01*
X143089179Y-120827313D01*
X143214196Y-120815000D01*
X143297804Y-120815000D01*
X143422821Y-120827313D01*
X143422821Y-120827313D01*
G37*
G36*
X135802821Y-120827313D02*
X135802824Y-120827314D01*
X135802825Y-120827314D01*
X135963239Y-120875975D01*
X135963241Y-120875976D01*
X135963244Y-120875977D01*
X136111078Y-120954995D01*
X136240659Y-121061341D01*
X136347005Y-121190922D01*
X136426023Y-121338756D01*
X136474687Y-121499179D01*
X136491117Y-121666000D01*
X136474687Y-121832821D01*
X136426023Y-121993244D01*
X136347005Y-122141078D01*
X136240659Y-122270659D01*
X136111078Y-122377005D01*
X135963244Y-122456023D01*
X135963241Y-122456024D01*
X135963239Y-122456025D01*
X135802825Y-122504686D01*
X135802824Y-122504686D01*
X135802821Y-122504687D01*
X135677804Y-122517000D01*
X135594196Y-122517000D01*
X135469179Y-122504687D01*
X135469176Y-122504686D01*
X135469175Y-122504686D01*
X135308761Y-122456025D01*
X135308759Y-122456024D01*
X135308756Y-122456023D01*
X135160922Y-122377005D01*
X135031341Y-122270659D01*
X134924995Y-122141078D01*
X134845977Y-121993244D01*
X134797313Y-121832821D01*
X134780883Y-121666000D01*
X134797313Y-121499179D01*
X134845977Y-121338756D01*
X134924995Y-121190922D01*
X135031341Y-121061341D01*
X135160922Y-120954995D01*
X135308756Y-120875977D01*
X135308759Y-120875976D01*
X135308761Y-120875975D01*
X135469175Y-120827314D01*
X135469176Y-120827314D01*
X135469179Y-120827313D01*
X135594196Y-120815000D01*
X135677804Y-120815000D01*
X135802821Y-120827313D01*
X135802821Y-120827313D01*
G37*
G36*
X140882821Y-120827313D02*
X140882824Y-120827314D01*
X140882825Y-120827314D01*
X141043239Y-120875975D01*
X141043241Y-120875976D01*
X141043244Y-120875977D01*
X141191078Y-120954995D01*
X141320659Y-121061341D01*
X141427005Y-121190922D01*
X141506023Y-121338756D01*
X141554687Y-121499179D01*
X141571117Y-121666000D01*
X141554687Y-121832821D01*
X141506023Y-121993244D01*
X141427005Y-122141078D01*
X141320659Y-122270659D01*
X141191078Y-122377005D01*
X141043244Y-122456023D01*
X141043241Y-122456024D01*
X141043239Y-122456025D01*
X140882825Y-122504686D01*
X140882824Y-122504686D01*
X140882821Y-122504687D01*
X140757804Y-122517000D01*
X140674196Y-122517000D01*
X140549179Y-122504687D01*
X140549176Y-122504686D01*
X140549175Y-122504686D01*
X140388761Y-122456025D01*
X140388759Y-122456024D01*
X140388756Y-122456023D01*
X140240922Y-122377005D01*
X140111341Y-122270659D01*
X140004995Y-122141078D01*
X139925977Y-121993244D01*
X139877313Y-121832821D01*
X139860883Y-121666000D01*
X139877313Y-121499179D01*
X139925977Y-121338756D01*
X140004995Y-121190922D01*
X140111341Y-121061341D01*
X140240922Y-120954995D01*
X140388756Y-120875977D01*
X140388759Y-120875976D01*
X140388761Y-120875975D01*
X140549175Y-120827314D01*
X140549176Y-120827314D01*
X140549179Y-120827313D01*
X140674196Y-120815000D01*
X140757804Y-120815000D01*
X140882821Y-120827313D01*
X140882821Y-120827313D01*
G37*
G36*
X120562821Y-105587313D02*
X120562824Y-105587314D01*
X120562825Y-105587314D01*
X120723239Y-105635975D01*
X120723241Y-105635976D01*
X120723244Y-105635977D01*
X120871078Y-105714995D01*
X121000659Y-105821341D01*
X121107005Y-105950922D01*
X121186023Y-106098756D01*
X121234687Y-106259179D01*
X121251117Y-106426000D01*
X121234687Y-106592821D01*
X121186023Y-106753244D01*
X121107005Y-106901078D01*
X121000659Y-107030659D01*
X120871078Y-107137005D01*
X120723244Y-107216023D01*
X120723241Y-107216024D01*
X120723239Y-107216025D01*
X120562825Y-107264686D01*
X120562824Y-107264686D01*
X120562821Y-107264687D01*
X120437804Y-107277000D01*
X120354196Y-107277000D01*
X120229179Y-107264687D01*
X120229176Y-107264686D01*
X120229175Y-107264686D01*
X120068761Y-107216025D01*
X120068759Y-107216024D01*
X120068756Y-107216023D01*
X119920922Y-107137005D01*
X119791341Y-107030659D01*
X119684995Y-106901078D01*
X119605977Y-106753244D01*
X119557313Y-106592821D01*
X119540883Y-106426000D01*
X119557313Y-106259179D01*
X119605977Y-106098756D01*
X119684995Y-105950922D01*
X119791341Y-105821341D01*
X119920922Y-105714995D01*
X120068756Y-105635977D01*
X120068759Y-105635976D01*
X120068761Y-105635975D01*
X120229175Y-105587314D01*
X120229176Y-105587314D01*
X120229179Y-105587313D01*
X120354196Y-105575000D01*
X120437804Y-105575000D01*
X120562821Y-105587313D01*
X120562821Y-105587313D01*
G37*
G36*
X107862821Y-105587313D02*
X107862824Y-105587314D01*
X107862825Y-105587314D01*
X108023239Y-105635975D01*
X108023241Y-105635976D01*
X108023244Y-105635977D01*
X108171078Y-105714995D01*
X108300659Y-105821341D01*
X108407005Y-105950922D01*
X108486023Y-106098756D01*
X108534687Y-106259179D01*
X108551117Y-106426000D01*
X108534687Y-106592821D01*
X108486023Y-106753244D01*
X108407005Y-106901078D01*
X108300659Y-107030659D01*
X108171078Y-107137005D01*
X108023244Y-107216023D01*
X108023241Y-107216024D01*
X108023239Y-107216025D01*
X107862825Y-107264686D01*
X107862824Y-107264686D01*
X107862821Y-107264687D01*
X107737804Y-107277000D01*
X107654196Y-107277000D01*
X107529179Y-107264687D01*
X107529176Y-107264686D01*
X107529175Y-107264686D01*
X107368761Y-107216025D01*
X107368759Y-107216024D01*
X107368756Y-107216023D01*
X107220922Y-107137005D01*
X107091341Y-107030659D01*
X106984995Y-106901078D01*
X106905977Y-106753244D01*
X106857313Y-106592821D01*
X106840883Y-106426000D01*
X106857313Y-106259179D01*
X106905977Y-106098756D01*
X106984995Y-105950922D01*
X107091341Y-105821341D01*
X107220922Y-105714995D01*
X107368756Y-105635977D01*
X107368759Y-105635976D01*
X107368761Y-105635975D01*
X107529175Y-105587314D01*
X107529176Y-105587314D01*
X107529179Y-105587313D01*
X107654196Y-105575000D01*
X107737804Y-105575000D01*
X107862821Y-105587313D01*
X107862821Y-105587313D01*
G37*
G36*
X125642821Y-105587313D02*
X125642824Y-105587314D01*
X125642825Y-105587314D01*
X125803239Y-105635975D01*
X125803241Y-105635976D01*
X125803244Y-105635977D01*
X125951078Y-105714995D01*
X126080659Y-105821341D01*
X126187005Y-105950922D01*
X126266023Y-106098756D01*
X126314687Y-106259179D01*
X126331117Y-106426000D01*
X126314687Y-106592821D01*
X126266023Y-106753244D01*
X126187005Y-106901078D01*
X126080659Y-107030659D01*
X125951078Y-107137005D01*
X125803244Y-107216023D01*
X125803241Y-107216024D01*
X125803239Y-107216025D01*
X125642825Y-107264686D01*
X125642824Y-107264686D01*
X125642821Y-107264687D01*
X125517804Y-107277000D01*
X125434196Y-107277000D01*
X125309179Y-107264687D01*
X125309176Y-107264686D01*
X125309175Y-107264686D01*
X125148761Y-107216025D01*
X125148759Y-107216024D01*
X125148756Y-107216023D01*
X125000922Y-107137005D01*
X124871341Y-107030659D01*
X124764995Y-106901078D01*
X124685977Y-106753244D01*
X124637313Y-106592821D01*
X124620883Y-106426000D01*
X124637313Y-106259179D01*
X124685977Y-106098756D01*
X124764995Y-105950922D01*
X124871341Y-105821341D01*
X125000922Y-105714995D01*
X125148756Y-105635977D01*
X125148759Y-105635976D01*
X125148761Y-105635975D01*
X125309175Y-105587314D01*
X125309176Y-105587314D01*
X125309179Y-105587313D01*
X125434196Y-105575000D01*
X125517804Y-105575000D01*
X125642821Y-105587313D01*
X125642821Y-105587313D01*
G37*
G36*
X153582821Y-105587313D02*
X153582824Y-105587314D01*
X153582825Y-105587314D01*
X153743239Y-105635975D01*
X153743241Y-105635976D01*
X153743244Y-105635977D01*
X153891078Y-105714995D01*
X154020659Y-105821341D01*
X154127005Y-105950922D01*
X154206023Y-106098756D01*
X154254687Y-106259179D01*
X154271117Y-106426000D01*
X154254687Y-106592821D01*
X154206023Y-106753244D01*
X154127005Y-106901078D01*
X154020659Y-107030659D01*
X153891078Y-107137005D01*
X153743244Y-107216023D01*
X153743241Y-107216024D01*
X153743239Y-107216025D01*
X153582825Y-107264686D01*
X153582824Y-107264686D01*
X153582821Y-107264687D01*
X153457804Y-107277000D01*
X153374196Y-107277000D01*
X153249179Y-107264687D01*
X153249176Y-107264686D01*
X153249175Y-107264686D01*
X153088761Y-107216025D01*
X153088759Y-107216024D01*
X153088756Y-107216023D01*
X152940922Y-107137005D01*
X152811341Y-107030659D01*
X152704995Y-106901078D01*
X152625977Y-106753244D01*
X152577313Y-106592821D01*
X152560883Y-106426000D01*
X152577313Y-106259179D01*
X152625977Y-106098756D01*
X152704995Y-105950922D01*
X152811341Y-105821341D01*
X152940922Y-105714995D01*
X153088756Y-105635977D01*
X153088759Y-105635976D01*
X153088761Y-105635975D01*
X153249175Y-105587314D01*
X153249176Y-105587314D01*
X153249179Y-105587313D01*
X153374196Y-105575000D01*
X153457804Y-105575000D01*
X153582821Y-105587313D01*
X153582821Y-105587313D01*
G37*
G36*
X123102821Y-105587313D02*
X123102824Y-105587314D01*
X123102825Y-105587314D01*
X123263239Y-105635975D01*
X123263241Y-105635976D01*
X123263244Y-105635977D01*
X123411078Y-105714995D01*
X123540659Y-105821341D01*
X123647005Y-105950922D01*
X123726023Y-106098756D01*
X123774687Y-106259179D01*
X123791117Y-106426000D01*
X123774687Y-106592821D01*
X123726023Y-106753244D01*
X123647005Y-106901078D01*
X123540659Y-107030659D01*
X123411078Y-107137005D01*
X123263244Y-107216023D01*
X123263241Y-107216024D01*
X123263239Y-107216025D01*
X123102825Y-107264686D01*
X123102824Y-107264686D01*
X123102821Y-107264687D01*
X122977804Y-107277000D01*
X122894196Y-107277000D01*
X122769179Y-107264687D01*
X122769176Y-107264686D01*
X122769175Y-107264686D01*
X122608761Y-107216025D01*
X122608759Y-107216024D01*
X122608756Y-107216023D01*
X122460922Y-107137005D01*
X122331341Y-107030659D01*
X122224995Y-106901078D01*
X122145977Y-106753244D01*
X122097313Y-106592821D01*
X122080883Y-106426000D01*
X122097313Y-106259179D01*
X122145977Y-106098756D01*
X122224995Y-105950922D01*
X122331341Y-105821341D01*
X122460922Y-105714995D01*
X122608756Y-105635977D01*
X122608759Y-105635976D01*
X122608761Y-105635975D01*
X122769175Y-105587314D01*
X122769176Y-105587314D01*
X122769179Y-105587313D01*
X122894196Y-105575000D01*
X122977804Y-105575000D01*
X123102821Y-105587313D01*
X123102821Y-105587313D01*
G37*
G36*
X156122821Y-105587313D02*
X156122824Y-105587314D01*
X156122825Y-105587314D01*
X156283239Y-105635975D01*
X156283241Y-105635976D01*
X156283244Y-105635977D01*
X156431078Y-105714995D01*
X156560659Y-105821341D01*
X156667005Y-105950922D01*
X156746023Y-106098756D01*
X156794687Y-106259179D01*
X156811117Y-106426000D01*
X156794687Y-106592821D01*
X156746023Y-106753244D01*
X156667005Y-106901078D01*
X156560659Y-107030659D01*
X156431078Y-107137005D01*
X156283244Y-107216023D01*
X156283241Y-107216024D01*
X156283239Y-107216025D01*
X156122825Y-107264686D01*
X156122824Y-107264686D01*
X156122821Y-107264687D01*
X155997804Y-107277000D01*
X155914196Y-107277000D01*
X155789179Y-107264687D01*
X155789176Y-107264686D01*
X155789175Y-107264686D01*
X155628761Y-107216025D01*
X155628759Y-107216024D01*
X155628756Y-107216023D01*
X155480922Y-107137005D01*
X155351341Y-107030659D01*
X155244995Y-106901078D01*
X155165977Y-106753244D01*
X155117313Y-106592821D01*
X155100883Y-106426000D01*
X155117313Y-106259179D01*
X155165977Y-106098756D01*
X155244995Y-105950922D01*
X155351341Y-105821341D01*
X155480922Y-105714995D01*
X155628756Y-105635977D01*
X155628759Y-105635976D01*
X155628761Y-105635975D01*
X155789175Y-105587314D01*
X155789176Y-105587314D01*
X155789179Y-105587313D01*
X155914196Y-105575000D01*
X155997804Y-105575000D01*
X156122821Y-105587313D01*
X156122821Y-105587313D01*
G37*
G36*
X110402821Y-105587313D02*
X110402824Y-105587314D01*
X110402825Y-105587314D01*
X110563239Y-105635975D01*
X110563241Y-105635976D01*
X110563244Y-105635977D01*
X110711078Y-105714995D01*
X110840659Y-105821341D01*
X110947005Y-105950922D01*
X111026023Y-106098756D01*
X111074687Y-106259179D01*
X111091117Y-106426000D01*
X111074687Y-106592821D01*
X111026023Y-106753244D01*
X110947005Y-106901078D01*
X110840659Y-107030659D01*
X110711078Y-107137005D01*
X110563244Y-107216023D01*
X110563241Y-107216024D01*
X110563239Y-107216025D01*
X110402825Y-107264686D01*
X110402824Y-107264686D01*
X110402821Y-107264687D01*
X110277804Y-107277000D01*
X110194196Y-107277000D01*
X110069179Y-107264687D01*
X110069176Y-107264686D01*
X110069175Y-107264686D01*
X109908761Y-107216025D01*
X109908759Y-107216024D01*
X109908756Y-107216023D01*
X109760922Y-107137005D01*
X109631341Y-107030659D01*
X109524995Y-106901078D01*
X109445977Y-106753244D01*
X109397313Y-106592821D01*
X109380883Y-106426000D01*
X109397313Y-106259179D01*
X109445977Y-106098756D01*
X109524995Y-105950922D01*
X109631341Y-105821341D01*
X109760922Y-105714995D01*
X109908756Y-105635977D01*
X109908759Y-105635976D01*
X109908761Y-105635975D01*
X110069175Y-105587314D01*
X110069176Y-105587314D01*
X110069179Y-105587313D01*
X110194196Y-105575000D01*
X110277804Y-105575000D01*
X110402821Y-105587313D01*
X110402821Y-105587313D01*
G37*
G36*
X112942821Y-105587313D02*
X112942824Y-105587314D01*
X112942825Y-105587314D01*
X113103239Y-105635975D01*
X113103241Y-105635976D01*
X113103244Y-105635977D01*
X113251078Y-105714995D01*
X113380659Y-105821341D01*
X113487005Y-105950922D01*
X113566023Y-106098756D01*
X113614687Y-106259179D01*
X113631117Y-106426000D01*
X113614687Y-106592821D01*
X113566023Y-106753244D01*
X113487005Y-106901078D01*
X113380659Y-107030659D01*
X113251078Y-107137005D01*
X113103244Y-107216023D01*
X113103241Y-107216024D01*
X113103239Y-107216025D01*
X112942825Y-107264686D01*
X112942824Y-107264686D01*
X112942821Y-107264687D01*
X112817804Y-107277000D01*
X112734196Y-107277000D01*
X112609179Y-107264687D01*
X112609176Y-107264686D01*
X112609175Y-107264686D01*
X112448761Y-107216025D01*
X112448759Y-107216024D01*
X112448756Y-107216023D01*
X112300922Y-107137005D01*
X112171341Y-107030659D01*
X112064995Y-106901078D01*
X111985977Y-106753244D01*
X111937313Y-106592821D01*
X111920883Y-106426000D01*
X111937313Y-106259179D01*
X111985977Y-106098756D01*
X112064995Y-105950922D01*
X112171341Y-105821341D01*
X112300922Y-105714995D01*
X112448756Y-105635977D01*
X112448759Y-105635976D01*
X112448761Y-105635975D01*
X112609175Y-105587314D01*
X112609176Y-105587314D01*
X112609179Y-105587313D01*
X112734196Y-105575000D01*
X112817804Y-105575000D01*
X112942821Y-105587313D01*
X112942821Y-105587313D01*
G37*
G36*
X115482821Y-105587313D02*
X115482824Y-105587314D01*
X115482825Y-105587314D01*
X115643239Y-105635975D01*
X115643241Y-105635976D01*
X115643244Y-105635977D01*
X115791078Y-105714995D01*
X115920659Y-105821341D01*
X116027005Y-105950922D01*
X116106023Y-106098756D01*
X116154687Y-106259179D01*
X116171117Y-106426000D01*
X116154687Y-106592821D01*
X116106023Y-106753244D01*
X116027005Y-106901078D01*
X115920659Y-107030659D01*
X115791078Y-107137005D01*
X115643244Y-107216023D01*
X115643241Y-107216024D01*
X115643239Y-107216025D01*
X115482825Y-107264686D01*
X115482824Y-107264686D01*
X115482821Y-107264687D01*
X115357804Y-107277000D01*
X115274196Y-107277000D01*
X115149179Y-107264687D01*
X115149176Y-107264686D01*
X115149175Y-107264686D01*
X114988761Y-107216025D01*
X114988759Y-107216024D01*
X114988756Y-107216023D01*
X114840922Y-107137005D01*
X114711341Y-107030659D01*
X114604995Y-106901078D01*
X114525977Y-106753244D01*
X114477313Y-106592821D01*
X114460883Y-106426000D01*
X114477313Y-106259179D01*
X114525977Y-106098756D01*
X114604995Y-105950922D01*
X114711341Y-105821341D01*
X114840922Y-105714995D01*
X114988756Y-105635977D01*
X114988759Y-105635976D01*
X114988761Y-105635975D01*
X115149175Y-105587314D01*
X115149176Y-105587314D01*
X115149179Y-105587313D01*
X115274196Y-105575000D01*
X115357804Y-105575000D01*
X115482821Y-105587313D01*
X115482821Y-105587313D01*
G37*
G36*
X118022821Y-105587313D02*
X118022824Y-105587314D01*
X118022825Y-105587314D01*
X118183239Y-105635975D01*
X118183241Y-105635976D01*
X118183244Y-105635977D01*
X118331078Y-105714995D01*
X118460659Y-105821341D01*
X118567005Y-105950922D01*
X118646023Y-106098756D01*
X118694687Y-106259179D01*
X118711117Y-106426000D01*
X118694687Y-106592821D01*
X118646023Y-106753244D01*
X118567005Y-106901078D01*
X118460659Y-107030659D01*
X118331078Y-107137005D01*
X118183244Y-107216023D01*
X118183241Y-107216024D01*
X118183239Y-107216025D01*
X118022825Y-107264686D01*
X118022824Y-107264686D01*
X118022821Y-107264687D01*
X117897804Y-107277000D01*
X117814196Y-107277000D01*
X117689179Y-107264687D01*
X117689176Y-107264686D01*
X117689175Y-107264686D01*
X117528761Y-107216025D01*
X117528759Y-107216024D01*
X117528756Y-107216023D01*
X117380922Y-107137005D01*
X117251341Y-107030659D01*
X117144995Y-106901078D01*
X117065977Y-106753244D01*
X117017313Y-106592821D01*
X117000883Y-106426000D01*
X117017313Y-106259179D01*
X117065977Y-106098756D01*
X117144995Y-105950922D01*
X117251341Y-105821341D01*
X117380922Y-105714995D01*
X117528756Y-105635977D01*
X117528759Y-105635976D01*
X117528761Y-105635975D01*
X117689175Y-105587314D01*
X117689176Y-105587314D01*
X117689179Y-105587313D01*
X117814196Y-105575000D01*
X117897804Y-105575000D01*
X118022821Y-105587313D01*
X118022821Y-105587313D01*
G37*
G36*
X148502821Y-105587313D02*
X148502824Y-105587314D01*
X148502825Y-105587314D01*
X148663239Y-105635975D01*
X148663241Y-105635976D01*
X148663244Y-105635977D01*
X148811078Y-105714995D01*
X148940659Y-105821341D01*
X149047005Y-105950922D01*
X149126023Y-106098756D01*
X149174687Y-106259179D01*
X149191117Y-106426000D01*
X149174687Y-106592821D01*
X149126023Y-106753244D01*
X149047005Y-106901078D01*
X148940659Y-107030659D01*
X148811078Y-107137005D01*
X148663244Y-107216023D01*
X148663241Y-107216024D01*
X148663239Y-107216025D01*
X148502825Y-107264686D01*
X148502824Y-107264686D01*
X148502821Y-107264687D01*
X148377804Y-107277000D01*
X148294196Y-107277000D01*
X148169179Y-107264687D01*
X148169176Y-107264686D01*
X148169175Y-107264686D01*
X148008761Y-107216025D01*
X148008759Y-107216024D01*
X148008756Y-107216023D01*
X147860922Y-107137005D01*
X147731341Y-107030659D01*
X147624995Y-106901078D01*
X147545977Y-106753244D01*
X147497313Y-106592821D01*
X147480883Y-106426000D01*
X147497313Y-106259179D01*
X147545977Y-106098756D01*
X147624995Y-105950922D01*
X147731341Y-105821341D01*
X147860922Y-105714995D01*
X148008756Y-105635977D01*
X148008759Y-105635976D01*
X148008761Y-105635975D01*
X148169175Y-105587314D01*
X148169176Y-105587314D01*
X148169179Y-105587313D01*
X148294196Y-105575000D01*
X148377804Y-105575000D01*
X148502821Y-105587313D01*
X148502821Y-105587313D01*
G37*
G36*
X130722821Y-105587313D02*
X130722824Y-105587314D01*
X130722825Y-105587314D01*
X130883239Y-105635975D01*
X130883241Y-105635976D01*
X130883244Y-105635977D01*
X131031078Y-105714995D01*
X131160659Y-105821341D01*
X131267005Y-105950922D01*
X131346023Y-106098756D01*
X131394687Y-106259179D01*
X131411117Y-106426000D01*
X131394687Y-106592821D01*
X131346023Y-106753244D01*
X131267005Y-106901078D01*
X131160659Y-107030659D01*
X131031078Y-107137005D01*
X130883244Y-107216023D01*
X130883241Y-107216024D01*
X130883239Y-107216025D01*
X130722825Y-107264686D01*
X130722824Y-107264686D01*
X130722821Y-107264687D01*
X130597804Y-107277000D01*
X130514196Y-107277000D01*
X130389179Y-107264687D01*
X130389176Y-107264686D01*
X130389175Y-107264686D01*
X130228761Y-107216025D01*
X130228759Y-107216024D01*
X130228756Y-107216023D01*
X130080922Y-107137005D01*
X129951341Y-107030659D01*
X129844995Y-106901078D01*
X129765977Y-106753244D01*
X129717313Y-106592821D01*
X129700883Y-106426000D01*
X129717313Y-106259179D01*
X129765977Y-106098756D01*
X129844995Y-105950922D01*
X129951341Y-105821341D01*
X130080922Y-105714995D01*
X130228756Y-105635977D01*
X130228759Y-105635976D01*
X130228761Y-105635975D01*
X130389175Y-105587314D01*
X130389176Y-105587314D01*
X130389179Y-105587313D01*
X130514196Y-105575000D01*
X130597804Y-105575000D01*
X130722821Y-105587313D01*
X130722821Y-105587313D01*
G37*
G36*
X145962821Y-105587313D02*
X145962824Y-105587314D01*
X145962825Y-105587314D01*
X146123239Y-105635975D01*
X146123241Y-105635976D01*
X146123244Y-105635977D01*
X146271078Y-105714995D01*
X146400659Y-105821341D01*
X146507005Y-105950922D01*
X146586023Y-106098756D01*
X146634687Y-106259179D01*
X146651117Y-106426000D01*
X146634687Y-106592821D01*
X146586023Y-106753244D01*
X146507005Y-106901078D01*
X146400659Y-107030659D01*
X146271078Y-107137005D01*
X146123244Y-107216023D01*
X146123241Y-107216024D01*
X146123239Y-107216025D01*
X145962825Y-107264686D01*
X145962824Y-107264686D01*
X145962821Y-107264687D01*
X145837804Y-107277000D01*
X145754196Y-107277000D01*
X145629179Y-107264687D01*
X145629176Y-107264686D01*
X145629175Y-107264686D01*
X145468761Y-107216025D01*
X145468759Y-107216024D01*
X145468756Y-107216023D01*
X145320922Y-107137005D01*
X145191341Y-107030659D01*
X145084995Y-106901078D01*
X145005977Y-106753244D01*
X144957313Y-106592821D01*
X144940883Y-106426000D01*
X144957313Y-106259179D01*
X145005977Y-106098756D01*
X145084995Y-105950922D01*
X145191341Y-105821341D01*
X145320922Y-105714995D01*
X145468756Y-105635977D01*
X145468759Y-105635976D01*
X145468761Y-105635975D01*
X145629175Y-105587314D01*
X145629176Y-105587314D01*
X145629179Y-105587313D01*
X145754196Y-105575000D01*
X145837804Y-105575000D01*
X145962821Y-105587313D01*
X145962821Y-105587313D01*
G37*
G36*
X133262821Y-105587313D02*
X133262824Y-105587314D01*
X133262825Y-105587314D01*
X133423239Y-105635975D01*
X133423241Y-105635976D01*
X133423244Y-105635977D01*
X133571078Y-105714995D01*
X133700659Y-105821341D01*
X133807005Y-105950922D01*
X133886023Y-106098756D01*
X133934687Y-106259179D01*
X133951117Y-106426000D01*
X133934687Y-106592821D01*
X133886023Y-106753244D01*
X133807005Y-106901078D01*
X133700659Y-107030659D01*
X133571078Y-107137005D01*
X133423244Y-107216023D01*
X133423241Y-107216024D01*
X133423239Y-107216025D01*
X133262825Y-107264686D01*
X133262824Y-107264686D01*
X133262821Y-107264687D01*
X133137804Y-107277000D01*
X133054196Y-107277000D01*
X132929179Y-107264687D01*
X132929176Y-107264686D01*
X132929175Y-107264686D01*
X132768761Y-107216025D01*
X132768759Y-107216024D01*
X132768756Y-107216023D01*
X132620922Y-107137005D01*
X132491341Y-107030659D01*
X132384995Y-106901078D01*
X132305977Y-106753244D01*
X132257313Y-106592821D01*
X132240883Y-106426000D01*
X132257313Y-106259179D01*
X132305977Y-106098756D01*
X132384995Y-105950922D01*
X132491341Y-105821341D01*
X132620922Y-105714995D01*
X132768756Y-105635977D01*
X132768759Y-105635976D01*
X132768761Y-105635975D01*
X132929175Y-105587314D01*
X132929176Y-105587314D01*
X132929179Y-105587313D01*
X133054196Y-105575000D01*
X133137804Y-105575000D01*
X133262821Y-105587313D01*
X133262821Y-105587313D01*
G37*
G36*
X143422821Y-105587313D02*
X143422824Y-105587314D01*
X143422825Y-105587314D01*
X143583239Y-105635975D01*
X143583241Y-105635976D01*
X143583244Y-105635977D01*
X143731078Y-105714995D01*
X143860659Y-105821341D01*
X143967005Y-105950922D01*
X144046023Y-106098756D01*
X144094687Y-106259179D01*
X144111117Y-106426000D01*
X144094687Y-106592821D01*
X144046023Y-106753244D01*
X143967005Y-106901078D01*
X143860659Y-107030659D01*
X143731078Y-107137005D01*
X143583244Y-107216023D01*
X143583241Y-107216024D01*
X143583239Y-107216025D01*
X143422825Y-107264686D01*
X143422824Y-107264686D01*
X143422821Y-107264687D01*
X143297804Y-107277000D01*
X143214196Y-107277000D01*
X143089179Y-107264687D01*
X143089176Y-107264686D01*
X143089175Y-107264686D01*
X142928761Y-107216025D01*
X142928759Y-107216024D01*
X142928756Y-107216023D01*
X142780922Y-107137005D01*
X142651341Y-107030659D01*
X142544995Y-106901078D01*
X142465977Y-106753244D01*
X142417313Y-106592821D01*
X142400883Y-106426000D01*
X142417313Y-106259179D01*
X142465977Y-106098756D01*
X142544995Y-105950922D01*
X142651341Y-105821341D01*
X142780922Y-105714995D01*
X142928756Y-105635977D01*
X142928759Y-105635976D01*
X142928761Y-105635975D01*
X143089175Y-105587314D01*
X143089176Y-105587314D01*
X143089179Y-105587313D01*
X143214196Y-105575000D01*
X143297804Y-105575000D01*
X143422821Y-105587313D01*
X143422821Y-105587313D01*
G37*
G36*
X135802821Y-105587313D02*
X135802824Y-105587314D01*
X135802825Y-105587314D01*
X135963239Y-105635975D01*
X135963241Y-105635976D01*
X135963244Y-105635977D01*
X136111078Y-105714995D01*
X136240659Y-105821341D01*
X136347005Y-105950922D01*
X136426023Y-106098756D01*
X136474687Y-106259179D01*
X136491117Y-106426000D01*
X136474687Y-106592821D01*
X136426023Y-106753244D01*
X136347005Y-106901078D01*
X136240659Y-107030659D01*
X136111078Y-107137005D01*
X135963244Y-107216023D01*
X135963241Y-107216024D01*
X135963239Y-107216025D01*
X135802825Y-107264686D01*
X135802824Y-107264686D01*
X135802821Y-107264687D01*
X135677804Y-107277000D01*
X135594196Y-107277000D01*
X135469179Y-107264687D01*
X135469176Y-107264686D01*
X135469175Y-107264686D01*
X135308761Y-107216025D01*
X135308759Y-107216024D01*
X135308756Y-107216023D01*
X135160922Y-107137005D01*
X135031341Y-107030659D01*
X134924995Y-106901078D01*
X134845977Y-106753244D01*
X134797313Y-106592821D01*
X134780883Y-106426000D01*
X134797313Y-106259179D01*
X134845977Y-106098756D01*
X134924995Y-105950922D01*
X135031341Y-105821341D01*
X135160922Y-105714995D01*
X135308756Y-105635977D01*
X135308759Y-105635976D01*
X135308761Y-105635975D01*
X135469175Y-105587314D01*
X135469176Y-105587314D01*
X135469179Y-105587313D01*
X135594196Y-105575000D01*
X135677804Y-105575000D01*
X135802821Y-105587313D01*
X135802821Y-105587313D01*
G37*
G36*
X138342821Y-105587313D02*
X138342824Y-105587314D01*
X138342825Y-105587314D01*
X138503239Y-105635975D01*
X138503241Y-105635976D01*
X138503244Y-105635977D01*
X138651078Y-105714995D01*
X138780659Y-105821341D01*
X138887005Y-105950922D01*
X138966023Y-106098756D01*
X139014687Y-106259179D01*
X139031117Y-106426000D01*
X139014687Y-106592821D01*
X138966023Y-106753244D01*
X138887005Y-106901078D01*
X138780659Y-107030659D01*
X138651078Y-107137005D01*
X138503244Y-107216023D01*
X138503241Y-107216024D01*
X138503239Y-107216025D01*
X138342825Y-107264686D01*
X138342824Y-107264686D01*
X138342821Y-107264687D01*
X138217804Y-107277000D01*
X138134196Y-107277000D01*
X138009179Y-107264687D01*
X138009176Y-107264686D01*
X138009175Y-107264686D01*
X137848761Y-107216025D01*
X137848759Y-107216024D01*
X137848756Y-107216023D01*
X137700922Y-107137005D01*
X137571341Y-107030659D01*
X137464995Y-106901078D01*
X137385977Y-106753244D01*
X137337313Y-106592821D01*
X137320883Y-106426000D01*
X137337313Y-106259179D01*
X137385977Y-106098756D01*
X137464995Y-105950922D01*
X137571341Y-105821341D01*
X137700922Y-105714995D01*
X137848756Y-105635977D01*
X137848759Y-105635976D01*
X137848761Y-105635975D01*
X138009175Y-105587314D01*
X138009176Y-105587314D01*
X138009179Y-105587313D01*
X138134196Y-105575000D01*
X138217804Y-105575000D01*
X138342821Y-105587313D01*
X138342821Y-105587313D01*
G37*
G36*
X140882821Y-105587313D02*
X140882824Y-105587314D01*
X140882825Y-105587314D01*
X141043239Y-105635975D01*
X141043241Y-105635976D01*
X141043244Y-105635977D01*
X141191078Y-105714995D01*
X141320659Y-105821341D01*
X141427005Y-105950922D01*
X141506023Y-106098756D01*
X141554687Y-106259179D01*
X141571117Y-106426000D01*
X141554687Y-106592821D01*
X141506023Y-106753244D01*
X141427005Y-106901078D01*
X141320659Y-107030659D01*
X141191078Y-107137005D01*
X141043244Y-107216023D01*
X141043241Y-107216024D01*
X141043239Y-107216025D01*
X140882825Y-107264686D01*
X140882824Y-107264686D01*
X140882821Y-107264687D01*
X140757804Y-107277000D01*
X140674196Y-107277000D01*
X140549179Y-107264687D01*
X140549176Y-107264686D01*
X140549175Y-107264686D01*
X140388761Y-107216025D01*
X140388759Y-107216024D01*
X140388756Y-107216023D01*
X140240922Y-107137005D01*
X140111341Y-107030659D01*
X140004995Y-106901078D01*
X139925977Y-106753244D01*
X139877313Y-106592821D01*
X139860883Y-106426000D01*
X139877313Y-106259179D01*
X139925977Y-106098756D01*
X140004995Y-105950922D01*
X140111341Y-105821341D01*
X140240922Y-105714995D01*
X140388756Y-105635977D01*
X140388759Y-105635976D01*
X140388761Y-105635975D01*
X140549175Y-105587314D01*
X140549176Y-105587314D01*
X140549179Y-105587313D01*
X140674196Y-105575000D01*
X140757804Y-105575000D01*
X140882821Y-105587313D01*
X140882821Y-105587313D01*
G37*
G36*
X151042821Y-105587313D02*
X151042824Y-105587314D01*
X151042825Y-105587314D01*
X151203239Y-105635975D01*
X151203241Y-105635976D01*
X151203244Y-105635977D01*
X151351078Y-105714995D01*
X151480659Y-105821341D01*
X151587005Y-105950922D01*
X151666023Y-106098756D01*
X151714687Y-106259179D01*
X151731117Y-106426000D01*
X151714687Y-106592821D01*
X151666023Y-106753244D01*
X151587005Y-106901078D01*
X151480659Y-107030659D01*
X151351078Y-107137005D01*
X151203244Y-107216023D01*
X151203241Y-107216024D01*
X151203239Y-107216025D01*
X151042825Y-107264686D01*
X151042824Y-107264686D01*
X151042821Y-107264687D01*
X150917804Y-107277000D01*
X150834196Y-107277000D01*
X150709179Y-107264687D01*
X150709176Y-107264686D01*
X150709175Y-107264686D01*
X150548761Y-107216025D01*
X150548759Y-107216024D01*
X150548756Y-107216023D01*
X150400922Y-107137005D01*
X150271341Y-107030659D01*
X150164995Y-106901078D01*
X150085977Y-106753244D01*
X150037313Y-106592821D01*
X150020883Y-106426000D01*
X150037313Y-106259179D01*
X150085977Y-106098756D01*
X150164995Y-105950922D01*
X150271341Y-105821341D01*
X150400922Y-105714995D01*
X150548756Y-105635977D01*
X150548759Y-105635976D01*
X150548761Y-105635975D01*
X150709175Y-105587314D01*
X150709176Y-105587314D01*
X150709179Y-105587313D01*
X150834196Y-105575000D01*
X150917804Y-105575000D01*
X151042821Y-105587313D01*
X151042821Y-105587313D01*
G37*
G36*
X128182821Y-105587313D02*
X128182824Y-105587314D01*
X128182825Y-105587314D01*
X128343239Y-105635975D01*
X128343241Y-105635976D01*
X128343244Y-105635977D01*
X128491078Y-105714995D01*
X128620659Y-105821341D01*
X128727005Y-105950922D01*
X128806023Y-106098756D01*
X128854687Y-106259179D01*
X128871117Y-106426000D01*
X128854687Y-106592821D01*
X128806023Y-106753244D01*
X128727005Y-106901078D01*
X128620659Y-107030659D01*
X128491078Y-107137005D01*
X128343244Y-107216023D01*
X128343241Y-107216024D01*
X128343239Y-107216025D01*
X128182825Y-107264686D01*
X128182824Y-107264686D01*
X128182821Y-107264687D01*
X128057804Y-107277000D01*
X127974196Y-107277000D01*
X127849179Y-107264687D01*
X127849176Y-107264686D01*
X127849175Y-107264686D01*
X127688761Y-107216025D01*
X127688759Y-107216024D01*
X127688756Y-107216023D01*
X127540922Y-107137005D01*
X127411341Y-107030659D01*
X127304995Y-106901078D01*
X127225977Y-106753244D01*
X127177313Y-106592821D01*
X127160883Y-106426000D01*
X127177313Y-106259179D01*
X127225977Y-106098756D01*
X127304995Y-105950922D01*
X127411341Y-105821341D01*
X127540922Y-105714995D01*
X127688756Y-105635977D01*
X127688759Y-105635976D01*
X127688761Y-105635975D01*
X127849175Y-105587314D01*
X127849176Y-105587314D01*
X127849179Y-105587313D01*
X127974196Y-105575000D01*
X128057804Y-105575000D01*
X128182821Y-105587313D01*
X128182821Y-105587313D01*
G37*
G36*
X135802820Y-96397313D02*
X135802823Y-96397314D01*
X135802824Y-96397314D01*
X135963238Y-96445975D01*
X135963240Y-96445976D01*
X135963243Y-96445977D01*
X136111078Y-96524995D01*
X136240659Y-96631341D01*
X136347005Y-96760922D01*
X136426023Y-96908756D01*
X136474687Y-97069179D01*
X136487000Y-97194196D01*
X136487000Y-97877803D01*
X136474687Y-98002820D01*
X136474686Y-98002822D01*
X136474686Y-98002825D01*
X136426025Y-98163239D01*
X136426023Y-98163244D01*
X136347005Y-98311078D01*
X136240659Y-98440659D01*
X136111078Y-98547005D01*
X135963244Y-98626023D01*
X135963241Y-98626024D01*
X135963239Y-98626025D01*
X135802825Y-98674686D01*
X135802824Y-98674686D01*
X135802821Y-98674687D01*
X135636000Y-98691117D01*
X135469180Y-98674687D01*
X135469177Y-98674686D01*
X135469176Y-98674686D01*
X135308762Y-98626025D01*
X135308760Y-98626024D01*
X135308757Y-98626023D01*
X135160923Y-98547005D01*
X135031342Y-98440659D01*
X134924996Y-98311078D01*
X134845975Y-98163239D01*
X134797313Y-98002826D01*
X134785000Y-97877804D01*
X134785000Y-97194197D01*
X134797313Y-97069180D01*
X134797314Y-97069176D01*
X134845975Y-96908762D01*
X134845976Y-96908760D01*
X134845977Y-96908757D01*
X134924995Y-96760922D01*
X135031341Y-96631341D01*
X135160922Y-96524995D01*
X135308756Y-96445977D01*
X135308759Y-96445976D01*
X135308761Y-96445975D01*
X135469175Y-96397314D01*
X135469176Y-96397314D01*
X135469179Y-96397313D01*
X135636000Y-96380883D01*
X135802820Y-96397313D01*
X135802820Y-96397313D01*
G37*
G36*
X151042820Y-96397313D02*
X151042823Y-96397314D01*
X151042824Y-96397314D01*
X151203238Y-96445975D01*
X151203240Y-96445976D01*
X151203243Y-96445977D01*
X151351078Y-96524995D01*
X151480659Y-96631341D01*
X151587005Y-96760922D01*
X151666023Y-96908756D01*
X151714687Y-97069179D01*
X151727000Y-97194196D01*
X151727000Y-97877803D01*
X151714687Y-98002820D01*
X151714686Y-98002822D01*
X151714686Y-98002825D01*
X151666025Y-98163239D01*
X151666023Y-98163244D01*
X151587005Y-98311078D01*
X151480659Y-98440659D01*
X151351078Y-98547005D01*
X151203244Y-98626023D01*
X151203241Y-98626024D01*
X151203239Y-98626025D01*
X151042825Y-98674686D01*
X151042824Y-98674686D01*
X151042821Y-98674687D01*
X150876000Y-98691117D01*
X150709180Y-98674687D01*
X150709177Y-98674686D01*
X150709176Y-98674686D01*
X150548762Y-98626025D01*
X150548760Y-98626024D01*
X150548757Y-98626023D01*
X150400923Y-98547005D01*
X150271342Y-98440659D01*
X150164996Y-98311078D01*
X150085975Y-98163239D01*
X150037313Y-98002826D01*
X150025000Y-97877804D01*
X150025000Y-97194197D01*
X150037313Y-97069180D01*
X150037314Y-97069176D01*
X150085975Y-96908762D01*
X150085976Y-96908760D01*
X150085977Y-96908757D01*
X150164995Y-96760922D01*
X150271341Y-96631341D01*
X150400922Y-96524995D01*
X150548756Y-96445977D01*
X150548759Y-96445976D01*
X150548761Y-96445975D01*
X150709175Y-96397314D01*
X150709176Y-96397314D01*
X150709179Y-96397313D01*
X150876000Y-96380883D01*
X151042820Y-96397313D01*
X151042820Y-96397313D01*
G37*
G36*
X138342820Y-96397313D02*
X138342823Y-96397314D01*
X138342824Y-96397314D01*
X138503238Y-96445975D01*
X138503240Y-96445976D01*
X138503243Y-96445977D01*
X138651078Y-96524995D01*
X138780659Y-96631341D01*
X138887005Y-96760922D01*
X138966023Y-96908756D01*
X139014687Y-97069179D01*
X139027000Y-97194196D01*
X139027000Y-97877803D01*
X139014687Y-98002820D01*
X139014686Y-98002822D01*
X139014686Y-98002825D01*
X138966025Y-98163239D01*
X138966023Y-98163244D01*
X138887005Y-98311078D01*
X138780659Y-98440659D01*
X138651078Y-98547005D01*
X138503244Y-98626023D01*
X138503241Y-98626024D01*
X138503239Y-98626025D01*
X138342825Y-98674686D01*
X138342824Y-98674686D01*
X138342821Y-98674687D01*
X138176000Y-98691117D01*
X138009180Y-98674687D01*
X138009177Y-98674686D01*
X138009176Y-98674686D01*
X137848762Y-98626025D01*
X137848760Y-98626024D01*
X137848757Y-98626023D01*
X137700923Y-98547005D01*
X137571342Y-98440659D01*
X137464996Y-98311078D01*
X137385975Y-98163239D01*
X137337313Y-98002826D01*
X137325000Y-97877804D01*
X137325000Y-97194197D01*
X137337313Y-97069180D01*
X137337314Y-97069176D01*
X137385975Y-96908762D01*
X137385976Y-96908760D01*
X137385977Y-96908757D01*
X137464995Y-96760922D01*
X137571341Y-96631341D01*
X137700922Y-96524995D01*
X137848756Y-96445977D01*
X137848759Y-96445976D01*
X137848761Y-96445975D01*
X138009175Y-96397314D01*
X138009176Y-96397314D01*
X138009179Y-96397313D01*
X138176000Y-96380883D01*
X138342820Y-96397313D01*
X138342820Y-96397313D01*
G37*
G36*
X140882820Y-96397313D02*
X140882823Y-96397314D01*
X140882824Y-96397314D01*
X141043238Y-96445975D01*
X141043240Y-96445976D01*
X141043243Y-96445977D01*
X141191078Y-96524995D01*
X141320659Y-96631341D01*
X141427005Y-96760922D01*
X141506023Y-96908756D01*
X141554687Y-97069179D01*
X141567000Y-97194196D01*
X141567000Y-97877803D01*
X141554687Y-98002820D01*
X141554686Y-98002822D01*
X141554686Y-98002825D01*
X141506025Y-98163239D01*
X141506023Y-98163244D01*
X141427005Y-98311078D01*
X141320659Y-98440659D01*
X141191078Y-98547005D01*
X141043244Y-98626023D01*
X141043241Y-98626024D01*
X141043239Y-98626025D01*
X140882825Y-98674686D01*
X140882824Y-98674686D01*
X140882821Y-98674687D01*
X140716000Y-98691117D01*
X140549180Y-98674687D01*
X140549177Y-98674686D01*
X140549176Y-98674686D01*
X140388762Y-98626025D01*
X140388760Y-98626024D01*
X140388757Y-98626023D01*
X140240923Y-98547005D01*
X140111342Y-98440659D01*
X140004996Y-98311078D01*
X139925975Y-98163239D01*
X139877313Y-98002826D01*
X139865000Y-97877804D01*
X139865000Y-97194197D01*
X139877313Y-97069180D01*
X139877314Y-97069176D01*
X139925975Y-96908762D01*
X139925976Y-96908760D01*
X139925977Y-96908757D01*
X140004995Y-96760922D01*
X140111341Y-96631341D01*
X140240922Y-96524995D01*
X140388756Y-96445977D01*
X140388759Y-96445976D01*
X140388761Y-96445975D01*
X140549175Y-96397314D01*
X140549176Y-96397314D01*
X140549179Y-96397313D01*
X140716000Y-96380883D01*
X140882820Y-96397313D01*
X140882820Y-96397313D01*
G37*
G36*
X143422820Y-96397313D02*
X143422823Y-96397314D01*
X143422824Y-96397314D01*
X143583238Y-96445975D01*
X143583240Y-96445976D01*
X143583243Y-96445977D01*
X143731078Y-96524995D01*
X143860659Y-96631341D01*
X143967005Y-96760922D01*
X144046023Y-96908756D01*
X144094687Y-97069179D01*
X144107000Y-97194196D01*
X144107000Y-97877803D01*
X144094687Y-98002820D01*
X144094686Y-98002822D01*
X144094686Y-98002825D01*
X144046025Y-98163239D01*
X144046023Y-98163244D01*
X143967005Y-98311078D01*
X143860659Y-98440659D01*
X143731078Y-98547005D01*
X143583244Y-98626023D01*
X143583241Y-98626024D01*
X143583239Y-98626025D01*
X143422825Y-98674686D01*
X143422824Y-98674686D01*
X143422821Y-98674687D01*
X143256000Y-98691117D01*
X143089180Y-98674687D01*
X143089177Y-98674686D01*
X143089176Y-98674686D01*
X142928762Y-98626025D01*
X142928760Y-98626024D01*
X142928757Y-98626023D01*
X142780923Y-98547005D01*
X142651342Y-98440659D01*
X142544996Y-98311078D01*
X142465975Y-98163239D01*
X142417313Y-98002826D01*
X142405000Y-97877804D01*
X142405000Y-97194197D01*
X142417313Y-97069180D01*
X142417314Y-97069176D01*
X142465975Y-96908762D01*
X142465976Y-96908760D01*
X142465977Y-96908757D01*
X142544995Y-96760922D01*
X142651341Y-96631341D01*
X142780922Y-96524995D01*
X142928756Y-96445977D01*
X142928759Y-96445976D01*
X142928761Y-96445975D01*
X143089175Y-96397314D01*
X143089176Y-96397314D01*
X143089179Y-96397313D01*
X143256000Y-96380883D01*
X143422820Y-96397313D01*
X143422820Y-96397313D01*
G37*
G36*
X145962820Y-96397313D02*
X145962823Y-96397314D01*
X145962824Y-96397314D01*
X146123238Y-96445975D01*
X146123240Y-96445976D01*
X146123243Y-96445977D01*
X146271078Y-96524995D01*
X146400659Y-96631341D01*
X146507005Y-96760922D01*
X146586023Y-96908756D01*
X146634687Y-97069179D01*
X146647000Y-97194196D01*
X146647000Y-97877803D01*
X146634687Y-98002820D01*
X146634686Y-98002822D01*
X146634686Y-98002825D01*
X146586025Y-98163239D01*
X146586023Y-98163244D01*
X146507005Y-98311078D01*
X146400659Y-98440659D01*
X146271078Y-98547005D01*
X146123244Y-98626023D01*
X146123241Y-98626024D01*
X146123239Y-98626025D01*
X145962825Y-98674686D01*
X145962824Y-98674686D01*
X145962821Y-98674687D01*
X145796000Y-98691117D01*
X145629180Y-98674687D01*
X145629177Y-98674686D01*
X145629176Y-98674686D01*
X145468762Y-98626025D01*
X145468760Y-98626024D01*
X145468757Y-98626023D01*
X145320923Y-98547005D01*
X145191342Y-98440659D01*
X145084996Y-98311078D01*
X145005975Y-98163239D01*
X144957313Y-98002826D01*
X144945000Y-97877804D01*
X144945000Y-97194197D01*
X144957313Y-97069180D01*
X144957314Y-97069176D01*
X145005975Y-96908762D01*
X145005976Y-96908760D01*
X145005977Y-96908757D01*
X145084995Y-96760922D01*
X145191341Y-96631341D01*
X145320922Y-96524995D01*
X145468756Y-96445977D01*
X145468759Y-96445976D01*
X145468761Y-96445975D01*
X145629175Y-96397314D01*
X145629176Y-96397314D01*
X145629179Y-96397313D01*
X145796000Y-96380883D01*
X145962820Y-96397313D01*
X145962820Y-96397313D01*
G37*
G36*
X148502820Y-96397313D02*
X148502823Y-96397314D01*
X148502824Y-96397314D01*
X148663238Y-96445975D01*
X148663240Y-96445976D01*
X148663243Y-96445977D01*
X148811078Y-96524995D01*
X148940659Y-96631341D01*
X149047005Y-96760922D01*
X149126023Y-96908756D01*
X149174687Y-97069179D01*
X149187000Y-97194196D01*
X149187000Y-97877803D01*
X149174687Y-98002820D01*
X149174686Y-98002822D01*
X149174686Y-98002825D01*
X149126025Y-98163239D01*
X149126023Y-98163244D01*
X149047005Y-98311078D01*
X148940659Y-98440659D01*
X148811078Y-98547005D01*
X148663244Y-98626023D01*
X148663241Y-98626024D01*
X148663239Y-98626025D01*
X148502825Y-98674686D01*
X148502824Y-98674686D01*
X148502821Y-98674687D01*
X148336000Y-98691117D01*
X148169180Y-98674687D01*
X148169177Y-98674686D01*
X148169176Y-98674686D01*
X148008762Y-98626025D01*
X148008760Y-98626024D01*
X148008757Y-98626023D01*
X147860923Y-98547005D01*
X147731342Y-98440659D01*
X147624996Y-98311078D01*
X147545975Y-98163239D01*
X147497313Y-98002826D01*
X147485000Y-97877804D01*
X147485000Y-97194197D01*
X147497313Y-97069180D01*
X147497314Y-97069176D01*
X147545975Y-96908762D01*
X147545976Y-96908760D01*
X147545977Y-96908757D01*
X147624995Y-96760922D01*
X147731341Y-96631341D01*
X147860922Y-96524995D01*
X148008756Y-96445977D01*
X148008759Y-96445976D01*
X148008761Y-96445975D01*
X148169175Y-96397314D01*
X148169176Y-96397314D01*
X148169179Y-96397313D01*
X148336000Y-96380883D01*
X148502820Y-96397313D01*
X148502820Y-96397313D01*
G37*
G36*
X153582820Y-96397313D02*
X153582823Y-96397314D01*
X153582824Y-96397314D01*
X153743238Y-96445975D01*
X153743240Y-96445976D01*
X153743243Y-96445977D01*
X153891078Y-96524995D01*
X154020659Y-96631341D01*
X154127005Y-96760922D01*
X154206023Y-96908756D01*
X154254687Y-97069179D01*
X154267000Y-97194196D01*
X154267000Y-97877803D01*
X154254687Y-98002820D01*
X154254686Y-98002822D01*
X154254686Y-98002825D01*
X154206025Y-98163239D01*
X154206023Y-98163244D01*
X154127005Y-98311078D01*
X154020659Y-98440659D01*
X153891078Y-98547005D01*
X153743244Y-98626023D01*
X153743241Y-98626024D01*
X153743239Y-98626025D01*
X153582825Y-98674686D01*
X153582824Y-98674686D01*
X153582821Y-98674687D01*
X153416000Y-98691117D01*
X153249180Y-98674687D01*
X153249177Y-98674686D01*
X153249176Y-98674686D01*
X153088762Y-98626025D01*
X153088760Y-98626024D01*
X153088757Y-98626023D01*
X152940923Y-98547005D01*
X152811342Y-98440659D01*
X152704996Y-98311078D01*
X152625975Y-98163239D01*
X152577313Y-98002826D01*
X152565000Y-97877804D01*
X152565000Y-97194197D01*
X152577313Y-97069180D01*
X152577314Y-97069176D01*
X152625975Y-96908762D01*
X152625976Y-96908760D01*
X152625977Y-96908757D01*
X152704995Y-96760922D01*
X152811341Y-96631341D01*
X152940922Y-96524995D01*
X153088756Y-96445977D01*
X153088759Y-96445976D01*
X153088761Y-96445975D01*
X153249175Y-96397314D01*
X153249176Y-96397314D01*
X153249179Y-96397313D01*
X153416000Y-96380883D01*
X153582820Y-96397313D01*
X153582820Y-96397313D01*
G37*
G36*
X156122820Y-96397313D02*
X156122823Y-96397314D01*
X156122824Y-96397314D01*
X156283238Y-96445975D01*
X156283240Y-96445976D01*
X156283243Y-96445977D01*
X156431078Y-96524995D01*
X156560659Y-96631341D01*
X156667005Y-96760922D01*
X156746023Y-96908756D01*
X156794687Y-97069179D01*
X156807000Y-97194196D01*
X156807000Y-97877803D01*
X156794687Y-98002820D01*
X156794686Y-98002822D01*
X156794686Y-98002825D01*
X156746025Y-98163239D01*
X156746023Y-98163244D01*
X156667005Y-98311078D01*
X156560659Y-98440659D01*
X156431078Y-98547005D01*
X156283244Y-98626023D01*
X156283241Y-98626024D01*
X156283239Y-98626025D01*
X156122825Y-98674686D01*
X156122824Y-98674686D01*
X156122821Y-98674687D01*
X155956000Y-98691117D01*
X155789180Y-98674687D01*
X155789177Y-98674686D01*
X155789176Y-98674686D01*
X155628762Y-98626025D01*
X155628760Y-98626024D01*
X155628757Y-98626023D01*
X155480923Y-98547005D01*
X155351342Y-98440659D01*
X155244996Y-98311078D01*
X155165975Y-98163239D01*
X155117313Y-98002826D01*
X155105000Y-97877804D01*
X155105000Y-97194197D01*
X155117313Y-97069180D01*
X155117314Y-97069176D01*
X155165975Y-96908762D01*
X155165976Y-96908760D01*
X155165977Y-96908757D01*
X155244995Y-96760922D01*
X155351341Y-96631341D01*
X155480922Y-96524995D01*
X155628756Y-96445977D01*
X155628759Y-96445976D01*
X155628761Y-96445975D01*
X155789175Y-96397314D01*
X155789176Y-96397314D01*
X155789179Y-96397313D01*
X155956000Y-96380883D01*
X156122820Y-96397313D01*
X156122820Y-96397313D01*
G37*
G36*
X133262820Y-96397313D02*
X133262823Y-96397314D01*
X133262824Y-96397314D01*
X133423238Y-96445975D01*
X133423240Y-96445976D01*
X133423243Y-96445977D01*
X133571078Y-96524995D01*
X133700659Y-96631341D01*
X133807005Y-96760922D01*
X133886023Y-96908756D01*
X133934687Y-97069179D01*
X133947000Y-97194196D01*
X133947000Y-97877803D01*
X133934687Y-98002820D01*
X133934686Y-98002822D01*
X133934686Y-98002825D01*
X133886025Y-98163239D01*
X133886023Y-98163244D01*
X133807005Y-98311078D01*
X133700659Y-98440659D01*
X133571078Y-98547005D01*
X133423244Y-98626023D01*
X133423241Y-98626024D01*
X133423239Y-98626025D01*
X133262825Y-98674686D01*
X133262824Y-98674686D01*
X133262821Y-98674687D01*
X133096000Y-98691117D01*
X132929180Y-98674687D01*
X132929177Y-98674686D01*
X132929176Y-98674686D01*
X132768762Y-98626025D01*
X132768760Y-98626024D01*
X132768757Y-98626023D01*
X132620923Y-98547005D01*
X132491342Y-98440659D01*
X132384996Y-98311078D01*
X132305975Y-98163239D01*
X132257313Y-98002826D01*
X132245000Y-97877804D01*
X132245000Y-97194197D01*
X132257313Y-97069180D01*
X132257314Y-97069176D01*
X132305975Y-96908762D01*
X132305976Y-96908760D01*
X132305977Y-96908757D01*
X132384995Y-96760922D01*
X132491341Y-96631341D01*
X132620922Y-96524995D01*
X132768756Y-96445977D01*
X132768759Y-96445976D01*
X132768761Y-96445975D01*
X132929175Y-96397314D01*
X132929176Y-96397314D01*
X132929179Y-96397313D01*
X133096000Y-96380883D01*
X133262820Y-96397313D01*
X133262820Y-96397313D01*
G37*
G36*
X128182820Y-96397313D02*
X128182823Y-96397314D01*
X128182824Y-96397314D01*
X128343238Y-96445975D01*
X128343240Y-96445976D01*
X128343243Y-96445977D01*
X128491078Y-96524995D01*
X128620659Y-96631341D01*
X128727005Y-96760922D01*
X128806023Y-96908756D01*
X128854687Y-97069179D01*
X128867000Y-97194196D01*
X128867000Y-97877803D01*
X128854687Y-98002820D01*
X128854686Y-98002822D01*
X128854686Y-98002825D01*
X128806025Y-98163239D01*
X128806023Y-98163244D01*
X128727005Y-98311078D01*
X128620659Y-98440659D01*
X128491078Y-98547005D01*
X128343244Y-98626023D01*
X128343241Y-98626024D01*
X128343239Y-98626025D01*
X128182825Y-98674686D01*
X128182824Y-98674686D01*
X128182821Y-98674687D01*
X128016000Y-98691117D01*
X127849180Y-98674687D01*
X127849177Y-98674686D01*
X127849176Y-98674686D01*
X127688762Y-98626025D01*
X127688760Y-98626024D01*
X127688757Y-98626023D01*
X127540923Y-98547005D01*
X127411342Y-98440659D01*
X127304996Y-98311078D01*
X127225975Y-98163239D01*
X127177313Y-98002826D01*
X127165000Y-97877804D01*
X127165000Y-97194197D01*
X127177313Y-97069180D01*
X127177314Y-97069176D01*
X127225975Y-96908762D01*
X127225976Y-96908760D01*
X127225977Y-96908757D01*
X127304995Y-96760922D01*
X127411341Y-96631341D01*
X127540922Y-96524995D01*
X127688756Y-96445977D01*
X127688759Y-96445976D01*
X127688761Y-96445975D01*
X127849175Y-96397314D01*
X127849176Y-96397314D01*
X127849179Y-96397313D01*
X128016000Y-96380883D01*
X128182820Y-96397313D01*
X128182820Y-96397313D01*
G37*
G36*
X125642820Y-96397313D02*
X125642823Y-96397314D01*
X125642824Y-96397314D01*
X125803238Y-96445975D01*
X125803240Y-96445976D01*
X125803243Y-96445977D01*
X125951078Y-96524995D01*
X126080659Y-96631341D01*
X126187005Y-96760922D01*
X126266023Y-96908756D01*
X126314687Y-97069179D01*
X126327000Y-97194196D01*
X126327000Y-97877803D01*
X126314687Y-98002820D01*
X126314686Y-98002822D01*
X126314686Y-98002825D01*
X126266025Y-98163239D01*
X126266023Y-98163244D01*
X126187005Y-98311078D01*
X126080659Y-98440659D01*
X125951078Y-98547005D01*
X125803244Y-98626023D01*
X125803241Y-98626024D01*
X125803239Y-98626025D01*
X125642825Y-98674686D01*
X125642824Y-98674686D01*
X125642821Y-98674687D01*
X125476000Y-98691117D01*
X125309180Y-98674687D01*
X125309177Y-98674686D01*
X125309176Y-98674686D01*
X125148762Y-98626025D01*
X125148760Y-98626024D01*
X125148757Y-98626023D01*
X125000923Y-98547005D01*
X124871342Y-98440659D01*
X124764996Y-98311078D01*
X124685975Y-98163239D01*
X124637313Y-98002826D01*
X124625000Y-97877804D01*
X124625000Y-97194197D01*
X124637313Y-97069180D01*
X124637314Y-97069176D01*
X124685975Y-96908762D01*
X124685976Y-96908760D01*
X124685977Y-96908757D01*
X124764995Y-96760922D01*
X124871341Y-96631341D01*
X125000922Y-96524995D01*
X125148756Y-96445977D01*
X125148759Y-96445976D01*
X125148761Y-96445975D01*
X125309175Y-96397314D01*
X125309176Y-96397314D01*
X125309179Y-96397313D01*
X125476000Y-96380883D01*
X125642820Y-96397313D01*
X125642820Y-96397313D01*
G37*
G36*
X123102820Y-96397313D02*
X123102823Y-96397314D01*
X123102824Y-96397314D01*
X123263238Y-96445975D01*
X123263240Y-96445976D01*
X123263243Y-96445977D01*
X123411078Y-96524995D01*
X123540659Y-96631341D01*
X123647005Y-96760922D01*
X123726023Y-96908756D01*
X123774687Y-97069179D01*
X123787000Y-97194196D01*
X123787000Y-97877803D01*
X123774687Y-98002820D01*
X123774686Y-98002822D01*
X123774686Y-98002825D01*
X123726025Y-98163239D01*
X123726023Y-98163244D01*
X123647005Y-98311078D01*
X123540659Y-98440659D01*
X123411078Y-98547005D01*
X123263244Y-98626023D01*
X123263241Y-98626024D01*
X123263239Y-98626025D01*
X123102825Y-98674686D01*
X123102824Y-98674686D01*
X123102821Y-98674687D01*
X122936000Y-98691117D01*
X122769180Y-98674687D01*
X122769177Y-98674686D01*
X122769176Y-98674686D01*
X122608762Y-98626025D01*
X122608760Y-98626024D01*
X122608757Y-98626023D01*
X122460923Y-98547005D01*
X122331342Y-98440659D01*
X122224996Y-98311078D01*
X122145975Y-98163239D01*
X122097313Y-98002826D01*
X122085000Y-97877804D01*
X122085000Y-97194197D01*
X122097313Y-97069180D01*
X122097314Y-97069176D01*
X122145975Y-96908762D01*
X122145976Y-96908760D01*
X122145977Y-96908757D01*
X122224995Y-96760922D01*
X122331341Y-96631341D01*
X122460922Y-96524995D01*
X122608756Y-96445977D01*
X122608759Y-96445976D01*
X122608761Y-96445975D01*
X122769175Y-96397314D01*
X122769176Y-96397314D01*
X122769179Y-96397313D01*
X122936000Y-96380883D01*
X123102820Y-96397313D01*
X123102820Y-96397313D01*
G37*
G36*
X120562820Y-96397313D02*
X120562823Y-96397314D01*
X120562824Y-96397314D01*
X120723238Y-96445975D01*
X120723240Y-96445976D01*
X120723243Y-96445977D01*
X120871078Y-96524995D01*
X121000659Y-96631341D01*
X121107005Y-96760922D01*
X121186023Y-96908756D01*
X121234687Y-97069179D01*
X121247000Y-97194196D01*
X121247000Y-97877803D01*
X121234687Y-98002820D01*
X121234686Y-98002822D01*
X121234686Y-98002825D01*
X121186025Y-98163239D01*
X121186023Y-98163244D01*
X121107005Y-98311078D01*
X121000659Y-98440659D01*
X120871078Y-98547005D01*
X120723244Y-98626023D01*
X120723241Y-98626024D01*
X120723239Y-98626025D01*
X120562825Y-98674686D01*
X120562824Y-98674686D01*
X120562821Y-98674687D01*
X120396000Y-98691117D01*
X120229180Y-98674687D01*
X120229177Y-98674686D01*
X120229176Y-98674686D01*
X120068762Y-98626025D01*
X120068760Y-98626024D01*
X120068757Y-98626023D01*
X119920923Y-98547005D01*
X119791342Y-98440659D01*
X119684996Y-98311078D01*
X119605975Y-98163239D01*
X119557313Y-98002826D01*
X119545000Y-97877804D01*
X119545000Y-97194197D01*
X119557313Y-97069180D01*
X119557314Y-97069176D01*
X119605975Y-96908762D01*
X119605976Y-96908760D01*
X119605977Y-96908757D01*
X119684995Y-96760922D01*
X119791341Y-96631341D01*
X119920922Y-96524995D01*
X120068756Y-96445977D01*
X120068759Y-96445976D01*
X120068761Y-96445975D01*
X120229175Y-96397314D01*
X120229176Y-96397314D01*
X120229179Y-96397313D01*
X120396000Y-96380883D01*
X120562820Y-96397313D01*
X120562820Y-96397313D01*
G37*
G36*
X118022820Y-96397313D02*
X118022823Y-96397314D01*
X118022824Y-96397314D01*
X118183238Y-96445975D01*
X118183240Y-96445976D01*
X118183243Y-96445977D01*
X118331078Y-96524995D01*
X118460659Y-96631341D01*
X118567005Y-96760922D01*
X118646023Y-96908756D01*
X118694687Y-97069179D01*
X118707000Y-97194196D01*
X118707000Y-97877803D01*
X118694687Y-98002820D01*
X118694686Y-98002822D01*
X118694686Y-98002825D01*
X118646025Y-98163239D01*
X118646023Y-98163244D01*
X118567005Y-98311078D01*
X118460659Y-98440659D01*
X118331078Y-98547005D01*
X118183244Y-98626023D01*
X118183241Y-98626024D01*
X118183239Y-98626025D01*
X118022825Y-98674686D01*
X118022824Y-98674686D01*
X118022821Y-98674687D01*
X117856000Y-98691117D01*
X117689180Y-98674687D01*
X117689177Y-98674686D01*
X117689176Y-98674686D01*
X117528762Y-98626025D01*
X117528760Y-98626024D01*
X117528757Y-98626023D01*
X117380923Y-98547005D01*
X117251342Y-98440659D01*
X117144996Y-98311078D01*
X117065975Y-98163239D01*
X117017313Y-98002826D01*
X117005000Y-97877804D01*
X117005000Y-97194197D01*
X117017313Y-97069180D01*
X117017314Y-97069176D01*
X117065975Y-96908762D01*
X117065976Y-96908760D01*
X117065977Y-96908757D01*
X117144995Y-96760922D01*
X117251341Y-96631341D01*
X117380922Y-96524995D01*
X117528756Y-96445977D01*
X117528759Y-96445976D01*
X117528761Y-96445975D01*
X117689175Y-96397314D01*
X117689176Y-96397314D01*
X117689179Y-96397313D01*
X117856000Y-96380883D01*
X118022820Y-96397313D01*
X118022820Y-96397313D01*
G37*
G36*
X115482820Y-96397313D02*
X115482823Y-96397314D01*
X115482824Y-96397314D01*
X115643238Y-96445975D01*
X115643240Y-96445976D01*
X115643243Y-96445977D01*
X115791078Y-96524995D01*
X115920659Y-96631341D01*
X116027005Y-96760922D01*
X116106023Y-96908756D01*
X116154687Y-97069179D01*
X116167000Y-97194196D01*
X116167000Y-97877803D01*
X116154687Y-98002820D01*
X116154686Y-98002822D01*
X116154686Y-98002825D01*
X116106025Y-98163239D01*
X116106023Y-98163244D01*
X116027005Y-98311078D01*
X115920659Y-98440659D01*
X115791078Y-98547005D01*
X115643244Y-98626023D01*
X115643241Y-98626024D01*
X115643239Y-98626025D01*
X115482825Y-98674686D01*
X115482824Y-98674686D01*
X115482821Y-98674687D01*
X115316000Y-98691117D01*
X115149180Y-98674687D01*
X115149177Y-98674686D01*
X115149176Y-98674686D01*
X114988762Y-98626025D01*
X114988760Y-98626024D01*
X114988757Y-98626023D01*
X114840923Y-98547005D01*
X114711342Y-98440659D01*
X114604996Y-98311078D01*
X114525975Y-98163239D01*
X114477313Y-98002826D01*
X114465000Y-97877804D01*
X114465000Y-97194197D01*
X114477313Y-97069180D01*
X114477314Y-97069176D01*
X114525975Y-96908762D01*
X114525976Y-96908760D01*
X114525977Y-96908757D01*
X114604995Y-96760922D01*
X114711341Y-96631341D01*
X114840922Y-96524995D01*
X114988756Y-96445977D01*
X114988759Y-96445976D01*
X114988761Y-96445975D01*
X115149175Y-96397314D01*
X115149176Y-96397314D01*
X115149179Y-96397313D01*
X115316000Y-96380883D01*
X115482820Y-96397313D01*
X115482820Y-96397313D01*
G37*
G36*
X112942820Y-96397313D02*
X112942823Y-96397314D01*
X112942824Y-96397314D01*
X113103238Y-96445975D01*
X113103240Y-96445976D01*
X113103243Y-96445977D01*
X113251078Y-96524995D01*
X113380659Y-96631341D01*
X113487005Y-96760922D01*
X113566023Y-96908756D01*
X113614687Y-97069179D01*
X113627000Y-97194196D01*
X113627000Y-97877803D01*
X113614687Y-98002820D01*
X113614686Y-98002822D01*
X113614686Y-98002825D01*
X113566025Y-98163239D01*
X113566023Y-98163244D01*
X113487005Y-98311078D01*
X113380659Y-98440659D01*
X113251078Y-98547005D01*
X113103244Y-98626023D01*
X113103241Y-98626024D01*
X113103239Y-98626025D01*
X112942825Y-98674686D01*
X112942824Y-98674686D01*
X112942821Y-98674687D01*
X112776000Y-98691117D01*
X112609180Y-98674687D01*
X112609177Y-98674686D01*
X112609176Y-98674686D01*
X112448762Y-98626025D01*
X112448760Y-98626024D01*
X112448757Y-98626023D01*
X112300923Y-98547005D01*
X112171342Y-98440659D01*
X112064996Y-98311078D01*
X111985975Y-98163239D01*
X111937313Y-98002826D01*
X111925000Y-97877804D01*
X111925000Y-97194197D01*
X111937313Y-97069180D01*
X111937314Y-97069176D01*
X111985975Y-96908762D01*
X111985976Y-96908760D01*
X111985977Y-96908757D01*
X112064995Y-96760922D01*
X112171341Y-96631341D01*
X112300922Y-96524995D01*
X112448756Y-96445977D01*
X112448759Y-96445976D01*
X112448761Y-96445975D01*
X112609175Y-96397314D01*
X112609176Y-96397314D01*
X112609179Y-96397313D01*
X112776000Y-96380883D01*
X112942820Y-96397313D01*
X112942820Y-96397313D01*
G37*
G36*
X110402820Y-96397313D02*
X110402823Y-96397314D01*
X110402824Y-96397314D01*
X110563238Y-96445975D01*
X110563240Y-96445976D01*
X110563243Y-96445977D01*
X110711078Y-96524995D01*
X110840659Y-96631341D01*
X110947005Y-96760922D01*
X111026023Y-96908756D01*
X111074687Y-97069179D01*
X111087000Y-97194196D01*
X111087000Y-97877803D01*
X111074687Y-98002820D01*
X111074686Y-98002822D01*
X111074686Y-98002825D01*
X111026025Y-98163239D01*
X111026023Y-98163244D01*
X110947005Y-98311078D01*
X110840659Y-98440659D01*
X110711078Y-98547005D01*
X110563244Y-98626023D01*
X110563241Y-98626024D01*
X110563239Y-98626025D01*
X110402825Y-98674686D01*
X110402824Y-98674686D01*
X110402821Y-98674687D01*
X110236000Y-98691117D01*
X110069180Y-98674687D01*
X110069177Y-98674686D01*
X110069176Y-98674686D01*
X109908762Y-98626025D01*
X109908760Y-98626024D01*
X109908757Y-98626023D01*
X109760923Y-98547005D01*
X109631342Y-98440659D01*
X109524996Y-98311078D01*
X109445975Y-98163239D01*
X109397313Y-98002826D01*
X109385000Y-97877804D01*
X109385000Y-97194197D01*
X109397313Y-97069180D01*
X109397314Y-97069176D01*
X109445975Y-96908762D01*
X109445976Y-96908760D01*
X109445977Y-96908757D01*
X109524995Y-96760922D01*
X109631341Y-96631341D01*
X109760922Y-96524995D01*
X109908756Y-96445977D01*
X109908759Y-96445976D01*
X109908761Y-96445975D01*
X110069175Y-96397314D01*
X110069176Y-96397314D01*
X110069179Y-96397313D01*
X110236000Y-96380883D01*
X110402820Y-96397313D01*
X110402820Y-96397313D01*
G37*
G36*
X107862820Y-96397313D02*
X107862823Y-96397314D01*
X107862824Y-96397314D01*
X108023238Y-96445975D01*
X108023240Y-96445976D01*
X108023243Y-96445977D01*
X108171078Y-96524995D01*
X108300659Y-96631341D01*
X108407005Y-96760922D01*
X108486023Y-96908756D01*
X108534687Y-97069179D01*
X108547000Y-97194196D01*
X108547000Y-97877803D01*
X108534687Y-98002820D01*
X108534686Y-98002822D01*
X108534686Y-98002825D01*
X108486025Y-98163239D01*
X108486023Y-98163244D01*
X108407005Y-98311078D01*
X108300659Y-98440659D01*
X108171078Y-98547005D01*
X108023244Y-98626023D01*
X108023241Y-98626024D01*
X108023239Y-98626025D01*
X107862825Y-98674686D01*
X107862824Y-98674686D01*
X107862821Y-98674687D01*
X107696000Y-98691117D01*
X107529180Y-98674687D01*
X107529177Y-98674686D01*
X107529176Y-98674686D01*
X107368762Y-98626025D01*
X107368760Y-98626024D01*
X107368757Y-98626023D01*
X107220923Y-98547005D01*
X107091342Y-98440659D01*
X106984996Y-98311078D01*
X106905975Y-98163239D01*
X106857313Y-98002826D01*
X106845000Y-97877804D01*
X106845000Y-97194197D01*
X106857313Y-97069180D01*
X106857314Y-97069176D01*
X106905975Y-96908762D01*
X106905976Y-96908760D01*
X106905977Y-96908757D01*
X106984995Y-96760922D01*
X107091341Y-96631341D01*
X107220922Y-96524995D01*
X107368756Y-96445977D01*
X107368759Y-96445976D01*
X107368761Y-96445975D01*
X107529175Y-96397314D01*
X107529176Y-96397314D01*
X107529179Y-96397313D01*
X107696000Y-96380883D01*
X107862820Y-96397313D01*
X107862820Y-96397313D01*
G37*
G36*
X130722820Y-96397313D02*
X130722823Y-96397314D01*
X130722824Y-96397314D01*
X130883238Y-96445975D01*
X130883240Y-96445976D01*
X130883243Y-96445977D01*
X131031078Y-96524995D01*
X131160659Y-96631341D01*
X131267005Y-96760922D01*
X131346023Y-96908756D01*
X131394687Y-97069179D01*
X131407000Y-97194196D01*
X131407000Y-97877803D01*
X131394687Y-98002820D01*
X131394686Y-98002822D01*
X131394686Y-98002825D01*
X131346025Y-98163239D01*
X131346023Y-98163244D01*
X131267005Y-98311078D01*
X131160659Y-98440659D01*
X131031078Y-98547005D01*
X130883244Y-98626023D01*
X130883241Y-98626024D01*
X130883239Y-98626025D01*
X130722825Y-98674686D01*
X130722824Y-98674686D01*
X130722821Y-98674687D01*
X130556000Y-98691117D01*
X130389180Y-98674687D01*
X130389177Y-98674686D01*
X130389176Y-98674686D01*
X130228762Y-98626025D01*
X130228760Y-98626024D01*
X130228757Y-98626023D01*
X130080923Y-98547005D01*
X129951342Y-98440659D01*
X129844996Y-98311078D01*
X129765975Y-98163239D01*
X129717313Y-98002826D01*
X129705000Y-97877804D01*
X129705000Y-97194197D01*
X129717313Y-97069180D01*
X129717314Y-97069176D01*
X129765975Y-96908762D01*
X129765976Y-96908760D01*
X129765977Y-96908757D01*
X129844995Y-96760922D01*
X129951341Y-96631341D01*
X130080922Y-96524995D01*
X130228756Y-96445977D01*
X130228759Y-96445976D01*
X130228761Y-96445975D01*
X130389175Y-96397314D01*
X130389176Y-96397314D01*
X130389179Y-96397313D01*
X130556000Y-96380883D01*
X130722820Y-96397313D01*
X130722820Y-96397313D01*
G37*
G36*
X128182820Y-63377313D02*
X128182823Y-63377314D01*
X128182824Y-63377314D01*
X128343238Y-63425975D01*
X128343240Y-63425976D01*
X128343243Y-63425977D01*
X128491078Y-63504995D01*
X128620659Y-63611341D01*
X128727005Y-63740922D01*
X128806023Y-63888756D01*
X128854687Y-64049179D01*
X128867000Y-64174196D01*
X128867000Y-64857803D01*
X128854687Y-64982820D01*
X128854686Y-64982822D01*
X128854686Y-64982825D01*
X128806025Y-65143239D01*
X128806023Y-65143244D01*
X128727005Y-65291078D01*
X128620659Y-65420659D01*
X128491078Y-65527005D01*
X128343244Y-65606023D01*
X128343241Y-65606024D01*
X128343239Y-65606025D01*
X128182825Y-65654686D01*
X128182824Y-65654686D01*
X128182821Y-65654687D01*
X128016000Y-65671117D01*
X127849180Y-65654687D01*
X127849177Y-65654686D01*
X127849176Y-65654686D01*
X127688762Y-65606025D01*
X127688760Y-65606024D01*
X127688757Y-65606023D01*
X127540923Y-65527005D01*
X127411342Y-65420659D01*
X127304996Y-65291078D01*
X127225975Y-65143239D01*
X127177313Y-64982826D01*
X127165000Y-64857804D01*
X127165000Y-64174197D01*
X127177313Y-64049180D01*
X127177314Y-64049176D01*
X127225975Y-63888762D01*
X127225976Y-63888760D01*
X127225977Y-63888757D01*
X127304995Y-63740922D01*
X127411341Y-63611341D01*
X127540922Y-63504995D01*
X127688756Y-63425977D01*
X127688759Y-63425976D01*
X127688761Y-63425975D01*
X127849175Y-63377314D01*
X127849176Y-63377314D01*
X127849179Y-63377313D01*
X128016000Y-63360883D01*
X128182820Y-63377313D01*
X128182820Y-63377313D01*
G37*
G36*
X153582820Y-63377313D02*
X153582823Y-63377314D01*
X153582824Y-63377314D01*
X153743238Y-63425975D01*
X153743240Y-63425976D01*
X153743243Y-63425977D01*
X153891078Y-63504995D01*
X154020659Y-63611341D01*
X154127005Y-63740922D01*
X154206023Y-63888756D01*
X154254687Y-64049179D01*
X154267000Y-64174196D01*
X154267000Y-64857803D01*
X154254687Y-64982820D01*
X154254686Y-64982822D01*
X154254686Y-64982825D01*
X154206025Y-65143239D01*
X154206023Y-65143244D01*
X154127005Y-65291078D01*
X154020659Y-65420659D01*
X153891078Y-65527005D01*
X153743244Y-65606023D01*
X153743241Y-65606024D01*
X153743239Y-65606025D01*
X153582825Y-65654686D01*
X153582824Y-65654686D01*
X153582821Y-65654687D01*
X153416000Y-65671117D01*
X153249180Y-65654687D01*
X153249177Y-65654686D01*
X153249176Y-65654686D01*
X153088762Y-65606025D01*
X153088760Y-65606024D01*
X153088757Y-65606023D01*
X152940923Y-65527005D01*
X152811342Y-65420659D01*
X152704996Y-65291078D01*
X152625975Y-65143239D01*
X152577313Y-64982826D01*
X152565000Y-64857804D01*
X152565000Y-64174197D01*
X152577313Y-64049180D01*
X152577314Y-64049176D01*
X152625975Y-63888762D01*
X152625976Y-63888760D01*
X152625977Y-63888757D01*
X152704995Y-63740922D01*
X152811341Y-63611341D01*
X152940922Y-63504995D01*
X153088756Y-63425977D01*
X153088759Y-63425976D01*
X153088761Y-63425975D01*
X153249175Y-63377314D01*
X153249176Y-63377314D01*
X153249179Y-63377313D01*
X153416000Y-63360883D01*
X153582820Y-63377313D01*
X153582820Y-63377313D01*
G37*
G36*
X125642820Y-63377313D02*
X125642823Y-63377314D01*
X125642824Y-63377314D01*
X125803238Y-63425975D01*
X125803240Y-63425976D01*
X125803243Y-63425977D01*
X125951078Y-63504995D01*
X126080659Y-63611341D01*
X126187005Y-63740922D01*
X126266023Y-63888756D01*
X126314687Y-64049179D01*
X126327000Y-64174196D01*
X126327000Y-64857803D01*
X126314687Y-64982820D01*
X126314686Y-64982822D01*
X126314686Y-64982825D01*
X126266025Y-65143239D01*
X126266023Y-65143244D01*
X126187005Y-65291078D01*
X126080659Y-65420659D01*
X125951078Y-65527005D01*
X125803244Y-65606023D01*
X125803241Y-65606024D01*
X125803239Y-65606025D01*
X125642825Y-65654686D01*
X125642824Y-65654686D01*
X125642821Y-65654687D01*
X125476000Y-65671117D01*
X125309180Y-65654687D01*
X125309177Y-65654686D01*
X125309176Y-65654686D01*
X125148762Y-65606025D01*
X125148760Y-65606024D01*
X125148757Y-65606023D01*
X125000923Y-65527005D01*
X124871342Y-65420659D01*
X124764996Y-65291078D01*
X124685975Y-65143239D01*
X124637313Y-64982826D01*
X124625000Y-64857804D01*
X124625000Y-64174197D01*
X124637313Y-64049180D01*
X124637314Y-64049176D01*
X124685975Y-63888762D01*
X124685976Y-63888760D01*
X124685977Y-63888757D01*
X124764995Y-63740922D01*
X124871341Y-63611341D01*
X125000922Y-63504995D01*
X125148756Y-63425977D01*
X125148759Y-63425976D01*
X125148761Y-63425975D01*
X125309175Y-63377314D01*
X125309176Y-63377314D01*
X125309179Y-63377313D01*
X125476000Y-63360883D01*
X125642820Y-63377313D01*
X125642820Y-63377313D01*
G37*
G36*
X123102820Y-63377313D02*
X123102823Y-63377314D01*
X123102824Y-63377314D01*
X123263238Y-63425975D01*
X123263240Y-63425976D01*
X123263243Y-63425977D01*
X123411078Y-63504995D01*
X123540659Y-63611341D01*
X123647005Y-63740922D01*
X123726023Y-63888756D01*
X123774687Y-64049179D01*
X123787000Y-64174196D01*
X123787000Y-64857803D01*
X123774687Y-64982820D01*
X123774686Y-64982822D01*
X123774686Y-64982825D01*
X123726025Y-65143239D01*
X123726023Y-65143244D01*
X123647005Y-65291078D01*
X123540659Y-65420659D01*
X123411078Y-65527005D01*
X123263244Y-65606023D01*
X123263241Y-65606024D01*
X123263239Y-65606025D01*
X123102825Y-65654686D01*
X123102824Y-65654686D01*
X123102821Y-65654687D01*
X122936000Y-65671117D01*
X122769180Y-65654687D01*
X122769177Y-65654686D01*
X122769176Y-65654686D01*
X122608762Y-65606025D01*
X122608760Y-65606024D01*
X122608757Y-65606023D01*
X122460923Y-65527005D01*
X122331342Y-65420659D01*
X122224996Y-65291078D01*
X122145975Y-65143239D01*
X122097313Y-64982826D01*
X122085000Y-64857804D01*
X122085000Y-64174197D01*
X122097313Y-64049180D01*
X122097314Y-64049176D01*
X122145975Y-63888762D01*
X122145976Y-63888760D01*
X122145977Y-63888757D01*
X122224995Y-63740922D01*
X122331341Y-63611341D01*
X122460922Y-63504995D01*
X122608756Y-63425977D01*
X122608759Y-63425976D01*
X122608761Y-63425975D01*
X122769175Y-63377314D01*
X122769176Y-63377314D01*
X122769179Y-63377313D01*
X122936000Y-63360883D01*
X123102820Y-63377313D01*
X123102820Y-63377313D01*
G37*
G36*
X120562820Y-63377313D02*
X120562823Y-63377314D01*
X120562824Y-63377314D01*
X120723238Y-63425975D01*
X120723240Y-63425976D01*
X120723243Y-63425977D01*
X120871078Y-63504995D01*
X121000659Y-63611341D01*
X121107005Y-63740922D01*
X121186023Y-63888756D01*
X121234687Y-64049179D01*
X121247000Y-64174196D01*
X121247000Y-64857803D01*
X121234687Y-64982820D01*
X121234686Y-64982822D01*
X121234686Y-64982825D01*
X121186025Y-65143239D01*
X121186023Y-65143244D01*
X121107005Y-65291078D01*
X121000659Y-65420659D01*
X120871078Y-65527005D01*
X120723244Y-65606023D01*
X120723241Y-65606024D01*
X120723239Y-65606025D01*
X120562825Y-65654686D01*
X120562824Y-65654686D01*
X120562821Y-65654687D01*
X120396000Y-65671117D01*
X120229180Y-65654687D01*
X120229177Y-65654686D01*
X120229176Y-65654686D01*
X120068762Y-65606025D01*
X120068760Y-65606024D01*
X120068757Y-65606023D01*
X119920923Y-65527005D01*
X119791342Y-65420659D01*
X119684996Y-65291078D01*
X119605975Y-65143239D01*
X119557313Y-64982826D01*
X119545000Y-64857804D01*
X119545000Y-64174197D01*
X119557313Y-64049180D01*
X119557314Y-64049176D01*
X119605975Y-63888762D01*
X119605976Y-63888760D01*
X119605977Y-63888757D01*
X119684995Y-63740922D01*
X119791341Y-63611341D01*
X119920922Y-63504995D01*
X120068756Y-63425977D01*
X120068759Y-63425976D01*
X120068761Y-63425975D01*
X120229175Y-63377314D01*
X120229176Y-63377314D01*
X120229179Y-63377313D01*
X120396000Y-63360883D01*
X120562820Y-63377313D01*
X120562820Y-63377313D01*
G37*
G36*
X118022820Y-63377313D02*
X118022823Y-63377314D01*
X118022824Y-63377314D01*
X118183238Y-63425975D01*
X118183240Y-63425976D01*
X118183243Y-63425977D01*
X118331078Y-63504995D01*
X118460659Y-63611341D01*
X118567005Y-63740922D01*
X118646023Y-63888756D01*
X118694687Y-64049179D01*
X118707000Y-64174196D01*
X118707000Y-64857803D01*
X118694687Y-64982820D01*
X118694686Y-64982822D01*
X118694686Y-64982825D01*
X118646025Y-65143239D01*
X118646023Y-65143244D01*
X118567005Y-65291078D01*
X118460659Y-65420659D01*
X118331078Y-65527005D01*
X118183244Y-65606023D01*
X118183241Y-65606024D01*
X118183239Y-65606025D01*
X118022825Y-65654686D01*
X118022824Y-65654686D01*
X118022821Y-65654687D01*
X117856000Y-65671117D01*
X117689180Y-65654687D01*
X117689177Y-65654686D01*
X117689176Y-65654686D01*
X117528762Y-65606025D01*
X117528760Y-65606024D01*
X117528757Y-65606023D01*
X117380923Y-65527005D01*
X117251342Y-65420659D01*
X117144996Y-65291078D01*
X117065975Y-65143239D01*
X117017313Y-64982826D01*
X117005000Y-64857804D01*
X117005000Y-64174197D01*
X117017313Y-64049180D01*
X117017314Y-64049176D01*
X117065975Y-63888762D01*
X117065976Y-63888760D01*
X117065977Y-63888757D01*
X117144995Y-63740922D01*
X117251341Y-63611341D01*
X117380922Y-63504995D01*
X117528756Y-63425977D01*
X117528759Y-63425976D01*
X117528761Y-63425975D01*
X117689175Y-63377314D01*
X117689176Y-63377314D01*
X117689179Y-63377313D01*
X117856000Y-63360883D01*
X118022820Y-63377313D01*
X118022820Y-63377313D01*
G37*
G36*
X115482820Y-63377313D02*
X115482823Y-63377314D01*
X115482824Y-63377314D01*
X115643238Y-63425975D01*
X115643240Y-63425976D01*
X115643243Y-63425977D01*
X115791078Y-63504995D01*
X115920659Y-63611341D01*
X116027005Y-63740922D01*
X116106023Y-63888756D01*
X116154687Y-64049179D01*
X116167000Y-64174196D01*
X116167000Y-64857803D01*
X116154687Y-64982820D01*
X116154686Y-64982822D01*
X116154686Y-64982825D01*
X116106025Y-65143239D01*
X116106023Y-65143244D01*
X116027005Y-65291078D01*
X115920659Y-65420659D01*
X115791078Y-65527005D01*
X115643244Y-65606023D01*
X115643241Y-65606024D01*
X115643239Y-65606025D01*
X115482825Y-65654686D01*
X115482824Y-65654686D01*
X115482821Y-65654687D01*
X115316000Y-65671117D01*
X115149180Y-65654687D01*
X115149177Y-65654686D01*
X115149176Y-65654686D01*
X114988762Y-65606025D01*
X114988760Y-65606024D01*
X114988757Y-65606023D01*
X114840923Y-65527005D01*
X114711342Y-65420659D01*
X114604996Y-65291078D01*
X114525975Y-65143239D01*
X114477313Y-64982826D01*
X114465000Y-64857804D01*
X114465000Y-64174197D01*
X114477313Y-64049180D01*
X114477314Y-64049176D01*
X114525975Y-63888762D01*
X114525976Y-63888760D01*
X114525977Y-63888757D01*
X114604995Y-63740922D01*
X114711341Y-63611341D01*
X114840922Y-63504995D01*
X114988756Y-63425977D01*
X114988759Y-63425976D01*
X114988761Y-63425975D01*
X115149175Y-63377314D01*
X115149176Y-63377314D01*
X115149179Y-63377313D01*
X115316000Y-63360883D01*
X115482820Y-63377313D01*
X115482820Y-63377313D01*
G37*
G36*
X112942820Y-63377313D02*
X112942823Y-63377314D01*
X112942824Y-63377314D01*
X113103238Y-63425975D01*
X113103240Y-63425976D01*
X113103243Y-63425977D01*
X113251078Y-63504995D01*
X113380659Y-63611341D01*
X113487005Y-63740922D01*
X113566023Y-63888756D01*
X113614687Y-64049179D01*
X113627000Y-64174196D01*
X113627000Y-64857803D01*
X113614687Y-64982820D01*
X113614686Y-64982822D01*
X113614686Y-64982825D01*
X113566025Y-65143239D01*
X113566023Y-65143244D01*
X113487005Y-65291078D01*
X113380659Y-65420659D01*
X113251078Y-65527005D01*
X113103244Y-65606023D01*
X113103241Y-65606024D01*
X113103239Y-65606025D01*
X112942825Y-65654686D01*
X112942824Y-65654686D01*
X112942821Y-65654687D01*
X112776000Y-65671117D01*
X112609180Y-65654687D01*
X112609177Y-65654686D01*
X112609176Y-65654686D01*
X112448762Y-65606025D01*
X112448760Y-65606024D01*
X112448757Y-65606023D01*
X112300923Y-65527005D01*
X112171342Y-65420659D01*
X112064996Y-65291078D01*
X111985975Y-65143239D01*
X111937313Y-64982826D01*
X111925000Y-64857804D01*
X111925000Y-64174197D01*
X111937313Y-64049180D01*
X111937314Y-64049176D01*
X111985975Y-63888762D01*
X111985976Y-63888760D01*
X111985977Y-63888757D01*
X112064995Y-63740922D01*
X112171341Y-63611341D01*
X112300922Y-63504995D01*
X112448756Y-63425977D01*
X112448759Y-63425976D01*
X112448761Y-63425975D01*
X112609175Y-63377314D01*
X112609176Y-63377314D01*
X112609179Y-63377313D01*
X112776000Y-63360883D01*
X112942820Y-63377313D01*
X112942820Y-63377313D01*
G37*
G36*
X110402820Y-63377313D02*
X110402823Y-63377314D01*
X110402824Y-63377314D01*
X110563238Y-63425975D01*
X110563240Y-63425976D01*
X110563243Y-63425977D01*
X110711078Y-63504995D01*
X110840659Y-63611341D01*
X110947005Y-63740922D01*
X111026023Y-63888756D01*
X111074687Y-64049179D01*
X111087000Y-64174196D01*
X111087000Y-64857803D01*
X111074687Y-64982820D01*
X111074686Y-64982822D01*
X111074686Y-64982825D01*
X111026025Y-65143239D01*
X111026023Y-65143244D01*
X110947005Y-65291078D01*
X110840659Y-65420659D01*
X110711078Y-65527005D01*
X110563244Y-65606023D01*
X110563241Y-65606024D01*
X110563239Y-65606025D01*
X110402825Y-65654686D01*
X110402824Y-65654686D01*
X110402821Y-65654687D01*
X110236000Y-65671117D01*
X110069180Y-65654687D01*
X110069177Y-65654686D01*
X110069176Y-65654686D01*
X109908762Y-65606025D01*
X109908760Y-65606024D01*
X109908757Y-65606023D01*
X109760923Y-65527005D01*
X109631342Y-65420659D01*
X109524996Y-65291078D01*
X109445975Y-65143239D01*
X109397313Y-64982826D01*
X109385000Y-64857804D01*
X109385000Y-64174197D01*
X109397313Y-64049180D01*
X109397314Y-64049176D01*
X109445975Y-63888762D01*
X109445976Y-63888760D01*
X109445977Y-63888757D01*
X109524995Y-63740922D01*
X109631341Y-63611341D01*
X109760922Y-63504995D01*
X109908756Y-63425977D01*
X109908759Y-63425976D01*
X109908761Y-63425975D01*
X110069175Y-63377314D01*
X110069176Y-63377314D01*
X110069179Y-63377313D01*
X110236000Y-63360883D01*
X110402820Y-63377313D01*
X110402820Y-63377313D01*
G37*
G36*
X107862820Y-63377313D02*
X107862823Y-63377314D01*
X107862824Y-63377314D01*
X108023238Y-63425975D01*
X108023240Y-63425976D01*
X108023243Y-63425977D01*
X108171078Y-63504995D01*
X108300659Y-63611341D01*
X108407005Y-63740922D01*
X108486023Y-63888756D01*
X108534687Y-64049179D01*
X108547000Y-64174196D01*
X108547000Y-64857803D01*
X108534687Y-64982820D01*
X108534686Y-64982822D01*
X108534686Y-64982825D01*
X108486025Y-65143239D01*
X108486023Y-65143244D01*
X108407005Y-65291078D01*
X108300659Y-65420659D01*
X108171078Y-65527005D01*
X108023244Y-65606023D01*
X108023241Y-65606024D01*
X108023239Y-65606025D01*
X107862825Y-65654686D01*
X107862824Y-65654686D01*
X107862821Y-65654687D01*
X107696000Y-65671117D01*
X107529180Y-65654687D01*
X107529177Y-65654686D01*
X107529176Y-65654686D01*
X107368762Y-65606025D01*
X107368760Y-65606024D01*
X107368757Y-65606023D01*
X107220923Y-65527005D01*
X107091342Y-65420659D01*
X106984996Y-65291078D01*
X106905975Y-65143239D01*
X106857313Y-64982826D01*
X106845000Y-64857804D01*
X106845000Y-64174197D01*
X106857313Y-64049180D01*
X106857314Y-64049176D01*
X106905975Y-63888762D01*
X106905976Y-63888760D01*
X106905977Y-63888757D01*
X106984995Y-63740922D01*
X107091341Y-63611341D01*
X107220922Y-63504995D01*
X107368756Y-63425977D01*
X107368759Y-63425976D01*
X107368761Y-63425975D01*
X107529175Y-63377314D01*
X107529176Y-63377314D01*
X107529179Y-63377313D01*
X107696000Y-63360883D01*
X107862820Y-63377313D01*
X107862820Y-63377313D01*
G37*
G36*
X130722820Y-63377313D02*
X130722823Y-63377314D01*
X130722824Y-63377314D01*
X130883238Y-63425975D01*
X130883240Y-63425976D01*
X130883243Y-63425977D01*
X131031078Y-63504995D01*
X131160659Y-63611341D01*
X131267005Y-63740922D01*
X131346023Y-63888756D01*
X131394687Y-64049179D01*
X131407000Y-64174196D01*
X131407000Y-64857803D01*
X131394687Y-64982820D01*
X131394686Y-64982822D01*
X131394686Y-64982825D01*
X131346025Y-65143239D01*
X131346023Y-65143244D01*
X131267005Y-65291078D01*
X131160659Y-65420659D01*
X131031078Y-65527005D01*
X130883244Y-65606023D01*
X130883241Y-65606024D01*
X130883239Y-65606025D01*
X130722825Y-65654686D01*
X130722824Y-65654686D01*
X130722821Y-65654687D01*
X130556000Y-65671117D01*
X130389180Y-65654687D01*
X130389177Y-65654686D01*
X130389176Y-65654686D01*
X130228762Y-65606025D01*
X130228760Y-65606024D01*
X130228757Y-65606023D01*
X130080923Y-65527005D01*
X129951342Y-65420659D01*
X129844996Y-65291078D01*
X129765975Y-65143239D01*
X129717313Y-64982826D01*
X129705000Y-64857804D01*
X129705000Y-64174197D01*
X129717313Y-64049180D01*
X129717314Y-64049176D01*
X129765975Y-63888762D01*
X129765976Y-63888760D01*
X129765977Y-63888757D01*
X129844995Y-63740922D01*
X129951341Y-63611341D01*
X130080922Y-63504995D01*
X130228756Y-63425977D01*
X130228759Y-63425976D01*
X130228761Y-63425975D01*
X130389175Y-63377314D01*
X130389176Y-63377314D01*
X130389179Y-63377313D01*
X130556000Y-63360883D01*
X130722820Y-63377313D01*
X130722820Y-63377313D01*
G37*
G36*
X135802820Y-63377313D02*
X135802823Y-63377314D01*
X135802824Y-63377314D01*
X135963238Y-63425975D01*
X135963240Y-63425976D01*
X135963243Y-63425977D01*
X136111078Y-63504995D01*
X136240659Y-63611341D01*
X136347005Y-63740922D01*
X136426023Y-63888756D01*
X136474687Y-64049179D01*
X136487000Y-64174196D01*
X136487000Y-64857803D01*
X136474687Y-64982820D01*
X136474686Y-64982822D01*
X136474686Y-64982825D01*
X136426025Y-65143239D01*
X136426023Y-65143244D01*
X136347005Y-65291078D01*
X136240659Y-65420659D01*
X136111078Y-65527005D01*
X135963244Y-65606023D01*
X135963241Y-65606024D01*
X135963239Y-65606025D01*
X135802825Y-65654686D01*
X135802824Y-65654686D01*
X135802821Y-65654687D01*
X135636000Y-65671117D01*
X135469180Y-65654687D01*
X135469177Y-65654686D01*
X135469176Y-65654686D01*
X135308762Y-65606025D01*
X135308760Y-65606024D01*
X135308757Y-65606023D01*
X135160923Y-65527005D01*
X135031342Y-65420659D01*
X134924996Y-65291078D01*
X134845975Y-65143239D01*
X134797313Y-64982826D01*
X134785000Y-64857804D01*
X134785000Y-64174197D01*
X134797313Y-64049180D01*
X134797314Y-64049176D01*
X134845975Y-63888762D01*
X134845976Y-63888760D01*
X134845977Y-63888757D01*
X134924995Y-63740922D01*
X135031341Y-63611341D01*
X135160922Y-63504995D01*
X135308756Y-63425977D01*
X135308759Y-63425976D01*
X135308761Y-63425975D01*
X135469175Y-63377314D01*
X135469176Y-63377314D01*
X135469179Y-63377313D01*
X135636000Y-63360883D01*
X135802820Y-63377313D01*
X135802820Y-63377313D01*
G37*
G36*
X133262820Y-63377313D02*
X133262823Y-63377314D01*
X133262824Y-63377314D01*
X133423238Y-63425975D01*
X133423240Y-63425976D01*
X133423243Y-63425977D01*
X133571078Y-63504995D01*
X133700659Y-63611341D01*
X133807005Y-63740922D01*
X133886023Y-63888756D01*
X133934687Y-64049179D01*
X133947000Y-64174196D01*
X133947000Y-64857803D01*
X133934687Y-64982820D01*
X133934686Y-64982822D01*
X133934686Y-64982825D01*
X133886025Y-65143239D01*
X133886023Y-65143244D01*
X133807005Y-65291078D01*
X133700659Y-65420659D01*
X133571078Y-65527005D01*
X133423244Y-65606023D01*
X133423241Y-65606024D01*
X133423239Y-65606025D01*
X133262825Y-65654686D01*
X133262824Y-65654686D01*
X133262821Y-65654687D01*
X133096000Y-65671117D01*
X132929180Y-65654687D01*
X132929177Y-65654686D01*
X132929176Y-65654686D01*
X132768762Y-65606025D01*
X132768760Y-65606024D01*
X132768757Y-65606023D01*
X132620923Y-65527005D01*
X132491342Y-65420659D01*
X132384996Y-65291078D01*
X132305975Y-65143239D01*
X132257313Y-64982826D01*
X132245000Y-64857804D01*
X132245000Y-64174197D01*
X132257313Y-64049180D01*
X132257314Y-64049176D01*
X132305975Y-63888762D01*
X132305976Y-63888760D01*
X132305977Y-63888757D01*
X132384995Y-63740922D01*
X132491341Y-63611341D01*
X132620922Y-63504995D01*
X132768756Y-63425977D01*
X132768759Y-63425976D01*
X132768761Y-63425975D01*
X132929175Y-63377314D01*
X132929176Y-63377314D01*
X132929179Y-63377313D01*
X133096000Y-63360883D01*
X133262820Y-63377313D01*
X133262820Y-63377313D01*
G37*
G36*
X156122820Y-63377313D02*
X156122823Y-63377314D01*
X156122824Y-63377314D01*
X156283238Y-63425975D01*
X156283240Y-63425976D01*
X156283243Y-63425977D01*
X156431078Y-63504995D01*
X156560659Y-63611341D01*
X156667005Y-63740922D01*
X156746023Y-63888756D01*
X156794687Y-64049179D01*
X156807000Y-64174196D01*
X156807000Y-64857803D01*
X156794687Y-64982820D01*
X156794686Y-64982822D01*
X156794686Y-64982825D01*
X156746025Y-65143239D01*
X156746023Y-65143244D01*
X156667005Y-65291078D01*
X156560659Y-65420659D01*
X156431078Y-65527005D01*
X156283244Y-65606023D01*
X156283241Y-65606024D01*
X156283239Y-65606025D01*
X156122825Y-65654686D01*
X156122824Y-65654686D01*
X156122821Y-65654687D01*
X155956000Y-65671117D01*
X155789180Y-65654687D01*
X155789177Y-65654686D01*
X155789176Y-65654686D01*
X155628762Y-65606025D01*
X155628760Y-65606024D01*
X155628757Y-65606023D01*
X155480923Y-65527005D01*
X155351342Y-65420659D01*
X155244996Y-65291078D01*
X155165975Y-65143239D01*
X155117313Y-64982826D01*
X155105000Y-64857804D01*
X155105000Y-64174197D01*
X155117313Y-64049180D01*
X155117314Y-64049176D01*
X155165975Y-63888762D01*
X155165976Y-63888760D01*
X155165977Y-63888757D01*
X155244995Y-63740922D01*
X155351341Y-63611341D01*
X155480922Y-63504995D01*
X155628756Y-63425977D01*
X155628759Y-63425976D01*
X155628761Y-63425975D01*
X155789175Y-63377314D01*
X155789176Y-63377314D01*
X155789179Y-63377313D01*
X155956000Y-63360883D01*
X156122820Y-63377313D01*
X156122820Y-63377313D01*
G37*
G36*
X151042820Y-63377313D02*
X151042823Y-63377314D01*
X151042824Y-63377314D01*
X151203238Y-63425975D01*
X151203240Y-63425976D01*
X151203243Y-63425977D01*
X151351078Y-63504995D01*
X151480659Y-63611341D01*
X151587005Y-63740922D01*
X151666023Y-63888756D01*
X151714687Y-64049179D01*
X151727000Y-64174196D01*
X151727000Y-64857803D01*
X151714687Y-64982820D01*
X151714686Y-64982822D01*
X151714686Y-64982825D01*
X151666025Y-65143239D01*
X151666023Y-65143244D01*
X151587005Y-65291078D01*
X151480659Y-65420659D01*
X151351078Y-65527005D01*
X151203244Y-65606023D01*
X151203241Y-65606024D01*
X151203239Y-65606025D01*
X151042825Y-65654686D01*
X151042824Y-65654686D01*
X151042821Y-65654687D01*
X150876000Y-65671117D01*
X150709180Y-65654687D01*
X150709177Y-65654686D01*
X150709176Y-65654686D01*
X150548762Y-65606025D01*
X150548760Y-65606024D01*
X150548757Y-65606023D01*
X150400923Y-65527005D01*
X150271342Y-65420659D01*
X150164996Y-65291078D01*
X150085975Y-65143239D01*
X150037313Y-64982826D01*
X150025000Y-64857804D01*
X150025000Y-64174197D01*
X150037313Y-64049180D01*
X150037314Y-64049176D01*
X150085975Y-63888762D01*
X150085976Y-63888760D01*
X150085977Y-63888757D01*
X150164995Y-63740922D01*
X150271341Y-63611341D01*
X150400922Y-63504995D01*
X150548756Y-63425977D01*
X150548759Y-63425976D01*
X150548761Y-63425975D01*
X150709175Y-63377314D01*
X150709176Y-63377314D01*
X150709179Y-63377313D01*
X150876000Y-63360883D01*
X151042820Y-63377313D01*
X151042820Y-63377313D01*
G37*
G36*
X148502820Y-63377313D02*
X148502823Y-63377314D01*
X148502824Y-63377314D01*
X148663238Y-63425975D01*
X148663240Y-63425976D01*
X148663243Y-63425977D01*
X148811078Y-63504995D01*
X148940659Y-63611341D01*
X149047005Y-63740922D01*
X149126023Y-63888756D01*
X149174687Y-64049179D01*
X149187000Y-64174196D01*
X149187000Y-64857803D01*
X149174687Y-64982820D01*
X149174686Y-64982822D01*
X149174686Y-64982825D01*
X149126025Y-65143239D01*
X149126023Y-65143244D01*
X149047005Y-65291078D01*
X148940659Y-65420659D01*
X148811078Y-65527005D01*
X148663244Y-65606023D01*
X148663241Y-65606024D01*
X148663239Y-65606025D01*
X148502825Y-65654686D01*
X148502824Y-65654686D01*
X148502821Y-65654687D01*
X148336000Y-65671117D01*
X148169180Y-65654687D01*
X148169177Y-65654686D01*
X148169176Y-65654686D01*
X148008762Y-65606025D01*
X148008760Y-65606024D01*
X148008757Y-65606023D01*
X147860923Y-65527005D01*
X147731342Y-65420659D01*
X147624996Y-65291078D01*
X147545975Y-65143239D01*
X147497313Y-64982826D01*
X147485000Y-64857804D01*
X147485000Y-64174197D01*
X147497313Y-64049180D01*
X147497314Y-64049176D01*
X147545975Y-63888762D01*
X147545976Y-63888760D01*
X147545977Y-63888757D01*
X147624995Y-63740922D01*
X147731341Y-63611341D01*
X147860922Y-63504995D01*
X148008756Y-63425977D01*
X148008759Y-63425976D01*
X148008761Y-63425975D01*
X148169175Y-63377314D01*
X148169176Y-63377314D01*
X148169179Y-63377313D01*
X148336000Y-63360883D01*
X148502820Y-63377313D01*
X148502820Y-63377313D01*
G37*
G36*
X145962820Y-63377313D02*
X145962823Y-63377314D01*
X145962824Y-63377314D01*
X146123238Y-63425975D01*
X146123240Y-63425976D01*
X146123243Y-63425977D01*
X146271078Y-63504995D01*
X146400659Y-63611341D01*
X146507005Y-63740922D01*
X146586023Y-63888756D01*
X146634687Y-64049179D01*
X146647000Y-64174196D01*
X146647000Y-64857803D01*
X146634687Y-64982820D01*
X146634686Y-64982822D01*
X146634686Y-64982825D01*
X146586025Y-65143239D01*
X146586023Y-65143244D01*
X146507005Y-65291078D01*
X146400659Y-65420659D01*
X146271078Y-65527005D01*
X146123244Y-65606023D01*
X146123241Y-65606024D01*
X146123239Y-65606025D01*
X145962825Y-65654686D01*
X145962824Y-65654686D01*
X145962821Y-65654687D01*
X145796000Y-65671117D01*
X145629180Y-65654687D01*
X145629177Y-65654686D01*
X145629176Y-65654686D01*
X145468762Y-65606025D01*
X145468760Y-65606024D01*
X145468757Y-65606023D01*
X145320923Y-65527005D01*
X145191342Y-65420659D01*
X145084996Y-65291078D01*
X145005975Y-65143239D01*
X144957313Y-64982826D01*
X144945000Y-64857804D01*
X144945000Y-64174197D01*
X144957313Y-64049180D01*
X144957314Y-64049176D01*
X145005975Y-63888762D01*
X145005976Y-63888760D01*
X145005977Y-63888757D01*
X145084995Y-63740922D01*
X145191341Y-63611341D01*
X145320922Y-63504995D01*
X145468756Y-63425977D01*
X145468759Y-63425976D01*
X145468761Y-63425975D01*
X145629175Y-63377314D01*
X145629176Y-63377314D01*
X145629179Y-63377313D01*
X145796000Y-63360883D01*
X145962820Y-63377313D01*
X145962820Y-63377313D01*
G37*
G36*
X143422820Y-63377313D02*
X143422823Y-63377314D01*
X143422824Y-63377314D01*
X143583238Y-63425975D01*
X143583240Y-63425976D01*
X143583243Y-63425977D01*
X143731078Y-63504995D01*
X143860659Y-63611341D01*
X143967005Y-63740922D01*
X144046023Y-63888756D01*
X144094687Y-64049179D01*
X144107000Y-64174196D01*
X144107000Y-64857803D01*
X144094687Y-64982820D01*
X144094686Y-64982822D01*
X144094686Y-64982825D01*
X144046025Y-65143239D01*
X144046023Y-65143244D01*
X143967005Y-65291078D01*
X143860659Y-65420659D01*
X143731078Y-65527005D01*
X143583244Y-65606023D01*
X143583241Y-65606024D01*
X143583239Y-65606025D01*
X143422825Y-65654686D01*
X143422824Y-65654686D01*
X143422821Y-65654687D01*
X143256000Y-65671117D01*
X143089180Y-65654687D01*
X143089177Y-65654686D01*
X143089176Y-65654686D01*
X142928762Y-65606025D01*
X142928760Y-65606024D01*
X142928757Y-65606023D01*
X142780923Y-65527005D01*
X142651342Y-65420659D01*
X142544996Y-65291078D01*
X142465975Y-65143239D01*
X142417313Y-64982826D01*
X142405000Y-64857804D01*
X142405000Y-64174197D01*
X142417313Y-64049180D01*
X142417314Y-64049176D01*
X142465975Y-63888762D01*
X142465976Y-63888760D01*
X142465977Y-63888757D01*
X142544995Y-63740922D01*
X142651341Y-63611341D01*
X142780922Y-63504995D01*
X142928756Y-63425977D01*
X142928759Y-63425976D01*
X142928761Y-63425975D01*
X143089175Y-63377314D01*
X143089176Y-63377314D01*
X143089179Y-63377313D01*
X143256000Y-63360883D01*
X143422820Y-63377313D01*
X143422820Y-63377313D01*
G37*
G36*
X140882820Y-63377313D02*
X140882823Y-63377314D01*
X140882824Y-63377314D01*
X141043238Y-63425975D01*
X141043240Y-63425976D01*
X141043243Y-63425977D01*
X141191078Y-63504995D01*
X141320659Y-63611341D01*
X141427005Y-63740922D01*
X141506023Y-63888756D01*
X141554687Y-64049179D01*
X141567000Y-64174196D01*
X141567000Y-64857803D01*
X141554687Y-64982820D01*
X141554686Y-64982822D01*
X141554686Y-64982825D01*
X141506025Y-65143239D01*
X141506023Y-65143244D01*
X141427005Y-65291078D01*
X141320659Y-65420659D01*
X141191078Y-65527005D01*
X141043244Y-65606023D01*
X141043241Y-65606024D01*
X141043239Y-65606025D01*
X140882825Y-65654686D01*
X140882824Y-65654686D01*
X140882821Y-65654687D01*
X140716000Y-65671117D01*
X140549180Y-65654687D01*
X140549177Y-65654686D01*
X140549176Y-65654686D01*
X140388762Y-65606025D01*
X140388760Y-65606024D01*
X140388757Y-65606023D01*
X140240923Y-65527005D01*
X140111342Y-65420659D01*
X140004996Y-65291078D01*
X139925975Y-65143239D01*
X139877313Y-64982826D01*
X139865000Y-64857804D01*
X139865000Y-64174197D01*
X139877313Y-64049180D01*
X139877314Y-64049176D01*
X139925975Y-63888762D01*
X139925976Y-63888760D01*
X139925977Y-63888757D01*
X140004995Y-63740922D01*
X140111341Y-63611341D01*
X140240922Y-63504995D01*
X140388756Y-63425977D01*
X140388759Y-63425976D01*
X140388761Y-63425975D01*
X140549175Y-63377314D01*
X140549176Y-63377314D01*
X140549179Y-63377313D01*
X140716000Y-63360883D01*
X140882820Y-63377313D01*
X140882820Y-63377313D01*
G37*
G36*
X138342820Y-63377313D02*
X138342823Y-63377314D01*
X138342824Y-63377314D01*
X138503238Y-63425975D01*
X138503240Y-63425976D01*
X138503243Y-63425977D01*
X138651078Y-63504995D01*
X138780659Y-63611341D01*
X138887005Y-63740922D01*
X138966023Y-63888756D01*
X139014687Y-64049179D01*
X139027000Y-64174196D01*
X139027000Y-64857803D01*
X139014687Y-64982820D01*
X139014686Y-64982822D01*
X139014686Y-64982825D01*
X138966025Y-65143239D01*
X138966023Y-65143244D01*
X138887005Y-65291078D01*
X138780659Y-65420659D01*
X138651078Y-65527005D01*
X138503244Y-65606023D01*
X138503241Y-65606024D01*
X138503239Y-65606025D01*
X138342825Y-65654686D01*
X138342824Y-65654686D01*
X138342821Y-65654687D01*
X138176000Y-65671117D01*
X138009180Y-65654687D01*
X138009177Y-65654686D01*
X138009176Y-65654686D01*
X137848762Y-65606025D01*
X137848760Y-65606024D01*
X137848757Y-65606023D01*
X137700923Y-65527005D01*
X137571342Y-65420659D01*
X137464996Y-65291078D01*
X137385975Y-65143239D01*
X137337313Y-64982826D01*
X137325000Y-64857804D01*
X137325000Y-64174197D01*
X137337313Y-64049180D01*
X137337314Y-64049176D01*
X137385975Y-63888762D01*
X137385976Y-63888760D01*
X137385977Y-63888757D01*
X137464995Y-63740922D01*
X137571341Y-63611341D01*
X137700922Y-63504995D01*
X137848756Y-63425977D01*
X137848759Y-63425976D01*
X137848761Y-63425975D01*
X138009175Y-63377314D01*
X138009176Y-63377314D01*
X138009179Y-63377313D01*
X138176000Y-63360883D01*
X138342820Y-63377313D01*
X138342820Y-63377313D01*
G37*
G36*
X162525331Y-55268211D02*
X162853092Y-55403974D01*
X163148073Y-55601074D01*
X163398926Y-55851927D01*
X163596026Y-56146908D01*
X163731789Y-56474669D01*
X163801000Y-56822616D01*
X163801000Y-57177384D01*
X163731789Y-57525331D01*
X163596026Y-57853092D01*
X163398926Y-58148073D01*
X163148073Y-58398926D01*
X162853092Y-58596026D01*
X162525331Y-58731789D01*
X162177384Y-58801000D01*
X161822616Y-58801000D01*
X161474669Y-58731789D01*
X161146908Y-58596026D01*
X160851927Y-58398926D01*
X160601074Y-58148073D01*
X160403974Y-57853092D01*
X160268211Y-57525331D01*
X160199000Y-57177384D01*
X160199000Y-56822616D01*
X160268211Y-56474669D01*
X160403974Y-56146908D01*
X160601074Y-55851927D01*
X160851927Y-55601074D01*
X161146908Y-55403974D01*
X161474669Y-55268211D01*
X161822616Y-55199000D01*
X162177384Y-55199000D01*
X162525331Y-55268211D01*
X162525331Y-55268211D01*
G37*
G36*
X100525331Y-55268211D02*
X100853092Y-55403974D01*
X101148073Y-55601074D01*
X101398926Y-55851927D01*
X101596026Y-56146908D01*
X101731789Y-56474669D01*
X101801000Y-56822616D01*
X101801000Y-57177384D01*
X101731789Y-57525331D01*
X101596026Y-57853092D01*
X101398926Y-58148073D01*
X101148073Y-58398926D01*
X100853092Y-58596026D01*
X100525331Y-58731789D01*
X100177384Y-58801000D01*
X99822616Y-58801000D01*
X99474669Y-58731789D01*
X99146908Y-58596026D01*
X98851927Y-58398926D01*
X98601074Y-58148073D01*
X98403974Y-57853092D01*
X98268211Y-57525331D01*
X98199000Y-57177384D01*
X98199000Y-56822616D01*
X98268211Y-56474669D01*
X98403974Y-56146908D01*
X98601074Y-55851927D01*
X98851927Y-55601074D01*
X99146908Y-55403974D01*
X99474669Y-55268211D01*
X99822616Y-55199000D01*
X100177384Y-55199000D01*
X100525331Y-55268211D01*
X100525331Y-55268211D01*
G37*
M02*
