M48
;DRILL file {KiCad 5.0.2+dfsg1-1} date Sun May 10 21:50:56 2020
;FORMAT={-:-/ absolute / metric / decimal}
FMAT,2
METRIC,TZ
T1C0.400
T2C0.800
T3C1.000
%
G90
G05
T1
X102.108Y-118.872
X102.616Y-106.426
X102.87Y-111.76
X103.246Y-114.549
X107.687Y-101.725
X117.856Y-103.124
X120.396Y-103.886
X122.936Y-103.066
X125.458Y-61.74
X127.508Y-61.722
X129.032Y-60.865
X129.743Y-124.663
X130.556Y-101.346
X131.593Y-126.818
X133.096Y-102.362
X133.147Y-125.882
X135.433Y-125.832
X145.644Y-126.086
X148.285Y-126.035
X148.438Y-100.787
X150.928Y-125.157
T2
X122.936Y-126.746
X127.936Y-126.746
X107.696Y-106.426
X107.696Y-121.666
X110.236Y-106.426
X110.236Y-121.666
X112.776Y-106.426
X112.776Y-121.666
X115.316Y-106.426
X115.316Y-121.666
X117.856Y-106.426
X117.856Y-121.666
X120.396Y-106.426
X120.396Y-121.666
X122.936Y-106.426
X122.936Y-121.666
X125.476Y-106.426
X125.476Y-121.666
X128.016Y-106.426
X128.016Y-121.666
X130.556Y-106.426
X130.556Y-121.666
X133.096Y-106.426
X133.096Y-121.666
X135.636Y-106.426
X135.636Y-121.666
X138.176Y-106.426
X138.176Y-121.666
X140.716Y-106.426
X140.716Y-121.666
X143.256Y-106.426
X143.256Y-121.666
X145.796Y-106.426
X145.796Y-121.666
X148.336Y-106.426
X148.336Y-121.666
X150.876Y-106.426
X150.876Y-121.666
X153.416Y-106.426
X153.416Y-121.666
X155.956Y-106.426
X155.956Y-121.666
T3
X107.696Y-127.254
X110.236Y-127.254
X112.776Y-127.254
X115.316Y-127.254
X117.856Y-127.254
X107.696Y-64.516
X107.696Y-97.536
X110.236Y-64.516
X110.236Y-97.536
X112.776Y-64.516
X112.776Y-97.536
X115.316Y-64.516
X115.316Y-97.536
X117.856Y-64.516
X117.856Y-97.536
X120.396Y-64.516
X120.396Y-97.536
X122.936Y-64.516
X122.936Y-97.536
X125.476Y-64.516
X125.476Y-97.536
X128.016Y-64.516
X128.016Y-97.536
X130.556Y-64.516
X130.556Y-97.536
X133.096Y-64.516
X133.096Y-97.536
X135.636Y-64.516
X135.636Y-97.536
X138.176Y-64.516
X138.176Y-97.536
X140.716Y-64.516
X140.716Y-97.536
X143.256Y-64.516
X143.256Y-97.536
X145.796Y-64.516
X145.796Y-97.536
X148.336Y-64.516
X148.336Y-97.536
X150.876Y-64.516
X150.876Y-97.536
X153.416Y-64.516
X153.416Y-97.536
X155.956Y-64.516
X155.956Y-97.536
T0
M30
