G04 #@! TF.GenerationSoftware,KiCad,Pcbnew,5.0.2+dfsg1-1*
G04 #@! TF.CreationDate,2020-05-10T22:28:15+00:00*
G04 #@! TF.ProjectId,lcd_breakout,6c63645f-6272-4656-916b-6f75742e6b69,v1.0*
G04 #@! TF.SameCoordinates,Original*
G04 #@! TF.FileFunction,Copper,L1,Top*
G04 #@! TF.FilePolarity,Positive*
%FSLAX46Y46*%
G04 Gerber Fmt 4.6, Leading zero omitted, Abs format (unit mm)*
G04 Created by KiCad (PCBNEW 5.0.2+dfsg1-1) date Sun May 10 22:28:15 2020*
%MOMM*%
%LPD*%
G01*
G04 APERTURE LIST*
G04 #@! TA.AperFunction,ComponentPad*
%ADD10O,1.600000X2.200000*%
G04 #@! TD*
G04 #@! TA.AperFunction,ComponentPad*
%ADD11R,1.600000X1.600000*%
G04 #@! TD*
G04 #@! TA.AperFunction,ComponentPad*
%ADD12O,1.600000X1.600000*%
G04 #@! TD*
G04 #@! TA.AperFunction,ComponentPad*
%ADD13R,1.700000X1.700000*%
G04 #@! TD*
G04 #@! TA.AperFunction,ComponentPad*
%ADD14O,1.700000X1.700000*%
G04 #@! TD*
G04 #@! TA.AperFunction,ComponentPad*
%ADD15C,1.600000*%
G04 #@! TD*
G04 #@! TA.AperFunction,ViaPad*
%ADD16C,0.800000*%
G04 #@! TD*
G04 #@! TA.AperFunction,Conductor*
%ADD17C,0.250000*%
G04 #@! TD*
G04 APERTURE END LIST*
D10*
G04 #@! TO.P,U2,1*
G04 #@! TO.N,Net-(U1-Pad30)*
X107696000Y-97536000D03*
G04 #@! TO.P,U2,2*
G04 #@! TO.N,Net-(U2-Pad2)*
X110236000Y-97536000D03*
G04 #@! TO.P,U2,3*
G04 #@! TO.N,Net-(U2-Pad3)*
X112776000Y-97536000D03*
G04 #@! TO.P,U2,4*
G04 #@! TO.N,Net-(U2-Pad4)*
X115316000Y-97536000D03*
G04 #@! TO.P,U2,5*
G04 #@! TO.N,Net-(U1-Pad32)*
X117856000Y-97536000D03*
G04 #@! TO.P,U2,6*
G04 #@! TO.N,Net-(U1-Pad33)*
X120396000Y-97536000D03*
G04 #@! TO.P,U2,7*
G04 #@! TO.N,Net-(U1-Pad37)*
X122936000Y-97536000D03*
G04 #@! TO.P,U2,8*
G04 #@! TO.N,Net-(U1-Pad27)*
X125476000Y-97536000D03*
G04 #@! TO.P,U2,9*
G04 #@! TO.N,Net-(U1-Pad22)*
X128016000Y-97536000D03*
G04 #@! TO.P,U2,10*
G04 #@! TO.N,Net-(U1-Pad23)*
X130556000Y-97536000D03*
G04 #@! TO.P,U2,11*
G04 #@! TO.N,Net-(U1-Pad24)*
X133096000Y-97536000D03*
G04 #@! TO.P,U2,12*
G04 #@! TO.N,Net-(U1-Pad19)*
X135636000Y-97536000D03*
G04 #@! TO.P,U2,13*
G04 #@! TO.N,Net-(U1-Pad13)*
X138176000Y-97536000D03*
G04 #@! TO.P,U2,14*
G04 #@! TO.N,Net-(U1-Pad14)*
X140716000Y-97536000D03*
G04 #@! TO.P,U2,15*
G04 #@! TO.N,Net-(U1-Pad15)*
X143256000Y-97536000D03*
G04 #@! TO.P,U2,16*
G04 #@! TO.N,Net-(U1-Pad10)*
X145796000Y-97536000D03*
G04 #@! TO.P,U2,17*
G04 #@! TO.N,Net-(U1-Pad5)*
X148336000Y-97536000D03*
G04 #@! TO.P,U2,18*
G04 #@! TO.N,Net-(U1-Pad6)*
X150876000Y-97536000D03*
G04 #@! TO.P,U2,19*
G04 #@! TO.N,Net-(U1-Pad7)*
X153416000Y-97536000D03*
G04 #@! TO.P,U2,20*
G04 #@! TO.N,Net-(U1-Pad8)*
X155956000Y-97536000D03*
G04 #@! TO.P,U2,21*
G04 #@! TO.N,Net-(U1-Pad9)*
X155956000Y-64516000D03*
G04 #@! TO.P,U2,22*
G04 #@! TO.N,Net-(U1-Pad4)*
X153416000Y-64516000D03*
G04 #@! TO.P,U2,23*
G04 #@! TO.N,Net-(U1-Pad3)*
X150876000Y-64516000D03*
G04 #@! TO.P,U2,24*
G04 #@! TO.N,Net-(U1-Pad16)*
X148336000Y-64516000D03*
G04 #@! TO.P,U2,25*
G04 #@! TO.N,Net-(U1-Pad17)*
X145796000Y-64516000D03*
G04 #@! TO.P,U2,26*
G04 #@! TO.N,Net-(U1-Pad12)*
X143256000Y-64516000D03*
G04 #@! TO.P,U2,27*
G04 #@! TO.N,Net-(U1-Pad11)*
X140716000Y-64516000D03*
G04 #@! TO.P,U2,28*
G04 #@! TO.N,Net-(U1-Pad18)*
X138176000Y-64516000D03*
G04 #@! TO.P,U2,29*
G04 #@! TO.N,Net-(U1-Pad25)*
X135636000Y-64516000D03*
G04 #@! TO.P,U2,30*
G04 #@! TO.N,Net-(U1-Pad26)*
X133096000Y-64516000D03*
G04 #@! TO.P,U2,31*
G04 #@! TO.N,Net-(U1-Pad21)*
X130556000Y-64516000D03*
G04 #@! TO.P,U2,32*
G04 #@! TO.N,Net-(U1-Pad20)*
X128016000Y-64516000D03*
G04 #@! TO.P,U2,33*
G04 #@! TO.N,Net-(U2-Pad33)*
X125476000Y-64516000D03*
G04 #@! TO.P,U2,34*
G04 #@! TO.N,Net-(U1-Pad38)*
X122936000Y-64516000D03*
G04 #@! TO.P,U2,35*
G04 #@! TO.N,Net-(U1-Pad39)*
X120396000Y-64516000D03*
G04 #@! TO.P,U2,36*
G04 #@! TO.N,Net-(U1-Pad29)*
X117856000Y-64516000D03*
G04 #@! TO.P,U2,37*
G04 #@! TO.N,Net-(U1-Pad28)*
X115316000Y-64516000D03*
G04 #@! TO.P,U2,38*
G04 #@! TO.N,Net-(U2-Pad38)*
X112776000Y-64516000D03*
G04 #@! TO.P,U2,39*
G04 #@! TO.N,Net-(U2-Pad39)*
X110236000Y-64516000D03*
G04 #@! TO.P,U2,40*
G04 #@! TO.N,Net-(U1-Pad30)*
X107696000Y-64516000D03*
G04 #@! TD*
D11*
G04 #@! TO.P,U1,1*
G04 #@! TO.N,VDD*
X107696000Y-121666000D03*
D12*
G04 #@! TO.P,U1,21*
G04 #@! TO.N,Net-(U1-Pad21)*
X155956000Y-106426000D03*
G04 #@! TO.P,U1,2*
G04 #@! TO.N,Net-(J1-Pad4)*
X110236000Y-121666000D03*
G04 #@! TO.P,U1,22*
G04 #@! TO.N,Net-(U1-Pad22)*
X153416000Y-106426000D03*
G04 #@! TO.P,U1,3*
G04 #@! TO.N,Net-(U1-Pad3)*
X112776000Y-121666000D03*
G04 #@! TO.P,U1,23*
G04 #@! TO.N,Net-(U1-Pad23)*
X150876000Y-106426000D03*
G04 #@! TO.P,U1,4*
G04 #@! TO.N,Net-(U1-Pad4)*
X115316000Y-121666000D03*
G04 #@! TO.P,U1,24*
G04 #@! TO.N,Net-(U1-Pad24)*
X148336000Y-106426000D03*
G04 #@! TO.P,U1,5*
G04 #@! TO.N,Net-(U1-Pad5)*
X117856000Y-121666000D03*
G04 #@! TO.P,U1,25*
G04 #@! TO.N,Net-(U1-Pad25)*
X145796000Y-106426000D03*
G04 #@! TO.P,U1,6*
G04 #@! TO.N,Net-(U1-Pad6)*
X120396000Y-121666000D03*
G04 #@! TO.P,U1,26*
G04 #@! TO.N,Net-(U1-Pad26)*
X143256000Y-106426000D03*
G04 #@! TO.P,U1,7*
G04 #@! TO.N,Net-(U1-Pad7)*
X122936000Y-121666000D03*
G04 #@! TO.P,U1,27*
G04 #@! TO.N,Net-(U1-Pad27)*
X140716000Y-106426000D03*
G04 #@! TO.P,U1,8*
G04 #@! TO.N,Net-(U1-Pad8)*
X125476000Y-121666000D03*
G04 #@! TO.P,U1,28*
G04 #@! TO.N,Net-(U1-Pad28)*
X138176000Y-106426000D03*
G04 #@! TO.P,U1,9*
G04 #@! TO.N,Net-(U1-Pad9)*
X128016000Y-121666000D03*
G04 #@! TO.P,U1,29*
G04 #@! TO.N,Net-(U1-Pad29)*
X135636000Y-106426000D03*
G04 #@! TO.P,U1,10*
G04 #@! TO.N,Net-(U1-Pad10)*
X130556000Y-121666000D03*
G04 #@! TO.P,U1,30*
G04 #@! TO.N,Net-(U1-Pad30)*
X133096000Y-106426000D03*
G04 #@! TO.P,U1,11*
G04 #@! TO.N,Net-(U1-Pad11)*
X133096000Y-121666000D03*
G04 #@! TO.P,U1,31*
G04 #@! TO.N,Net-(C1-Pad2)*
X130556000Y-106426000D03*
G04 #@! TO.P,U1,12*
G04 #@! TO.N,Net-(U1-Pad12)*
X135636000Y-121666000D03*
G04 #@! TO.P,U1,32*
G04 #@! TO.N,Net-(U1-Pad32)*
X128016000Y-106426000D03*
G04 #@! TO.P,U1,13*
G04 #@! TO.N,Net-(U1-Pad13)*
X138176000Y-121666000D03*
G04 #@! TO.P,U1,33*
G04 #@! TO.N,Net-(U1-Pad33)*
X125476000Y-106426000D03*
G04 #@! TO.P,U1,14*
G04 #@! TO.N,Net-(U1-Pad14)*
X140716000Y-121666000D03*
G04 #@! TO.P,U1,34*
G04 #@! TO.N,Net-(J1-Pad2)*
X122936000Y-106426000D03*
G04 #@! TO.P,U1,15*
G04 #@! TO.N,Net-(U1-Pad15)*
X143256000Y-121666000D03*
G04 #@! TO.P,U1,35*
G04 #@! TO.N,Net-(U1-Pad35)*
X120396000Y-106426000D03*
G04 #@! TO.P,U1,16*
G04 #@! TO.N,Net-(U1-Pad16)*
X145796000Y-121666000D03*
G04 #@! TO.P,U1,36*
G04 #@! TO.N,GND*
X117856000Y-106426000D03*
G04 #@! TO.P,U1,17*
G04 #@! TO.N,Net-(U1-Pad17)*
X148336000Y-121666000D03*
G04 #@! TO.P,U1,37*
G04 #@! TO.N,Net-(U1-Pad37)*
X115316000Y-106426000D03*
G04 #@! TO.P,U1,18*
G04 #@! TO.N,Net-(U1-Pad18)*
X150876000Y-121666000D03*
G04 #@! TO.P,U1,38*
G04 #@! TO.N,Net-(U1-Pad38)*
X112776000Y-106426000D03*
G04 #@! TO.P,U1,19*
G04 #@! TO.N,Net-(U1-Pad19)*
X153416000Y-121666000D03*
G04 #@! TO.P,U1,39*
G04 #@! TO.N,Net-(U1-Pad39)*
X110236000Y-106426000D03*
G04 #@! TO.P,U1,20*
G04 #@! TO.N,Net-(U1-Pad20)*
X155956000Y-121666000D03*
G04 #@! TO.P,U1,40*
G04 #@! TO.N,Net-(J1-Pad3)*
X107696000Y-106426000D03*
G04 #@! TD*
D13*
G04 #@! TO.P,J1,1*
G04 #@! TO.N,VDD*
X107696000Y-127254000D03*
D14*
G04 #@! TO.P,J1,2*
G04 #@! TO.N,Net-(J1-Pad2)*
X110236000Y-127254000D03*
G04 #@! TO.P,J1,3*
G04 #@! TO.N,Net-(J1-Pad3)*
X112776000Y-127254000D03*
G04 #@! TO.P,J1,4*
G04 #@! TO.N,Net-(J1-Pad4)*
X115316000Y-127254000D03*
G04 #@! TO.P,J1,5*
G04 #@! TO.N,GND*
X117856000Y-127254000D03*
G04 #@! TD*
D15*
G04 #@! TO.P,C1,1*
G04 #@! TO.N,GND*
X122936000Y-126746000D03*
G04 #@! TO.P,C1,2*
G04 #@! TO.N,Net-(C1-Pad2)*
X127936000Y-126746000D03*
G04 #@! TD*
D16*
G04 #@! TO.N,GND*
X102869998Y-111760000D03*
G04 #@! TO.N,Net-(J1-Pad2)*
X103246022Y-114548683D03*
G04 #@! TO.N,Net-(J1-Pad3)*
X102616001Y-106426000D03*
G04 #@! TO.N,Net-(U1-Pad23)*
X130556000Y-101346016D03*
G04 #@! TO.N,Net-(U1-Pad24)*
X133096000Y-102362000D03*
G04 #@! TO.N,Net-(U1-Pad5)*
X148437600Y-100787200D03*
G04 #@! TO.N,Net-(U1-Pad25)*
X129032000Y-60865021D03*
G04 #@! TO.N,Net-(U1-Pad26)*
X127508000Y-61722000D03*
G04 #@! TO.N,Net-(U1-Pad8)*
X129743200Y-124663200D03*
G04 #@! TO.N,Net-(U1-Pad9)*
X131593166Y-126817966D03*
G04 #@! TO.N,Net-(U1-Pad30)*
X107686534Y-101725444D03*
G04 #@! TO.N,Net-(U1-Pad11)*
X133146800Y-125882400D03*
G04 #@! TO.N,Net-(U1-Pad12)*
X135432800Y-125831596D03*
G04 #@! TO.N,Net-(U1-Pad32)*
X117856000Y-103124006D03*
G04 #@! TO.N,Net-(U1-Pad33)*
X120396000Y-103886000D03*
G04 #@! TO.N,Net-(U1-Pad16)*
X145643600Y-126085600D03*
G04 #@! TO.N,Net-(U1-Pad17)*
X148285200Y-126034800D03*
G04 #@! TO.N,Net-(U1-Pad37)*
X122936000Y-103066010D03*
G04 #@! TO.N,Net-(U1-Pad18)*
X150928358Y-125157390D03*
G04 #@! TO.N,Net-(U1-Pad39)*
X125458087Y-61739913D03*
G04 #@! TO.N,Net-(C1-Pad2)*
X102108000Y-118872004D03*
G04 #@! TD*
D17*
G04 #@! TO.N,GND*
X122428000Y-127254000D02*
X122936000Y-126746000D01*
X117856000Y-127254000D02*
X122428000Y-127254000D01*
X117856000Y-127254000D02*
X117856000Y-130302000D01*
X117856000Y-130302000D02*
X117544011Y-130613989D01*
X117544011Y-130613989D02*
X104831579Y-130613989D01*
X104831579Y-130613989D02*
X103595001Y-129377411D01*
X103595001Y-129377411D02*
X103595001Y-118269999D01*
X103595001Y-118269999D02*
X102071001Y-116745999D01*
X102469999Y-112159999D02*
X102869998Y-111760000D01*
X102071001Y-116745999D02*
X102071001Y-112558997D01*
X102071001Y-112558997D02*
X102469999Y-112159999D01*
G04 #@! TO.N,Net-(J1-Pad2)*
X103246022Y-115114368D02*
X103246022Y-114548683D01*
X103246022Y-116648198D02*
X103246022Y-115114368D01*
X107776033Y-129713967D02*
X105204377Y-129713967D01*
X110236000Y-127254000D02*
X107776033Y-129713967D01*
X104495023Y-129004613D02*
X104495023Y-117897199D01*
X105204377Y-129713967D02*
X104495023Y-129004613D01*
X104495023Y-117897199D02*
X103246022Y-116648198D01*
G04 #@! TO.N,Net-(J1-Pad3)*
X104045012Y-118083599D02*
X102521012Y-116559599D01*
X102616001Y-106991685D02*
X102616001Y-106426000D01*
X104045012Y-129191012D02*
X104045012Y-118083599D01*
X105017978Y-130163978D02*
X104045012Y-129191012D01*
X112776000Y-127254000D02*
X109866022Y-130163978D01*
X102521012Y-116559599D02*
X102521012Y-113564401D01*
X102521012Y-113564401D02*
X103595003Y-112490410D01*
X103595003Y-112490410D02*
X103595003Y-111223469D01*
X103595003Y-111223469D02*
X102616001Y-110244467D01*
X109866022Y-130163978D02*
X105017978Y-130163978D01*
X102616001Y-110244467D02*
X102616001Y-106991685D01*
G04 #@! TO.N,Net-(U1-Pad21)*
X130556000Y-63166000D02*
X130556000Y-64516000D01*
X130556000Y-59740800D02*
X130556000Y-63166000D01*
X130345134Y-59529934D02*
X130556000Y-59740800D01*
X105815600Y-59529934D02*
X130345134Y-59529934D01*
X150933989Y-111448011D02*
X106365189Y-111448011D01*
X155956000Y-106426000D02*
X150933989Y-111448011D01*
X102950034Y-62395500D02*
X105815600Y-59529934D01*
X102950034Y-103015799D02*
X102950034Y-62395500D01*
X106365189Y-111448011D02*
X105017978Y-110100800D01*
X105017978Y-110100800D02*
X105017978Y-105083743D01*
X105017978Y-105083743D02*
X102950034Y-103015799D01*
G04 #@! TO.N,Net-(U1-Pad22)*
X128016000Y-97536000D02*
X128016000Y-97236000D01*
X128016000Y-97836000D02*
X128016000Y-97536000D01*
X135636000Y-100076000D02*
X130256000Y-100076000D01*
X137021978Y-101461978D02*
X135636000Y-100076000D01*
X130256000Y-100076000D02*
X128016000Y-97836000D01*
X153416000Y-106426000D02*
X150970411Y-103980411D01*
X150970411Y-103980411D02*
X145508000Y-103980411D01*
X145508000Y-103980411D02*
X142989567Y-101461978D01*
X142989567Y-101461978D02*
X137021978Y-101461978D01*
G04 #@! TO.N,Net-(U1-Pad3)*
X150876000Y-59537600D02*
X150876000Y-64516000D01*
X150418323Y-59079923D02*
X150876000Y-59537600D01*
X105629200Y-59079923D02*
X150418323Y-59079923D01*
X102500023Y-62209100D02*
X105629200Y-59079923D01*
X104567967Y-105270143D02*
X102500023Y-103202199D01*
X104567967Y-110287200D02*
X104567967Y-105270143D01*
X105410000Y-111129232D02*
X104567967Y-110287200D01*
X110230355Y-124211645D02*
X106431645Y-124211645D01*
X112776000Y-121666000D02*
X110230355Y-124211645D01*
X105845056Y-117337999D02*
X105410000Y-116902943D01*
X102500023Y-103202199D02*
X102500023Y-62209100D01*
X106431645Y-124211645D02*
X105845056Y-123625056D01*
X105845056Y-123625056D02*
X105845056Y-117337999D01*
X105410000Y-116902943D02*
X105410000Y-111129232D01*
G04 #@! TO.N,Net-(U1-Pad23)*
X130556000Y-97536000D02*
X130556000Y-97236000D01*
X130556000Y-97836000D02*
X130556000Y-97536000D01*
X131121685Y-101346016D02*
X130556000Y-101346016D01*
X136835578Y-101911989D02*
X136269605Y-101346016D01*
X145321600Y-104430422D02*
X142803167Y-101911989D01*
X142803167Y-101911989D02*
X136835578Y-101911989D01*
X148880422Y-104430422D02*
X145321600Y-104430422D01*
X150876000Y-106426000D02*
X148880422Y-104430422D01*
X136269605Y-101346016D02*
X131121685Y-101346016D01*
G04 #@! TO.N,Net-(U1-Pad4)*
X153416000Y-64216000D02*
X153416000Y-64516000D01*
X153416000Y-59182000D02*
X153416000Y-64516000D01*
X152863912Y-58629912D02*
X153416000Y-59182000D01*
X102050012Y-103388599D02*
X102050012Y-62022700D01*
X104117956Y-105456543D02*
X102050012Y-103388599D01*
X104117956Y-110473600D02*
X104117956Y-105456543D01*
X104902000Y-111257644D02*
X104117956Y-110473600D01*
X105442800Y-58629912D02*
X152863912Y-58629912D01*
X102050012Y-62022700D02*
X105442800Y-58629912D01*
X112210011Y-124771989D02*
X106355578Y-124771989D01*
X115316000Y-121666000D02*
X112210011Y-124771989D01*
X105395045Y-123811456D02*
X105395045Y-117524399D01*
X105395045Y-117524399D02*
X104902000Y-117031354D01*
X106355578Y-124771989D02*
X105395045Y-123811456D01*
X104902000Y-117031354D02*
X104902000Y-111257644D01*
G04 #@! TO.N,Net-(U1-Pad24)*
X133096000Y-97536000D02*
X133096000Y-97236000D01*
X148336000Y-106426000D02*
X146790433Y-104880433D01*
X146790433Y-104880433D02*
X145135200Y-104880433D01*
X145135200Y-104880433D02*
X142616767Y-102362000D01*
X142616767Y-102362000D02*
X133661685Y-102362000D01*
X133661685Y-102362000D02*
X133096000Y-102362000D01*
G04 #@! TO.N,Net-(U1-Pad5)*
X148336000Y-97536000D02*
X148336000Y-97236000D01*
X148336000Y-97536000D02*
X148336000Y-97836000D01*
X127254000Y-112268000D02*
X157480000Y-112268000D01*
X157755090Y-101062290D02*
X157480000Y-100787200D01*
X157480000Y-112268000D02*
X157755090Y-111992910D01*
X157755090Y-111992910D02*
X157755090Y-101062290D01*
X157480000Y-100787200D02*
X149003285Y-100787200D01*
X117856000Y-121666000D02*
X127254000Y-112268000D01*
X149003285Y-100787200D02*
X148437600Y-100787200D01*
G04 #@! TO.N,Net-(U1-Pad25)*
X135636000Y-64516000D02*
X135636000Y-64216000D01*
X129032000Y-60147200D02*
X129032000Y-60401200D01*
X128864745Y-59979945D02*
X129032000Y-60147200D01*
X106002000Y-59979945D02*
X128864745Y-59979945D01*
X141224000Y-110998000D02*
X106551589Y-110998000D01*
X145796000Y-106426000D02*
X141224000Y-110998000D01*
X105467989Y-104897343D02*
X103400045Y-102829399D01*
X106551589Y-110998000D02*
X105467989Y-109914400D01*
X129032000Y-60401200D02*
X129032000Y-60865021D01*
X103400045Y-62581900D02*
X106002000Y-59979945D01*
X105467989Y-109914400D02*
X105467989Y-104897343D01*
X103400045Y-102829399D02*
X103400045Y-62581900D01*
G04 #@! TO.N,Net-(U1-Pad6)*
X150876000Y-97536000D02*
X150876000Y-97836000D01*
X159555134Y-97579134D02*
X157327600Y-95351600D01*
X159555134Y-123905166D02*
X159555134Y-97579134D01*
X157327600Y-95351600D02*
X152760400Y-95351600D01*
X149028612Y-124432388D02*
X159027912Y-124432388D01*
X149006001Y-124409777D02*
X149028612Y-124432388D01*
X150876000Y-97236000D02*
X150876000Y-97536000D01*
X159027912Y-124432388D02*
X159555134Y-123905166D01*
X123393200Y-124663200D02*
X128574800Y-124663200D01*
X128574800Y-124663200D02*
X129641600Y-125730000D01*
X152760400Y-95351600D02*
X150876000Y-97236000D01*
X129641600Y-125730000D02*
X131655813Y-125730000D01*
X120396000Y-121666000D02*
X123393200Y-124663200D01*
X131655813Y-125730000D02*
X132976036Y-124409777D01*
X132976036Y-124409777D02*
X149006001Y-124409777D01*
G04 #@! TO.N,Net-(U1-Pad26)*
X133096000Y-64516000D02*
X133096000Y-64216000D01*
X127508000Y-61722000D02*
X127508000Y-61722000D01*
X127508000Y-60655200D02*
X127508000Y-61722000D01*
X127282756Y-60429956D02*
X127508000Y-60655200D01*
X106188400Y-60429956D02*
X127282756Y-60429956D01*
X103850056Y-62768300D02*
X106188400Y-60429956D01*
X103850056Y-102642999D02*
X103850056Y-62768300D01*
X143256000Y-106426000D02*
X142116833Y-107565167D01*
X130047600Y-107565167D02*
X127064778Y-110547989D01*
X105918000Y-104710943D02*
X103850056Y-102642999D01*
X142116833Y-107565167D02*
X130047600Y-107565167D01*
X105918000Y-109728000D02*
X105918000Y-104710943D01*
X127064778Y-110547989D02*
X106737989Y-110547989D01*
X106737989Y-110547989D02*
X105918000Y-109728000D01*
G04 #@! TO.N,Net-(U1-Pad7)*
X153416000Y-97536000D02*
X153416000Y-97236000D01*
X122936000Y-122986800D02*
X122936000Y-121666000D01*
X123458955Y-123509755D02*
X122936000Y-122986800D01*
X155767178Y-99887178D02*
X158655112Y-99887178D01*
X153416000Y-97536000D02*
X155767178Y-99887178D01*
X158655112Y-99887178D02*
X158655112Y-123532366D01*
X158655112Y-123532366D02*
X149401412Y-123532366D01*
X149401412Y-123532366D02*
X149378801Y-123509755D01*
X149378801Y-123509755D02*
X123458955Y-123509755D01*
G04 #@! TO.N,Net-(U1-Pad27)*
X137529978Y-103239978D02*
X132581209Y-103239978D01*
X140716000Y-106426000D02*
X137529978Y-103239978D01*
X131572119Y-102230888D02*
X129408888Y-102230888D01*
X125476000Y-98298000D02*
X125476000Y-97536000D01*
X129408888Y-102230888D02*
X125476000Y-98298000D01*
X132581209Y-103239978D02*
X131572119Y-102230888D01*
G04 #@! TO.N,Net-(U1-Pad8)*
X155956000Y-97536000D02*
X155956000Y-97236000D01*
X129743200Y-124663200D02*
X129743200Y-124663200D01*
X149192401Y-123959766D02*
X149215012Y-123982377D01*
X157006000Y-97536000D02*
X155956000Y-97536000D01*
X159105123Y-98877490D02*
X157763633Y-97536000D01*
X159105123Y-123718766D02*
X159105123Y-98877490D01*
X158841512Y-123982377D02*
X159105123Y-123718766D01*
X149215012Y-123982377D02*
X158841512Y-123982377D01*
X129743200Y-124663200D02*
X130446634Y-123959766D01*
X157763633Y-97536000D02*
X157006000Y-97536000D01*
X130446634Y-123959766D02*
X149192401Y-123959766D01*
G04 #@! TO.N,Net-(U1-Pad28)*
X115316000Y-64516000D02*
X115316000Y-64216000D01*
X135439989Y-103689989D02*
X138176000Y-106426000D01*
X132394809Y-103689989D02*
X135439989Y-103689989D01*
X131385719Y-102680899D02*
X132394809Y-103689989D01*
X129222488Y-102680899D02*
X131385719Y-102680899D01*
X107618787Y-99995967D02*
X126537557Y-99995967D01*
X115316000Y-62585600D02*
X114960400Y-62230000D01*
X126537557Y-99995967D02*
X129222488Y-102680899D01*
X115316000Y-64516000D02*
X115316000Y-62585600D01*
X114960400Y-62230000D02*
X106934000Y-62230000D01*
X106934000Y-62230000D02*
X105721991Y-63442009D01*
X105721991Y-63442009D02*
X105721991Y-98099171D01*
X105721991Y-98099171D02*
X107618787Y-99995967D01*
G04 #@! TO.N,Net-(U1-Pad9)*
X155956000Y-64516000D02*
X155956000Y-64262000D01*
X131993165Y-127217965D02*
X131593166Y-126817966D01*
X161798000Y-64516000D02*
X162255200Y-64973200D01*
X155956000Y-64516000D02*
X161798000Y-64516000D01*
X162255200Y-64973200D02*
X162255200Y-127183978D01*
X162255200Y-127183978D02*
X161727978Y-127711200D01*
X161727978Y-127711200D02*
X132486400Y-127711200D01*
X132486400Y-127711200D02*
X131993165Y-127217965D01*
G04 #@! TO.N,Net-(U1-Pad29)*
X117856000Y-62077600D02*
X117856000Y-64516000D01*
X117558389Y-61779989D02*
X117856000Y-62077600D01*
X106747600Y-61779989D02*
X117558389Y-61779989D01*
X105271980Y-98285571D02*
X105271980Y-63255609D01*
X107432387Y-100445978D02*
X105271980Y-98285571D01*
X133350000Y-104140000D02*
X132208409Y-104140000D01*
X135636000Y-106426000D02*
X133350000Y-104140000D01*
X132208409Y-104140000D02*
X131199320Y-103130910D01*
X131199320Y-103130910D02*
X129036088Y-103130910D01*
X105271980Y-63255609D02*
X106747600Y-61779989D01*
X126351158Y-100445978D02*
X107432387Y-100445978D01*
X129036088Y-103130910D02*
X126351158Y-100445978D01*
G04 #@! TO.N,Net-(U1-Pad10)*
X157666400Y-112718011D02*
X158205101Y-112179310D01*
X145796000Y-97836000D02*
X145796000Y-97536000D01*
X157666400Y-100337189D02*
X152738799Y-100337189D01*
X147890789Y-99930789D02*
X145796000Y-97836000D01*
X130556000Y-121666000D02*
X139503989Y-112718011D01*
X158205101Y-100875890D02*
X157666400Y-100337189D01*
X152738799Y-100337189D02*
X152332398Y-99930789D01*
X152332398Y-99930789D02*
X147890789Y-99930789D01*
X158205101Y-112179310D02*
X158205101Y-100875890D01*
X139503989Y-112718011D02*
X157666400Y-112718011D01*
G04 #@! TO.N,Net-(U1-Pad30)*
X107696000Y-101715978D02*
X107696000Y-101715978D01*
X107696000Y-96186000D02*
X107696000Y-64516000D01*
X107696000Y-97536000D02*
X107696000Y-96186000D01*
X107696000Y-64516000D02*
X107696000Y-64262000D01*
X123308800Y-101461978D02*
X122936000Y-101461978D01*
X108086533Y-102125443D02*
X107686534Y-101725444D01*
X108323090Y-102362000D02*
X108086533Y-102125443D01*
X117708367Y-102362000D02*
X108323090Y-102362000D01*
X122936000Y-101461978D02*
X118608389Y-101461978D01*
X118608389Y-101461978D02*
X117708367Y-102362000D01*
X130302000Y-103632000D02*
X128900770Y-103632000D01*
X133096000Y-106426000D02*
X130302000Y-103632000D01*
X126730748Y-101461978D02*
X122936000Y-101461978D01*
X128900770Y-103632000D02*
X126730748Y-101461978D01*
G04 #@! TO.N,Net-(U1-Pad11)*
X140716000Y-64516000D02*
X140716000Y-64816000D01*
X135926012Y-124859788D02*
X135780801Y-125004999D01*
X149870969Y-125911156D02*
X148819601Y-124859788D01*
X140716000Y-64973200D02*
X146985967Y-71243167D01*
X134024201Y-125004999D02*
X133146800Y-125882400D01*
X135780801Y-125004999D02*
X134024201Y-125004999D01*
X140716000Y-64516000D02*
X140716000Y-64973200D01*
X146985967Y-71243167D02*
X146985967Y-79959600D01*
X148819601Y-124859788D02*
X135926012Y-124859788D01*
X146985967Y-79959600D02*
X160455156Y-93428788D01*
X160455156Y-93428788D02*
X160455156Y-125911156D01*
X160455156Y-125911156D02*
X149870969Y-125911156D01*
G04 #@! TO.N,Net-(U1-Pad12)*
X149684569Y-126361167D02*
X148633201Y-125309799D01*
X160641556Y-126361167D02*
X149684569Y-126361167D01*
X147435978Y-79773200D02*
X160905167Y-93242388D01*
X135998485Y-125831596D02*
X135432800Y-125831596D01*
X160905167Y-126097556D02*
X160641556Y-126361167D01*
X144824600Y-125831596D02*
X135998485Y-125831596D01*
X148633201Y-125309799D02*
X145346397Y-125309799D01*
X147435978Y-68995978D02*
X147435978Y-79773200D01*
X143256000Y-64816000D02*
X147435978Y-68995978D01*
X160905167Y-93242388D02*
X160905167Y-126097556D01*
X143256000Y-64516000D02*
X143256000Y-64816000D01*
X145346397Y-125309799D02*
X144824600Y-125831596D01*
G04 #@! TO.N,Net-(U1-Pad32)*
X123122400Y-101911989D02*
X122936000Y-101911989D01*
X127216001Y-105626001D02*
X128016000Y-106426000D01*
X122936000Y-101911989D02*
X123501989Y-101911989D01*
X123501989Y-101911989D02*
X127216001Y-105626001D01*
X122936000Y-101911989D02*
X119068017Y-101911989D01*
X119068017Y-101911989D02*
X118255999Y-102724007D01*
X118255999Y-102724007D02*
X117856000Y-103124006D01*
G04 #@! TO.N,Net-(U1-Pad33)*
X125476000Y-106426000D02*
X125476000Y-105156000D01*
X125476000Y-105156000D02*
X124206000Y-103886000D01*
X124206000Y-103886000D02*
X120396000Y-103886000D01*
X120396000Y-103886000D02*
X120396000Y-103886000D01*
X120396000Y-103886000D02*
X120396000Y-103886000D01*
G04 #@! TO.N,Net-(U1-Pad16)*
X148336000Y-64516000D02*
X148595644Y-64516000D01*
X146043599Y-126485599D02*
X145643600Y-126085600D01*
X146819189Y-127261189D02*
X146043599Y-126485599D01*
X161805189Y-126997578D02*
X161541578Y-127261189D01*
X148336000Y-79400400D02*
X161805189Y-92869589D01*
X148336000Y-64516000D02*
X148336000Y-79400400D01*
X161805189Y-92869589D02*
X161805189Y-126997578D01*
X161541578Y-127261189D02*
X146819189Y-127261189D01*
G04 #@! TO.N,Net-(U1-Pad17)*
X149061578Y-126811178D02*
X148285200Y-126034800D01*
X145796000Y-64973200D02*
X147885989Y-67063189D01*
X145796000Y-64516000D02*
X145796000Y-64973200D01*
X147885989Y-67063189D02*
X147885989Y-79586800D01*
X147885989Y-79586800D02*
X161355178Y-93055988D01*
X161355178Y-93055988D02*
X161355178Y-126811178D01*
X161355178Y-126811178D02*
X149061578Y-126811178D01*
G04 #@! TO.N,Net-(U1-Pad37)*
X122936000Y-103066010D02*
X122936000Y-103066010D01*
X122370315Y-103066010D02*
X122936000Y-103066010D01*
X119748992Y-103066010D02*
X122370315Y-103066010D01*
X118675002Y-104140000D02*
X119748992Y-103066010D01*
X115316000Y-106426000D02*
X117602000Y-104140000D01*
X117602000Y-104140000D02*
X118675002Y-104140000D01*
G04 #@! TO.N,Net-(U1-Pad18)*
X138176000Y-64516000D02*
X138176000Y-64216000D01*
X151494043Y-125157390D02*
X150928358Y-125157390D01*
X159779810Y-125157390D02*
X151494043Y-125157390D01*
X138176000Y-65125600D02*
X146535956Y-73485556D01*
X138176000Y-64516000D02*
X138176000Y-65125600D01*
X146535956Y-73485556D02*
X146535956Y-80146000D01*
X146535956Y-80146000D02*
X160005145Y-93615188D01*
X160005145Y-93615188D02*
X160005145Y-124932055D01*
X160005145Y-124932055D02*
X159779810Y-125157390D01*
G04 #@! TO.N,Net-(U1-Pad38)*
X109416011Y-103066011D02*
X111976001Y-105626001D01*
X122936000Y-61874400D02*
X122391578Y-61329978D01*
X122936000Y-64516000D02*
X122936000Y-61874400D01*
X122391578Y-61329978D02*
X106561200Y-61329978D01*
X104776803Y-102296926D02*
X105545888Y-103066011D01*
X106561200Y-61329978D02*
X104776803Y-63114375D01*
X111976001Y-105626001D02*
X112776000Y-106426000D01*
X105545888Y-103066011D02*
X109416011Y-103066011D01*
X104776803Y-63114375D02*
X104776803Y-102296926D01*
G04 #@! TO.N,Net-(U1-Pad19)*
X135636000Y-97536000D02*
X135636000Y-97236000D01*
X135636000Y-97836000D02*
X135636000Y-97536000D01*
G04 #@! TO.N,Net-(U1-Pad39)*
X120396000Y-64216000D02*
X120396000Y-64516000D01*
X125425200Y-61707026D02*
X125458087Y-61739913D01*
X125294367Y-60879967D02*
X125425200Y-61010800D01*
X108204000Y-104394000D02*
X106237467Y-104394000D01*
X110236000Y-106426000D02*
X108204000Y-104394000D01*
X125425200Y-61010800D02*
X125425200Y-61707026D01*
X106237467Y-104394000D02*
X104300067Y-102456600D01*
X104300067Y-102456600D02*
X104300067Y-62954700D01*
X104300067Y-62954700D02*
X106374800Y-60879967D01*
X106374800Y-60879967D02*
X125294367Y-60879967D01*
G04 #@! TO.N,Net-(U1-Pad20)*
X156053698Y-121568302D02*
X156159598Y-121568302D01*
X155956000Y-121666000D02*
X156053698Y-121568302D01*
X128016000Y-64516000D02*
X128016000Y-64816000D01*
G04 #@! TO.N,Net-(C1-Pad2)*
X127762000Y-131064000D02*
X104394000Y-131064000D01*
X102108000Y-128778000D02*
X102108000Y-119437689D01*
X104394000Y-131064000D02*
X102108000Y-128778000D01*
X127936000Y-126746000D02*
X127936000Y-130890000D01*
X102108000Y-119437689D02*
X102108000Y-118872004D01*
X127936000Y-130890000D02*
X127762000Y-131064000D01*
G04 #@! TD*
M02*
